<svg width="1306" height="313" viewBox="0 0 1306 313" fill="none" xmlns="http://www.w3.org/2000/svg">
<path d="M63.7 202.9C52.1667 202.9 43.3 200.5 37.1 195.7C30.9667 190.833 27.3 183.3 26.1 173.1C25.9 170.633 26.4333 168.767 27.7 167.5C29.0333 166.167 30.9 165.5 33.3 165.5C35.7 165.5 37.4667 166.1 38.6 167.3C39.8 168.5 40.5667 170.3 40.9 172.7C41.7 178.567 43.8 182.633 47.2 184.9C50.6667 187.1 56.1667 188.2 63.7 188.2H92.5C101.433 188.2 107.533 186.567 110.8 183.3C114.133 179.967 115.8 173.933 115.8 165.2C115.8 156.333 114.1 150.233 110.7 146.9C107.367 143.5 101.3 141.8 92.5 141.8H66.9C54.5667 141.8 45.4333 138.833 39.5 132.9C33.6333 126.967 30.7 117.867 30.7 105.6C30.7 93.3333 33.6 84.2667 39.4 78.4C45.2667 72.5333 54.3667 69.6 66.7 69.6H91.9C102.7 69.6 111 71.9 116.8 76.5C122.667 81.0333 126.2 88.0667 127.4 97.6C127.667 100.067 127.133 101.967 125.8 103.3C124.533 104.567 122.667 105.2 120.2 105.2C117.867 105.2 116.1 104.6 114.9 103.4C113.7 102.133 112.967 100.333 112.7 98C111.9 92.8667 109.9 89.3 106.7 87.3C103.567 85.3 98.6333 84.3 91.9 84.3H66.7C58.4333 84.3 52.8 85.8333 49.8 88.9C46.8667 91.9 45.4 97.4667 45.4 105.6C45.4 113.733 46.9 119.367 49.9 122.5C52.9667 125.567 58.6333 127.1 66.9 127.1H92.5C105.433 127.1 115 130.2 121.2 136.4C127.4 142.6 130.5 152.2 130.5 165.2C130.5 178.133 127.4 187.667 121.2 193.8C115 199.867 105.433 202.9 92.5 202.9H63.7ZM206.323 203C191.323 203 180.257 199.467 173.123 192.4C166.057 185.267 162.523 174.2 162.523 159.2V113.2C162.523 98.0667 166.057 87 173.123 80C180.257 72.9333 191.29 69.4667 206.223 69.6H230.323C245.323 69.6 256.357 73.1333 263.423 80.2C270.49 87.2667 274.023 98.3333 274.023 113.4V159.2C274.023 174.2 270.49 185.267 263.423 192.4C256.357 199.467 245.323 203 230.323 203H206.323ZM206.323 188.3H230.323C237.59 188.3 243.323 187.4 247.523 185.6C251.79 183.8 254.823 180.8 256.623 176.6C258.423 172.333 259.323 166.533 259.323 159.2V113.4C259.323 106.133 258.423 100.4 256.623 96.2C254.823 91.9333 251.79 88.9 247.523 87.1C243.323 85.2333 237.59 84.3 230.323 84.3H206.223C198.957 84.2333 193.223 85.1 189.023 86.9C184.823 88.6333 181.79 91.6333 179.923 95.9C178.123 100.1 177.223 105.867 177.223 113.2V159.2C177.223 166.533 178.123 172.333 179.923 176.6C181.723 180.8 184.723 183.8 188.923 185.6C193.19 187.4 198.99 188.3 206.323 188.3ZM300.625 202.3C295.958 200.433 294.558 197.2 296.425 192.6L344.725 75.4C346.392 71.5333 349.125 69.6 352.925 69.6H353.425C357.225 69.8 359.825 71.7333 361.225 75.4L410.025 192.6C411.892 197.2 410.558 200.433 406.025 202.3C401.425 204.1 398.225 202.767 396.425 198.3L384.725 170.3H321.425L310.125 198.3C308.258 202.833 305.092 204.167 300.625 202.3ZM327.225 155.6H378.725L352.625 92.9L327.225 155.6ZM525.308 203.3C523.374 204.567 521.541 204.967 519.808 204.5C518.074 204.033 516.574 202.833 515.308 200.9L483.708 149.1H452.808V195.6C452.808 200.533 450.374 203 445.508 203C440.574 203 438.108 200.533 438.108 195.6V77C438.108 72.0667 440.574 69.6 445.508 69.6H492.308C504.241 69.6 513.341 72.7667 519.608 79.1C525.874 85.3667 529.008 94.4667 529.008 106.4V112.4C529.008 122.8 526.574 131.067 521.708 137.2C516.908 143.333 509.908 147.1 500.708 148.5L528.008 193.3C530.341 197.433 529.441 200.767 525.308 203.3ZM452.808 134.4H492.308C500.174 134.4 505.808 132.7 509.208 129.3C512.608 125.9 514.308 120.267 514.308 112.4V106.4C514.308 98.5333 512.608 92.9 509.208 89.5C505.808 86.0333 500.174 84.3 492.308 84.3H452.808V134.4ZM558.259 217.6C553.326 217.6 550.859 215.167 550.859 210.3C550.859 205.367 553.326 202.9 558.259 202.9H608.859C613.726 202.9 616.159 205.367 616.159 210.3C616.159 215.167 613.726 217.6 608.859 217.6H558.259ZM739.37 203.3C737.437 204.567 735.604 204.967 733.87 204.5C732.137 204.033 730.637 202.833 729.37 200.9L697.77 149.1H666.87V195.6C666.87 200.533 664.437 203 659.57 203C654.637 203 652.17 200.533 652.17 195.6V77C652.17 72.0667 654.637 69.6 659.57 69.6H706.37C718.304 69.6 727.404 72.7667 733.67 79.1C739.937 85.3667 743.07 94.4667 743.07 106.4V112.4C743.07 122.8 740.637 131.067 735.77 137.2C730.97 143.333 723.97 147.1 714.77 148.5L742.07 193.3C744.404 197.433 743.504 200.767 739.37 203.3ZM666.87 134.4H706.37C714.237 134.4 719.87 132.7 723.27 129.3C726.67 125.9 728.37 120.267 728.37 112.4V106.4C728.37 98.5333 726.67 92.9 723.27 89.5C719.87 86.0333 714.237 84.3 706.37 84.3H666.87V134.4ZM814.722 203C799.722 203 788.655 199.467 781.522 192.4C774.455 185.267 770.922 174.2 770.922 159.2V113.2C770.922 98.0667 774.455 87 781.522 80C788.655 72.9333 799.689 69.4667 814.622 69.6H838.722C853.722 69.6 864.755 73.1333 871.822 80.2C878.889 87.2667 882.422 98.3333 882.422 113.4V159.2C882.422 174.2 878.889 185.267 871.822 192.4C864.755 199.467 853.722 203 838.722 203H814.722ZM814.722 188.3H838.722C845.989 188.3 851.722 187.4 855.922 185.6C860.189 183.8 863.222 180.8 865.022 176.6C866.822 172.333 867.722 166.533 867.722 159.2V113.4C867.722 106.133 866.822 100.4 865.022 96.2C863.222 91.9333 860.189 88.9 855.922 87.1C851.722 85.2333 845.989 84.3 838.722 84.3H814.622C807.355 84.2333 801.622 85.1 797.422 86.9C793.222 88.6333 790.189 91.6333 788.322 95.9C786.522 100.1 785.622 105.867 785.622 113.2V159.2C785.622 166.533 786.522 172.333 788.322 176.6C790.122 180.8 793.122 183.8 797.322 185.6C801.589 187.4 807.389 188.3 814.722 188.3ZM952.177 202.9C940.643 202.9 931.777 200.5 925.577 195.7C919.443 190.833 915.777 183.3 914.577 173.1C914.377 170.633 914.91 168.767 916.177 167.5C917.51 166.167 919.377 165.5 921.777 165.5C924.177 165.5 925.943 166.1 927.077 167.3C928.277 168.5 929.043 170.3 929.377 172.7C930.177 178.567 932.277 182.633 935.677 184.9C939.143 187.1 944.643 188.2 952.177 188.2H980.977C989.91 188.2 996.01 186.567 999.277 183.3C1002.61 179.967 1004.28 173.933 1004.28 165.2C1004.28 156.333 1002.58 150.233 999.177 146.9C995.843 143.5 989.777 141.8 980.977 141.8H955.377C943.043 141.8 933.91 138.833 927.977 132.9C922.11 126.967 919.177 117.867 919.177 105.6C919.177 93.3333 922.077 84.2667 927.877 78.4C933.743 72.5333 942.843 69.6 955.177 69.6H980.377C991.177 69.6 999.477 71.9 1005.28 76.5C1011.14 81.0333 1014.68 88.0667 1015.88 97.6C1016.14 100.067 1015.61 101.967 1014.28 103.3C1013.01 104.567 1011.14 105.2 1008.68 105.2C1006.34 105.2 1004.58 104.6 1003.38 103.4C1002.18 102.133 1001.44 100.333 1001.18 98C1000.38 92.8667 998.377 89.3 995.177 87.3C992.043 85.3 987.11 84.3 980.377 84.3H955.177C946.91 84.3 941.277 85.8333 938.277 88.9C935.343 91.9 933.877 97.4667 933.877 105.6C933.877 113.733 935.377 119.367 938.377 122.5C941.443 125.567 947.11 127.1 955.377 127.1H980.977C993.91 127.1 1003.48 130.2 1009.68 136.4C1015.88 142.6 1018.98 152.2 1018.98 165.2C1018.98 178.133 1015.88 187.667 1009.68 193.8C1003.48 199.867 993.91 202.9 980.977 202.9H952.177Z" fill="#229CF3"/>
<path d="M28.784 289C24.0693 289 20.6133 287.901 18.416 285.704C16.2187 283.507 15.12 280.051 15.12 275.336V260.712C15.12 255.955 16.2187 252.488 18.416 250.312C20.6133 248.115 24.048 247.027 28.72 247.048H36.464C40.432 247.048 43.408 247.869 45.392 249.512C47.376 251.133 48.4853 253.747 48.72 257.352C48.8053 258.013 48.6773 258.525 48.336 258.888C47.9947 259.251 47.4827 259.432 46.8 259.432C45.5627 259.432 44.8587 258.76 44.688 257.416C44.5173 254.984 43.8027 253.32 42.544 252.424C41.3067 251.528 39.28 251.08 36.464 251.08H28.72C26.3307 251.059 24.4427 251.347 23.056 251.944C21.6693 252.541 20.6667 253.544 20.048 254.952C19.4507 256.36 19.152 258.28 19.152 260.712V275.336C19.152 277.725 19.4507 279.624 20.048 281.032C20.6667 282.44 21.68 283.453 23.088 284.072C24.496 284.669 26.3947 284.968 28.784 284.968H36.464C39.28 284.968 41.3067 284.52 42.544 283.624C43.8027 282.707 44.5173 281.043 44.688 278.632C44.8587 277.288 45.5627 276.616 46.8 276.616C47.4827 276.616 47.9947 276.797 48.336 277.16C48.6773 277.501 48.8053 278.013 48.72 278.696C48.4853 282.28 47.376 284.893 45.392 286.536C43.408 288.179 40.432 289 36.464 289H28.784ZM67.6795 289C63.6048 289 60.6075 288.04 58.6875 286.12C56.7675 284.2 55.8075 281.224 55.8075 277.192V269.896C55.8075 265.779 56.7675 262.771 58.6875 260.872C60.6075 258.952 63.6048 258.003 67.6795 258.024H72.9275C77.0235 258.024 80.0208 258.984 81.9195 260.904C83.8395 262.803 84.7995 265.8 84.7995 269.896V277.128C84.7995 281.203 83.8395 284.2 81.9195 286.12C80.0208 288.04 77.0235 289 72.9275 289H67.6795ZM59.8395 277.192C59.8395 280.115 60.4048 282.141 61.5355 283.272C62.6875 284.403 64.7355 284.968 67.6795 284.968H72.9275C75.8928 284.968 77.9408 284.403 79.0715 283.272C80.2022 282.12 80.7675 280.072 80.7675 277.128V269.896C80.7675 266.931 80.2022 264.883 79.0715 263.752C77.9408 262.621 75.8928 262.056 72.9275 262.056H67.6795C65.7168 262.035 64.1595 262.269 63.0075 262.76C61.8768 263.229 61.0662 264.04 60.5755 265.192C60.0848 266.323 59.8395 267.891 59.8395 269.896V277.192ZM98.1615 289C96.8175 289 96.1455 288.328 96.1455 286.984V260.04C96.1455 258.696 96.8175 258.024 98.1615 258.024C99.5055 258.024 100.178 258.696 100.178 260.04V262.408C102.29 259.485 105.842 258.024 110.834 258.024H112.626C116.722 258.024 119.719 258.984 121.618 260.904C123.538 262.803 124.498 265.8 124.498 269.896V286.984C124.498 288.328 123.826 289 122.482 289C121.138 289 120.466 288.328 120.466 286.984V269.896C120.466 266.931 119.89 264.883 118.738 263.752C117.607 262.621 115.57 262.056 112.626 262.056H110.834C107.783 262.056 105.308 262.504 103.41 263.4C101.511 264.296 100.434 265.693 100.178 267.592V286.984C100.178 288.328 99.5055 289 98.1615 289ZM138.349 289C137.005 289 136.333 288.328 136.333 286.984V260.04C136.333 258.696 137.005 258.024 138.349 258.024C139.693 258.024 140.365 258.696 140.365 260.04V262.408C142.477 259.485 146.029 258.024 151.021 258.024H152.813C156.909 258.024 159.906 258.984 161.805 260.904C163.725 262.803 164.685 265.8 164.685 269.896V286.984C164.685 288.328 164.013 289 162.669 289C161.325 289 160.653 288.328 160.653 286.984V269.896C160.653 266.931 160.077 264.883 158.925 263.752C157.794 262.621 155.757 262.056 152.813 262.056H151.021C147.97 262.056 145.496 262.504 143.597 263.4C141.698 264.296 140.621 265.693 140.365 267.592V286.984C140.365 288.328 139.693 289 138.349 289ZM179.465 275.112V277.192C179.465 280.115 180.03 282.141 181.161 283.272C182.313 284.403 184.361 284.968 187.305 284.968H192.553C195.091 284.968 196.937 284.669 198.089 284.072C199.262 283.475 199.977 282.44 200.233 280.968C200.382 280.328 200.617 279.848 200.937 279.528C201.257 279.208 201.737 279.048 202.377 279.048C203.038 279.048 203.539 279.229 203.881 279.592C204.243 279.933 204.371 280.445 204.265 281.128C203.923 283.795 202.782 285.779 200.841 287.08C198.921 288.36 196.158 289 192.553 289H187.305C183.23 289 180.233 288.04 178.312 286.12C176.393 284.2 175.433 281.224 175.433 277.192V269.896C175.433 265.757 176.393 262.739 178.312 260.84C180.233 258.92 183.23 257.981 187.305 258.024H192.553C196.649 258.024 199.646 258.984 201.545 260.904C203.465 262.803 204.425 265.8 204.425 269.896V273.096C204.425 274.44 203.753 275.112 202.409 275.112H179.465ZM187.305 262.056C184.361 262.013 182.313 262.557 181.161 263.688C180.03 264.819 179.465 266.888 179.465 269.896V271.08H200.393V269.896C200.393 266.931 199.827 264.883 198.697 263.752C197.566 262.621 195.518 262.056 192.553 262.056H187.305ZM226.555 289C222.48 289 219.483 288.04 217.562 286.12C215.643 284.2 214.683 281.203 214.683 277.128V269.832C214.683 265.736 215.632 262.739 217.531 260.84C219.451 258.92 222.459 257.981 226.555 258.024H231.803C234.96 258.024 237.392 258.557 239.099 259.624C240.805 260.669 241.851 262.323 242.235 264.584C242.363 265.245 242.235 265.768 241.851 266.152C241.488 266.515 240.955 266.696 240.251 266.696C239.632 266.696 239.173 266.536 238.875 266.216C238.576 265.875 238.331 265.416 238.139 264.84C237.883 263.816 237.264 263.101 236.283 262.696C235.323 262.269 233.829 262.056 231.803 262.056H226.555C223.611 262.013 221.563 262.557 220.411 263.688C219.28 264.797 218.715 266.845 218.715 269.832V277.128C218.715 280.072 219.28 282.12 220.411 283.272C221.563 284.403 223.611 284.968 226.555 284.968H231.803C233.829 284.968 235.323 284.765 236.283 284.36C237.264 283.933 237.883 283.208 238.139 282.184C238.331 281.565 238.576 281.107 238.875 280.808C239.195 280.488 239.664 280.328 240.283 280.328C240.965 280.328 241.488 280.509 241.851 280.872C242.235 281.235 242.363 281.757 242.235 282.44C241.851 284.659 240.805 286.312 239.099 287.4C237.392 288.467 234.96 289 231.803 289H226.555ZM265.758 289C261.726 289 258.771 288.061 256.894 286.184C255.017 284.307 254.078 281.373 254.078 277.384V262.056H250.494C249.15 262.056 248.478 261.384 248.478 260.04C248.478 258.696 249.15 258.024 250.494 258.024H254.078V251.88C254.078 250.536 254.75 249.864 256.094 249.864C257.438 249.864 258.11 250.536 258.11 251.88V258.024H265.918C267.262 258.024 267.934 258.696 267.934 260.04C267.934 261.384 267.262 262.056 265.918 262.056H258.11V277.384C258.11 280.264 258.665 282.248 259.774 283.336C260.883 284.424 262.878 284.968 265.758 284.968C266.462 284.968 266.974 285.139 267.294 285.48C267.635 285.8 267.806 286.301 267.806 286.984C267.806 288.328 267.123 289 265.758 289ZM278.456 252.392C276.792 252.392 275.96 251.549 275.96 249.864V248.264C275.96 246.621 276.792 245.8 278.456 245.8H280.024C281.624 245.8 282.424 246.621 282.424 248.264V249.864C282.424 251.549 281.624 252.392 280.024 252.392H278.456ZM279.224 289C277.88 289 277.208 288.328 277.208 286.984V260.04C277.208 258.696 277.88 258.024 279.224 258.024C280.568 258.024 281.24 258.696 281.24 260.04V286.984C281.24 288.328 280.568 289 279.224 289ZM295.661 289C294.318 289 293.646 288.328 293.646 286.984V260.04C293.646 258.696 294.318 258.024 295.661 258.024C297.006 258.024 297.678 258.696 297.678 260.04V262.408C299.79 259.485 303.342 258.024 308.334 258.024H310.126C314.222 258.024 317.219 258.984 319.118 260.904C321.038 262.803 321.998 265.8 321.998 269.896V286.984C321.998 288.328 321.326 289 319.982 289C318.638 289 317.966 288.328 317.966 286.984V269.896C317.966 266.931 317.39 264.883 316.238 263.752C315.107 262.621 313.07 262.056 310.126 262.056H308.334C305.283 262.056 302.808 262.504 300.91 263.4C299.011 264.296 297.934 265.693 297.678 267.592V286.984C297.678 288.328 297.006 289 295.661 289ZM341.289 301.8C338.75 301.8 336.798 301.277 335.433 300.232C334.068 299.187 333.225 297.576 332.905 295.4C332.82 294.717 332.948 294.184 333.289 293.8C333.652 293.437 334.174 293.256 334.857 293.256C335.497 293.256 335.966 293.416 336.265 293.736C336.564 294.077 336.788 294.579 336.937 295.24C337.129 296.2 337.556 296.861 338.217 297.224C338.878 297.587 339.902 297.768 341.289 297.768H353.193C354.985 297.768 356.18 297.459 356.777 296.84C357.396 296.221 357.705 295.027 357.705 293.256V284.648C356.681 286.077 355.284 287.165 353.513 287.912C351.764 288.637 349.609 289 347.049 289H344.617C340.542 289 337.545 288.04 335.625 286.12C333.705 284.2 332.745 281.224 332.745 277.192V269.896C332.745 265.779 333.694 262.771 335.593 260.872C337.513 258.973 340.521 258.024 344.617 258.024H349.865C351.764 258.024 353.353 258.291 354.633 258.824C355.913 259.336 356.937 260.136 357.705 261.224V260.04C357.705 258.696 358.377 258.024 359.721 258.024C361.065 258.024 361.737 258.696 361.737 260.04V293.256C361.737 296.179 361.044 298.333 359.657 299.72C358.292 301.107 356.137 301.8 353.193 301.8H341.289ZM344.617 284.968H347.049C350.206 284.968 352.766 284.499 354.729 283.56C356.713 282.621 357.705 281.192 357.705 279.272V267.88C357.705 265.704 357.044 264.189 355.721 263.336C354.42 262.483 352.468 262.056 349.865 262.056H344.617C341.673 262.056 339.625 262.611 338.473 263.72C337.342 264.829 336.777 266.888 336.777 269.896V277.192C336.777 280.093 337.342 282.12 338.473 283.272C339.625 284.403 341.673 284.968 344.617 284.968ZM401.742 289C397.667 289 394.67 288.04 392.75 286.12C390.83 284.2 389.87 281.203 389.87 277.128V269.832C389.87 265.736 390.819 262.739 392.718 260.84C394.638 258.92 397.646 257.981 401.742 258.024H406.99C410.147 258.024 412.579 258.557 414.286 259.624C415.993 260.669 417.038 262.323 417.422 264.584C417.55 265.245 417.422 265.768 417.038 266.152C416.675 266.515 416.142 266.696 415.438 266.696C414.819 266.696 414.361 266.536 414.062 266.216C413.763 265.875 413.518 265.416 413.326 264.84C413.07 263.816 412.451 263.101 411.47 262.696C410.51 262.269 409.017 262.056 406.99 262.056H401.742C398.798 262.013 396.75 262.557 395.598 263.688C394.467 264.797 393.902 266.845 393.902 269.832V277.128C393.902 280.072 394.467 282.12 395.598 283.272C396.75 284.403 398.798 284.968 401.742 284.968H406.99C409.017 284.968 410.51 284.765 411.47 284.36C412.451 283.933 413.07 283.208 413.326 282.184C413.518 281.565 413.763 281.107 414.062 280.808C414.382 280.488 414.851 280.328 415.47 280.328C416.153 280.328 416.675 280.509 417.038 280.872C417.422 281.235 417.55 281.757 417.422 282.44C417.038 284.659 415.993 286.312 414.286 287.4C412.579 288.467 410.147 289 406.99 289H401.742ZM438.93 289C434.855 289 431.858 288.04 429.938 286.12C428.018 284.2 427.058 281.224 427.058 277.192V269.896C427.058 265.779 428.018 262.771 429.938 260.872C431.858 258.952 434.855 258.003 438.93 258.024H444.178C448.274 258.024 451.271 258.984 453.17 260.904C455.09 262.803 456.05 265.8 456.05 269.896V277.128C456.05 281.203 455.09 284.2 453.17 286.12C451.271 288.04 448.274 289 444.178 289H438.93ZM431.09 277.192C431.09 280.115 431.655 282.141 432.786 283.272C433.938 284.403 435.986 284.968 438.93 284.968H444.178C447.143 284.968 449.191 284.403 450.322 283.272C451.452 282.12 452.018 280.072 452.018 277.128V269.896C452.018 266.931 451.452 264.883 450.322 263.752C449.191 262.621 447.143 262.056 444.178 262.056H438.93C436.967 262.035 435.41 262.269 434.258 262.76C433.127 263.229 432.316 264.04 431.826 265.192C431.335 266.323 431.09 267.891 431.09 269.896V277.192ZM474.852 301.8C472.313 301.8 470.361 301.277 468.996 300.232C467.63 299.187 466.788 297.576 466.468 295.4C466.382 294.717 466.51 294.184 466.852 293.8C467.214 293.437 467.737 293.256 468.42 293.256C469.06 293.256 469.529 293.416 469.828 293.736C470.126 294.077 470.35 294.579 470.5 295.24C470.692 296.2 471.118 296.861 471.78 297.224C472.441 297.587 473.465 297.768 474.852 297.768H486.756C488.548 297.768 489.742 297.459 490.34 296.84C490.958 296.221 491.268 295.027 491.268 293.256V284.648C490.244 286.077 488.846 287.165 487.076 287.912C485.326 288.637 483.172 289 480.612 289H478.18C474.105 289 471.108 288.04 469.188 286.12C467.268 284.2 466.308 281.224 466.308 277.192V269.896C466.308 265.779 467.257 262.771 469.156 260.872C471.076 258.973 474.084 258.024 478.18 258.024H483.428C485.326 258.024 486.916 258.291 488.196 258.824C489.476 259.336 490.5 260.136 491.268 261.224V260.04C491.268 258.696 491.94 258.024 493.284 258.024C494.628 258.024 495.3 258.696 495.3 260.04V293.256C495.3 296.179 494.606 298.333 493.22 299.72C491.854 301.107 489.7 301.8 486.756 301.8H474.852ZM478.18 284.968H480.612C483.769 284.968 486.329 284.499 488.292 283.56C490.276 282.621 491.268 281.192 491.268 279.272V267.88C491.268 265.704 490.606 264.189 489.284 263.336C487.982 262.483 486.03 262.056 483.428 262.056H478.18C475.236 262.056 473.188 262.611 472.036 263.72C470.905 264.829 470.34 266.888 470.34 269.896V277.192C470.34 280.093 470.905 282.12 472.036 283.272C473.188 284.403 475.236 284.968 478.18 284.968ZM509.099 289C507.755 289 507.083 288.328 507.083 286.984V260.04C507.083 258.696 507.755 258.024 509.099 258.024C510.443 258.024 511.115 258.696 511.115 260.04V262.408C513.227 259.485 516.779 258.024 521.771 258.024H523.563C527.659 258.024 530.656 258.984 532.555 260.904C534.475 262.803 535.435 265.8 535.435 269.896V286.984C535.435 288.328 534.763 289 533.419 289C532.075 289 531.403 288.328 531.403 286.984V269.896C531.403 266.931 530.827 264.883 529.675 263.752C528.544 262.621 526.507 262.056 523.563 262.056H521.771C518.72 262.056 516.246 262.504 514.347 263.4C512.448 264.296 511.371 265.693 511.115 267.592V286.984C511.115 288.328 510.443 289 509.099 289ZM548.519 252.392C546.855 252.392 546.023 251.549 546.023 249.864V248.264C546.023 246.621 546.855 245.8 548.519 245.8H550.087C551.687 245.8 552.487 246.621 552.487 248.264V249.864C552.487 251.549 551.687 252.392 550.087 252.392H548.519ZM549.286 289C547.943 289 547.271 288.328 547.271 286.984V260.04C547.271 258.696 547.943 258.024 549.286 258.024C550.631 258.024 551.303 258.696 551.303 260.04V286.984C551.303 288.328 550.631 289 549.286 289ZM576.508 289C572.476 289 569.521 288.061 567.644 286.184C565.767 284.307 564.828 281.373 564.828 277.384V262.056H561.244C559.9 262.056 559.228 261.384 559.228 260.04C559.228 258.696 559.9 258.024 561.244 258.024H564.828V251.88C564.828 250.536 565.5 249.864 566.844 249.864C568.188 249.864 568.86 250.536 568.86 251.88V258.024H576.668C578.012 258.024 578.684 258.696 578.684 260.04C578.684 261.384 578.012 262.056 576.668 262.056H568.86V277.384C568.86 280.264 569.415 282.248 570.524 283.336C571.633 284.424 573.628 284.968 576.508 284.968C577.212 284.968 577.724 285.139 578.044 285.48C578.385 285.8 578.556 286.301 578.556 286.984C578.556 288.328 577.873 289 576.508 289ZM589.206 252.392C587.542 252.392 586.71 251.549 586.71 249.864V248.264C586.71 246.621 587.542 245.8 589.206 245.8H590.774C592.374 245.8 593.174 246.621 593.174 248.264V249.864C593.174 251.549 592.374 252.392 590.774 252.392H589.206ZM589.974 289C588.63 289 587.958 288.328 587.958 286.984V260.04C587.958 258.696 588.63 258.024 589.974 258.024C591.318 258.024 591.99 258.696 591.99 260.04V286.984C591.99 288.328 591.318 289 589.974 289ZM615.18 289C611.105 289 608.108 288.04 606.188 286.12C604.268 284.2 603.308 281.224 603.308 277.192V269.896C603.308 265.779 604.268 262.771 606.188 260.872C608.108 258.952 611.105 258.003 615.18 258.024H620.428C624.524 258.024 627.521 258.984 629.42 260.904C631.34 262.803 632.3 265.8 632.3 269.896V277.128C632.3 281.203 631.34 284.2 629.42 286.12C627.521 288.04 624.524 289 620.428 289H615.18ZM607.34 277.192C607.34 280.115 607.905 282.141 609.036 283.272C610.188 284.403 612.236 284.968 615.18 284.968H620.428C623.393 284.968 625.441 284.403 626.572 283.272C627.702 282.12 628.268 280.072 628.268 277.128V269.896C628.268 266.931 627.702 264.883 626.572 263.752C625.441 262.621 623.393 262.056 620.428 262.056H615.18C613.217 262.035 611.66 262.269 610.508 262.76C609.377 263.229 608.566 264.04 608.076 265.192C607.585 266.323 607.34 267.891 607.34 269.896V277.192ZM645.661 289C644.318 289 643.646 288.328 643.646 286.984V260.04C643.646 258.696 644.318 258.024 645.661 258.024C647.006 258.024 647.678 258.696 647.678 260.04V262.408C649.79 259.485 653.342 258.024 658.334 258.024H660.126C664.222 258.024 667.219 258.984 669.118 260.904C671.038 262.803 671.998 265.8 671.998 269.896V286.984C671.998 288.328 671.326 289 669.982 289C668.638 289 667.966 288.328 667.966 286.984V269.896C667.966 266.931 667.39 264.883 666.238 263.752C665.107 262.621 663.07 262.056 660.126 262.056H658.334C655.283 262.056 652.808 262.504 650.91 263.4C649.011 264.296 647.934 265.693 647.678 267.592V286.984C647.678 288.328 647.006 289 645.661 289ZM710.583 289C707.191 289 704.684 288.189 703.062 286.568C701.441 284.947 700.631 282.44 700.631 279.048C700.631 275.635 701.441 273.117 703.062 271.496C704.684 269.875 707.191 269.064 710.583 269.064H724.823C724.737 266.44 724.108 264.616 722.935 263.592C721.783 262.568 719.799 262.056 716.983 262.056H713.271C710.753 262.056 708.897 262.301 707.703 262.792C706.529 263.261 705.772 264.083 705.431 265.256C705.217 265.896 704.951 266.365 704.631 266.664C704.332 266.941 703.873 267.08 703.255 267.08C702.593 267.08 702.071 266.899 701.687 266.536C701.324 266.152 701.196 265.64 701.303 265C701.708 262.568 702.892 260.797 704.855 259.688C706.817 258.579 709.623 258.024 713.271 258.024H716.983C721.079 258.024 724.076 258.984 725.975 260.904C727.895 262.803 728.854 265.8 728.854 269.896V286.984C728.854 288.328 728.183 289 726.839 289C725.495 289 724.823 288.328 724.823 286.984V284.36C722.711 287.453 719.159 289 714.167 289H710.583ZM710.583 284.968H714.167C716.087 284.968 717.793 284.765 719.287 284.36C720.801 283.955 722.039 283.283 722.999 282.344C723.98 281.405 724.588 280.136 724.823 278.536V273.096H710.583C708.3 273.096 706.743 273.512 705.911 274.344C705.079 275.176 704.663 276.744 704.663 279.048C704.663 281.331 705.079 282.888 705.911 283.72C706.743 284.552 708.3 284.968 710.583 284.968ZM742.661 289C741.318 289 740.646 288.328 740.646 286.984V260.04C740.646 258.696 741.318 258.024 742.661 258.024C744.006 258.024 744.678 258.696 744.678 260.04V262.408C746.79 259.485 750.342 258.024 755.334 258.024H757.126C761.222 258.024 764.219 258.984 766.118 260.904C768.038 262.803 768.998 265.8 768.998 269.896V286.984C768.998 288.328 768.326 289 766.982 289C765.638 289 764.966 288.328 764.966 286.984V269.896C764.966 266.931 764.39 264.883 763.238 263.752C762.107 262.621 760.07 262.056 757.126 262.056H755.334C752.283 262.056 749.808 262.504 747.91 263.4C746.011 264.296 744.934 265.693 744.678 267.592V286.984C744.678 288.328 744.006 289 742.661 289ZM791.617 289C787.542 289 784.545 288.04 782.625 286.12C780.705 284.2 779.745 281.203 779.745 277.128V269.896C779.745 265.8 780.705 262.803 782.625 260.904C784.545 258.984 787.542 258.024 791.617 258.024H804.705V246.408C804.705 245.064 805.377 244.392 806.721 244.392C808.065 244.392 808.737 245.064 808.737 246.408V286.984C808.737 288.328 808.065 289 806.721 289C805.377 289 804.705 288.328 804.705 286.984V285C803.766 286.301 802.433 287.293 800.705 287.976C798.977 288.659 796.758 289 794.049 289H791.617ZM791.617 284.968H794.049C797.206 284.968 799.766 284.499 801.729 283.56C803.713 282.6 804.705 281.171 804.705 279.272V262.056H791.617C788.673 262.056 786.625 262.632 785.473 263.784C784.342 264.915 783.777 266.952 783.777 269.896V277.128C783.777 280.072 784.342 282.12 785.473 283.272C786.625 284.403 788.673 284.968 791.617 284.968ZM839.974 289C838.63 289 837.958 288.328 837.958 286.984V260.04C837.958 258.696 838.63 258.024 839.974 258.024C841.318 258.024 841.99 258.696 841.99 260.04V264.136C843.163 262.152 844.774 260.637 846.822 259.592C848.87 258.547 851.27 258.024 854.022 258.024C855.366 258.024 856.038 258.696 856.038 260.04C856.038 261.384 855.366 262.056 854.022 262.056C850.267 262.056 847.366 262.856 845.318 264.456C843.291 266.056 842.182 268.285 841.99 271.144V286.984C841.99 288.328 841.318 289 839.974 289ZM872.68 289C868.605 289 865.608 288.04 863.688 286.12C861.768 284.2 860.808 281.224 860.808 277.192V269.896C860.808 265.779 861.768 262.771 863.688 260.872C865.608 258.952 868.605 258.003 872.68 258.024H877.928C882.024 258.024 885.021 258.984 886.92 260.904C888.84 262.803 889.8 265.8 889.8 269.896V277.128C889.8 281.203 888.84 284.2 886.92 286.12C885.021 288.04 882.024 289 877.928 289H872.68ZM864.84 277.192C864.84 280.115 865.405 282.141 866.536 283.272C867.688 284.403 869.736 284.968 872.68 284.968H877.928C880.893 284.968 882.941 284.403 884.072 283.272C885.202 282.12 885.768 280.072 885.768 277.128V269.896C885.768 266.931 885.202 264.883 884.072 263.752C882.941 262.621 880.893 262.056 877.928 262.056H872.68C870.717 262.035 869.16 262.269 868.008 262.76C866.877 263.229 866.066 264.04 865.576 265.192C865.085 266.323 864.84 267.891 864.84 269.896V277.192ZM903.161 289C901.818 289 901.146 288.328 901.146 286.984V246.408C901.146 245.064 901.818 244.392 903.161 244.392C904.506 244.392 905.178 245.064 905.178 246.408V262.12C906.18 260.755 907.556 259.731 909.306 259.048C911.055 258.344 913.231 257.992 915.834 257.992H918.266C922.362 257.992 925.359 258.952 927.257 260.872C929.178 262.771 930.138 265.768 930.138 269.864V277.128C930.138 281.203 929.178 284.2 927.257 286.12C925.359 288.04 922.362 289 918.266 289H915.834C913.231 289 911.055 288.648 909.306 287.944C907.556 287.24 906.18 286.216 905.178 284.872V286.984C905.178 288.328 904.506 289 903.161 289ZM915.834 284.968H918.266C921.231 284.968 923.279 284.403 924.41 283.272C925.54 282.12 926.106 280.072 926.106 277.128V269.864C926.106 266.899 925.53 264.851 924.378 263.72C923.247 262.589 921.21 262.024 918.266 262.024H915.834C912.698 262.024 910.138 262.493 908.154 263.432C906.17 264.349 905.178 265.779 905.178 267.72V279.368C905.199 281.245 906.202 282.653 908.186 283.592C910.17 284.509 912.719 284.968 915.834 284.968ZM952.242 289C948.167 289 945.17 288.04 943.25 286.12C941.33 284.2 940.37 281.224 940.37 277.192V269.896C940.37 265.779 941.33 262.771 943.25 260.872C945.17 258.952 948.167 258.003 952.242 258.024H957.49C961.586 258.024 964.583 258.984 966.482 260.904C968.402 262.803 969.362 265.8 969.362 269.896V277.128C969.362 281.203 968.402 284.2 966.482 286.12C964.583 288.04 961.586 289 957.49 289H952.242ZM944.402 277.192C944.402 280.115 944.967 282.141 946.098 283.272C947.25 284.403 949.298 284.968 952.242 284.968H957.49C960.455 284.968 962.503 284.403 963.634 283.272C964.765 282.12 965.33 280.072 965.33 277.128V269.896C965.33 266.931 964.765 264.883 963.634 263.752C962.503 262.621 960.455 262.056 957.49 262.056H952.242C950.279 262.035 948.722 262.269 947.57 262.76C946.439 263.229 945.629 264.04 945.138 265.192C944.647 266.323 944.402 267.891 944.402 269.896V277.192ZM992.258 289C988.226 289 985.271 288.061 983.394 286.184C981.517 284.307 980.578 281.373 980.578 277.384V262.056H976.994C975.65 262.056 974.978 261.384 974.978 260.04C974.978 258.696 975.65 258.024 976.994 258.024H980.578V251.88C980.578 250.536 981.25 249.864 982.594 249.864C983.938 249.864 984.61 250.536 984.61 251.88V258.024H992.418C993.762 258.024 994.434 258.696 994.434 260.04C994.434 261.384 993.762 262.056 992.418 262.056H984.61V277.384C984.61 280.264 985.165 282.248 986.274 283.336C987.383 284.424 989.378 284.968 992.258 284.968C992.962 284.968 993.474 285.139 993.794 285.48C994.135 285.8 994.306 286.301 994.306 286.984C994.306 288.328 993.623 289 992.258 289ZM1010.65 288.968C1008.01 288.968 1005.96 288.413 1004.51 287.304C1003.06 286.173 1002.16 284.467 1001.82 282.184C1001.73 281.501 1001.87 280.979 1002.24 280.616C1002.62 280.232 1003.14 280.04 1003.8 280.04C1004.47 280.04 1004.95 280.211 1005.24 280.552C1005.56 280.872 1005.79 281.363 1005.92 282.024C1006.13 283.112 1006.6 283.869 1007.32 284.296C1008.05 284.723 1009.16 284.936 1010.65 284.936H1021.15C1023.05 284.936 1024.34 284.595 1025.02 283.912C1025.7 283.229 1026.04 281.939 1026.04 280.04C1026.04 278.141 1025.7 276.851 1025.02 276.168C1024.34 275.485 1023.05 275.144 1021.15 275.144H1010.81C1007.93 275.144 1005.78 274.44 1004.35 273.032C1002.94 271.624 1002.24 269.48 1002.24 266.6C1002.24 263.656 1002.94 261.491 1004.35 260.104C1005.76 258.696 1007.91 257.992 1010.81 257.992H1020.83C1025.73 257.992 1028.51 260.115 1029.15 264.36C1029.28 265.021 1029.15 265.544 1028.76 265.928C1028.4 266.291 1027.88 266.472 1027.2 266.472C1026.56 266.472 1026.08 266.312 1025.76 265.992C1025.46 265.651 1025.23 265.171 1025.08 264.552C1024.89 263.592 1024.48 262.931 1023.84 262.568C1023.2 262.205 1022.19 262.024 1020.83 262.024H1010.81C1009.04 262.024 1007.84 262.333 1007.2 262.952C1006.58 263.571 1006.27 264.787 1006.27 266.6C1006.27 268.328 1006.59 269.512 1007.23 270.152C1007.87 270.792 1009.06 271.112 1010.81 271.112H1021.15C1024.18 271.112 1026.42 271.848 1027.87 273.32C1029.34 274.771 1030.08 277.011 1030.08 280.04C1030.08 283.069 1029.34 285.32 1027.87 286.792C1026.42 288.243 1024.18 288.968 1021.15 288.968H1010.65ZM1041.38 289C1040 289 1039.3 288.296 1039.3 286.888V285.544C1039.3 284.179 1040 283.496 1041.38 283.496H1042.7C1044.04 283.496 1044.71 284.179 1044.71 285.544V286.888C1044.71 288.296 1044.04 289 1042.7 289H1041.38Z" fill="#777777"/>
</svg>
