<svg width="1038" height="257" viewBox="0 0 1038 257" fill="none" xmlns="http://www.w3.org/2000/svg">
<path d="M958.603 147.366C946.789 147.366 937.707 144.908 931.357 139.991C925.075 135.006 921.319 127.29 920.09 116.842C919.885 114.316 920.431 112.404 921.729 111.106C923.094 109.741 925.006 109.058 927.465 109.058C929.923 109.058 931.732 109.672 932.893 110.902C934.122 112.131 934.908 113.974 935.249 116.433C936.069 122.442 938.22 126.607 941.702 128.929C945.253 131.182 950.886 132.309 958.603 132.309H988.102C997.252 132.309 1003.5 130.636 1006.85 127.29C1010.26 123.876 1011.97 117.696 1011.97 108.751C1011.97 99.6686 1010.23 93.4205 1006.74 90.0063C1003.33 86.5237 997.116 84.7824 988.102 84.7824H961.88C949.248 84.7824 939.892 81.7437 933.815 75.6664C927.806 69.589 924.801 60.268 924.801 47.7036C924.801 35.1391 927.772 25.8523 933.713 19.8432C939.722 13.8341 949.043 10.8295 961.675 10.8295H987.487C998.55 10.8295 1007.05 13.1854 1012.99 17.8971C1019 22.5405 1022.62 29.7445 1023.85 39.5093C1024.12 42.0359 1023.58 43.982 1022.21 45.3477C1020.91 46.6451 1019 47.2939 1016.47 47.2939C1014.08 47.2939 1012.27 46.6793 1011.05 45.4501C1009.82 44.1527 1009.07 42.309 1008.79 39.919C1007.97 34.6611 1005.92 31.0078 1002.65 28.9593C999.437 26.9107 994.384 25.8864 987.487 25.8864H961.675C953.208 25.8864 947.438 27.457 944.365 30.5981C941.361 33.6709 939.858 39.3728 939.858 47.7036C939.858 56.0344 941.395 61.8045 944.468 65.0139C947.609 68.155 953.413 69.7255 961.88 69.7255H988.102C1001.35 69.7255 1011.15 72.9008 1017.5 79.2513C1023.85 85.6019 1027.02 95.4349 1027.02 108.751C1027.02 121.998 1023.85 131.763 1017.5 138.045C1011.15 144.259 1001.35 147.366 988.102 147.366H958.603Z" fill="white"/>
<path d="M817.81 147.468C802.446 147.468 791.111 143.849 783.804 136.611C776.566 129.305 772.947 117.969 772.947 102.605V55.4882C772.947 39.9875 776.566 28.6521 783.804 21.4822C791.111 14.2439 802.412 10.6931 817.708 10.8297H842.393C857.757 10.8297 869.058 14.4488 876.297 21.687C883.535 28.9253 887.154 40.2606 887.154 55.6931V102.605C887.154 117.969 883.535 129.305 876.297 136.611C869.058 143.849 857.757 147.468 842.393 147.468H817.81ZM817.81 132.412H842.393C849.836 132.412 855.709 131.49 860.011 129.646C864.381 127.802 867.488 124.729 869.331 120.427C871.175 116.057 872.097 110.116 872.097 102.605V55.6931C872.097 48.25 871.175 42.3774 869.331 38.0755C867.488 33.7052 864.381 30.5982 860.011 28.7545C855.709 26.8426 849.836 25.8866 842.393 25.8866H817.708C810.265 25.8183 804.392 26.706 800.09 28.5497C795.788 30.3251 792.681 33.3979 790.769 37.7682C788.926 42.0702 788.004 47.9768 788.004 55.4882V102.605C788.004 110.116 788.926 116.057 790.769 120.427C792.613 124.729 795.686 127.802 799.988 129.646C804.358 131.49 810.299 132.412 817.81 132.412Z" fill="white"/>
<path d="M740.63 147.776C738.649 149.073 736.772 149.483 734.996 149.005C733.221 148.527 731.684 147.298 730.387 145.317L698.02 92.2597H666.369V139.889C666.369 144.942 663.877 147.468 658.892 147.468C653.839 147.468 651.313 144.942 651.313 139.889V18.4092C651.313 13.3561 653.839 10.8295 658.892 10.8295H706.828C719.052 10.8295 728.372 14.0731 734.791 20.5602C741.21 26.979 744.419 36.2999 744.419 48.523V54.6687C744.419 65.3212 741.927 73.7885 736.942 80.0708C732.026 86.353 724.856 90.2111 715.432 91.6451L743.395 137.533C745.785 141.766 744.863 145.181 740.63 147.776ZM666.369 77.2028H706.828C714.886 77.2028 720.656 75.4615 724.139 71.979C727.621 68.4964 729.363 62.7263 729.363 54.6687V48.523C729.363 40.4653 727.621 34.6952 724.139 31.2127C720.656 27.6618 714.886 25.8864 706.828 25.8864H666.369V77.2028Z" fill="white"/>
<path d="M555.121 162.423C550.068 162.423 547.542 159.93 547.542 154.945C547.542 149.892 550.068 147.366 555.121 147.366H606.95C611.935 147.366 614.427 149.892 614.427 154.945C614.427 159.93 611.935 162.423 606.95 162.423H555.121Z" fill="white"/>
<path d="M521.369 147.776C519.389 149.073 517.511 149.483 515.736 149.005C513.96 148.527 512.424 147.298 511.127 145.317L478.759 92.2597H447.109V139.889C447.109 144.942 444.617 147.468 439.632 147.468C434.579 147.468 432.052 144.942 432.052 139.889V18.4092C432.052 13.3561 434.579 10.8295 439.632 10.8295H487.568C499.791 10.8295 509.112 14.0731 515.531 20.5602C521.95 26.979 525.159 36.2999 525.159 48.523V54.6687C525.159 65.3212 522.667 73.7885 517.682 80.0708C512.766 86.353 505.596 90.2111 496.172 91.6451L524.135 137.533C526.525 141.766 525.603 145.181 521.369 147.776ZM447.109 77.2028H487.568C495.626 77.2028 501.396 75.4615 504.879 71.979C508.361 68.4964 510.102 62.7263 510.102 54.6687V48.523C510.102 40.4653 508.361 34.6952 504.879 31.2127C501.396 27.6618 495.626 25.8864 487.568 25.8864H447.109V77.2028Z" fill="white"/>
<path d="M291.232 146.751C286.452 144.839 285.018 141.527 286.93 136.816L336.403 16.7703C338.11 12.8098 340.91 10.8295 344.802 10.8295H345.314C349.206 11.0344 351.869 13.0147 353.303 16.7703L403.288 136.816C405.2 141.527 403.834 144.839 399.191 146.751C394.479 148.595 391.202 147.229 389.358 142.654L377.374 113.974H312.537L300.963 142.654C299.051 147.298 295.807 148.663 291.232 146.751ZM318.478 98.9175H371.228L344.495 34.6952L318.478 98.9175Z" fill="white"/>
<path d="M194.641 147.468C179.277 147.468 167.941 143.849 160.635 136.611C153.396 129.305 149.777 117.969 149.777 102.605V55.4882C149.777 39.9875 153.396 28.6521 160.635 21.4822C167.941 14.2439 179.242 10.6931 194.538 10.8297H219.223C234.588 10.8297 245.889 14.4488 253.127 21.687C260.365 28.9253 263.984 40.2606 263.984 55.6931V102.605C263.984 117.969 260.365 129.305 253.127 136.611C245.889 143.849 234.588 147.468 219.223 147.468H194.641ZM194.641 132.412H219.223C226.667 132.412 232.539 131.49 236.841 129.646C241.211 127.802 244.318 124.729 246.162 120.427C248.006 116.057 248.928 110.116 248.928 102.605V55.6931C248.928 48.25 248.006 42.3774 246.162 38.0755C244.318 33.7052 241.211 30.5982 236.841 28.7545C232.539 26.8426 226.667 25.8866 219.223 25.8866H194.538C187.095 25.8183 181.223 26.706 176.921 28.5497C172.619 30.3251 169.512 33.3979 167.6 37.7682C165.756 42.0702 164.834 47.9768 164.834 55.4882V102.605C164.834 110.116 165.756 116.057 167.6 120.427C169.444 124.729 172.516 127.802 176.818 129.646C181.189 131.49 187.129 132.412 194.641 132.412Z" fill="white"/>
<path d="M48.5548 147.366C36.7414 147.366 27.6595 144.908 21.309 139.991C15.0267 135.006 11.271 127.29 10.0419 116.842C9.83705 114.316 10.3833 112.404 11.6807 111.106C13.0465 109.741 14.9584 109.058 17.4167 109.058C19.875 109.058 21.6845 109.672 22.8454 110.902C24.0745 112.131 24.8598 113.974 25.2012 116.433C26.0206 122.442 28.1716 126.607 31.6542 128.929C35.205 131.182 40.8385 132.309 48.5548 132.309H78.054C87.2042 132.309 93.4523 130.636 96.7983 127.29C100.213 123.876 101.92 117.696 101.92 108.751C101.92 99.6687 100.178 93.4206 96.6959 90.0063C93.2816 86.5238 87.0677 84.7825 78.054 84.7825H51.8325C39.1997 84.7825 29.8446 81.7438 23.7672 75.6664C17.7581 69.589 14.7536 60.2681 14.7536 47.7036C14.7536 35.1391 17.724 25.8523 23.6648 19.8432C29.6739 13.8341 38.9948 10.8296 51.6276 10.8296H77.4394C88.5016 10.8296 97.0032 13.1854 102.944 17.8971C108.953 22.5405 112.572 29.7446 113.801 39.5094C114.074 42.0359 113.528 43.9821 112.162 45.3478C110.865 46.6452 108.953 47.2939 106.427 47.2939C104.037 47.2939 102.227 46.6793 100.998 45.4502C99.7687 44.1528 99.0176 42.3091 98.7444 39.9191C97.925 34.6611 95.8765 31.0079 92.5988 28.9593C89.3893 26.9108 84.3362 25.8865 77.4394 25.8865H51.6276C43.1602 25.8865 37.3901 27.457 34.3173 30.5982C31.3128 33.671 29.8105 39.3728 29.8105 47.7036C29.8105 56.0344 31.3469 61.8045 34.4197 65.0139C37.5609 68.155 43.3651 69.7256 51.8325 69.7256H78.054C91.3013 69.7256 101.1 72.9009 107.451 79.2514C113.801 85.6019 116.977 95.435 116.977 108.751C116.977 121.998 113.801 131.763 107.451 138.045C101.1 144.259 91.3013 147.366 78.054 147.366H48.5548Z" fill="white"/>
<path d="M1023.5 233.852C1022.27 233.852 1021.65 233.222 1021.65 231.964V230.748C1021.65 229.532 1022.27 228.924 1023.5 228.924H1024.69C1025.9 228.924 1026.51 229.532 1026.51 230.748V231.964C1026.51 233.222 1025.9 233.852 1024.69 233.852H1023.5Z" fill="white"/>
<path d="M993.8 233.788C991.176 233.788 989.171 233.233 987.784 232.124C986.398 230.993 985.566 229.276 985.288 226.972C985.224 226.417 985.342 225.99 985.64 225.692C985.939 225.372 986.376 225.212 986.952 225.212C987.486 225.212 987.88 225.35 988.136 225.628C988.414 225.905 988.595 226.321 988.68 226.876C988.872 228.198 989.352 229.126 990.12 229.66C990.91 230.172 992.136 230.428 993.8 230.428H1004.3C1006.28 230.428 1007.65 230.054 1008.39 229.308C1009.14 228.561 1009.51 227.196 1009.51 225.212C1009.51 223.206 1009.14 221.83 1008.39 221.084C1007.65 220.337 1006.28 219.964 1004.3 219.964H993.929C991.155 219.964 989.086 219.302 987.72 217.98C986.376 216.636 985.705 214.577 985.705 211.804C985.705 208.966 986.376 206.886 987.72 205.564C989.064 204.22 991.134 203.548 993.929 203.548H1003.98C1008.8 203.548 1011.48 205.681 1012.01 209.948C1012.09 210.502 1011.98 210.94 1011.66 211.26C1011.36 211.558 1010.93 211.708 1010.38 211.708C1009.84 211.708 1009.44 211.569 1009.16 211.292C1008.9 211.014 1008.72 210.609 1008.62 210.076C1008.47 208.881 1008.03 208.06 1007.3 207.612C1006.6 207.142 1005.49 206.908 1003.98 206.908H993.929C992.073 206.908 990.792 207.249 990.088 207.932C989.406 208.614 989.064 209.905 989.064 211.804C989.064 213.617 989.416 214.876 990.12 215.58C990.824 216.262 992.094 216.604 993.929 216.604H1004.3C1007.24 216.604 1009.41 217.308 1010.79 218.716C1012.18 220.102 1012.87 222.268 1012.87 225.212C1012.87 228.134 1012.18 230.3 1010.79 231.708C1009.41 233.094 1007.24 233.788 1004.3 233.788H993.8Z" fill="white"/>
<path d="M976.591 233.852C972.666 233.852 969.796 232.945 967.983 231.132C966.17 229.318 965.263 226.46 965.263 222.556V206.972H961.455C960.324 206.972 959.759 206.406 959.759 205.276C959.759 204.166 960.324 203.612 961.455 203.612H965.263V196.732C965.263 195.601 965.818 195.036 966.927 195.036C968.058 195.036 968.623 195.601 968.623 196.732V203.612H976.655C977.764 203.612 978.319 204.166 978.319 205.276C978.319 206.406 977.764 206.972 976.655 206.972H968.623V222.556C968.623 225.542 969.199 227.612 970.351 228.764C971.524 229.916 973.604 230.492 976.591 230.492C977.21 230.492 977.647 230.63 977.903 230.908C978.18 231.185 978.319 231.601 978.319 232.156C978.319 233.286 977.743 233.852 976.591 233.852Z" fill="white"/>
<path d="M937.615 233.852C933.625 233.852 930.702 232.934 928.846 231.1C926.99 229.244 926.062 226.332 926.062 222.364V215.132C926.062 211.1 926.99 208.166 928.846 206.332C930.702 204.476 933.625 203.569 937.615 203.612H942.862C946.852 203.612 949.764 204.54 951.599 206.396C953.455 208.23 954.383 211.142 954.383 215.132V222.3C954.383 226.289 953.455 229.212 951.599 231.068C949.764 232.924 946.852 233.852 942.862 233.852H937.615ZM929.422 222.364C929.422 225.372 930.02 227.484 931.214 228.7C932.43 229.894 934.564 230.492 937.615 230.492H942.862C945.913 230.492 948.036 229.894 949.231 228.7C950.425 227.484 951.023 225.35 951.023 222.3V215.132C951.023 212.081 950.425 209.958 949.231 208.764C948.036 207.569 945.913 206.972 942.862 206.972H937.615C935.567 206.95 933.945 207.196 932.75 207.708C931.556 208.22 930.702 209.073 930.19 210.268C929.678 211.462 929.422 213.084 929.422 215.132V222.364Z" fill="white"/>
<path d="M889.185 233.852C888.054 233.852 887.489 233.286 887.489 232.156V191.132C887.489 190.022 888.054 189.468 889.185 189.468C890.294 189.468 890.849 190.022 890.849 191.132V208.06C891.809 206.588 893.174 205.468 894.945 204.7C896.737 203.932 899.041 203.548 901.857 203.548H904.289C908.278 203.548 911.19 204.476 913.025 206.332C914.881 208.188 915.809 211.11 915.809 215.1V222.3C915.809 226.289 914.881 229.212 913.025 231.068C911.19 232.924 908.278 233.852 904.289 233.852H901.857C899.041 233.852 896.737 233.478 894.945 232.732C893.174 231.964 891.809 230.833 890.849 229.34V232.156C890.849 233.286 890.294 233.852 889.185 233.852ZM901.857 230.492H904.289C907.34 230.492 909.462 229.894 910.657 228.7C911.852 227.484 912.449 225.35 912.449 222.3V215.1C912.449 212.049 911.841 209.926 910.625 208.732C909.43 207.516 907.318 206.908 904.289 206.908H901.857C898.529 206.908 895.862 207.43 893.857 208.476C891.852 209.521 890.849 211.11 890.849 213.244V224.284C890.892 226.353 891.916 227.91 893.921 228.956C895.926 229.98 898.572 230.492 901.857 230.492Z" fill="white"/>
<path d="M859.615 233.852C855.625 233.852 852.702 232.934 850.846 231.1C848.99 229.244 848.062 226.332 848.062 222.364V215.132C848.062 211.1 848.99 208.166 850.846 206.332C852.702 204.476 855.625 203.569 859.615 203.612H864.862C868.852 203.612 871.764 204.54 873.599 206.396C875.455 208.23 876.383 211.142 876.383 215.132V222.3C876.383 226.289 875.455 229.212 873.599 231.068C871.764 232.924 868.852 233.852 864.862 233.852H859.615ZM851.422 222.364C851.422 225.372 852.02 227.484 853.214 228.7C854.43 229.894 856.564 230.492 859.615 230.492H864.862C867.913 230.492 870.036 229.894 871.231 228.7C872.425 227.484 873.023 225.35 873.023 222.3V215.132C873.023 212.081 872.425 209.958 871.231 208.764C870.036 207.569 867.913 206.972 864.862 206.972H859.615C857.567 206.95 855.945 207.196 854.75 207.708C853.556 208.22 852.702 209.073 852.19 210.268C851.678 211.462 851.422 213.084 851.422 215.132V222.364Z" fill="white"/>
<path d="M838.893 233.916C838.424 234.193 837.997 234.289 837.613 234.204C837.229 234.118 836.888 233.852 836.589 233.404L826.093 216.7H814.349V232.156C814.349 233.286 813.794 233.852 812.685 233.852C811.554 233.852 810.989 233.286 810.989 232.156V194.3C810.989 193.169 811.554 192.604 812.685 192.604H827.661C831.309 192.604 834.061 193.542 835.917 195.42C837.794 197.297 838.733 200.06 838.733 203.708V205.628C838.733 208.849 837.997 211.377 836.525 213.212C835.053 215.046 832.877 216.166 829.997 216.572L839.437 231.612C840.034 232.593 839.853 233.361 838.893 233.916ZM814.349 213.34H827.661C830.349 213.34 832.301 212.732 833.517 211.516C834.754 210.278 835.373 208.316 835.373 205.628V203.708C835.373 200.998 834.754 199.036 833.517 197.82C832.301 196.582 830.349 195.964 827.661 195.964H814.349V213.34Z" fill="white"/>
<path d="M766.74 233.852C762.75 233.852 759.827 232.924 757.971 231.068C756.115 229.212 755.188 226.289 755.188 222.3V215.132C755.188 211.142 756.115 208.23 757.971 206.396C759.827 204.54 762.75 203.612 766.74 203.612H780.148V191.132C780.148 190.022 780.713 189.468 781.844 189.468C782.953 189.468 783.508 190.022 783.508 191.132V232.156C783.508 233.286 782.953 233.852 781.844 233.852C780.713 233.852 780.148 233.286 780.148 232.156V229.404C779.23 230.876 777.886 231.985 776.115 232.732C774.345 233.478 772.03 233.852 769.172 233.852H766.74ZM766.74 230.492H769.172C772.5 230.492 775.156 229.969 777.14 228.924C779.145 227.857 780.148 226.268 780.148 224.156V206.972H766.74C763.689 206.972 761.555 207.58 760.339 208.796C759.145 209.99 758.547 212.102 758.547 215.132V222.3C758.547 225.35 759.145 227.484 760.339 228.7C761.555 229.894 763.689 230.492 766.74 230.492Z" fill="white"/>
<path d="M718.685 233.852C717.554 233.852 716.989 233.286 716.989 232.156V205.276C716.989 204.166 717.554 203.612 718.685 203.612C719.794 203.612 720.349 204.166 720.349 205.276V208.348C722.376 205.19 726.045 203.612 731.357 203.612H733.149C737.138 203.612 740.05 204.54 741.885 206.396C743.741 208.23 744.669 211.142 744.669 215.132V232.156C744.669 233.286 744.114 233.852 743.005 233.852C741.874 233.852 741.309 233.286 741.309 232.156V215.132C741.309 212.081 740.701 209.958 739.485 208.764C738.29 207.569 736.178 206.972 733.149 206.972H731.357C728.05 206.972 725.448 207.494 723.549 208.54C721.65 209.585 720.584 211.217 720.349 213.436V232.156C720.349 233.286 719.794 233.852 718.685 233.852Z" fill="white"/>
<path d="M687.669 233.852C684.341 233.852 681.898 233.084 680.341 231.548C678.805 229.99 678.036 227.548 678.036 224.22C678.036 220.892 678.815 218.449 680.372 216.892C681.93 215.334 684.362 214.556 687.669 214.556H702.229C702.186 211.74 701.546 209.777 700.309 208.668C699.093 207.537 697.012 206.972 694.068 206.972H690.357C687.647 206.972 685.663 207.26 684.404 207.836C683.146 208.412 682.367 209.393 682.068 210.78C681.919 211.313 681.717 211.708 681.461 211.964C681.226 212.198 680.842 212.316 680.309 212.316C679.754 212.316 679.317 212.166 678.997 211.868C678.698 211.548 678.591 211.121 678.677 210.588C678.954 208.156 680.053 206.385 681.973 205.276C683.914 204.166 686.709 203.612 690.357 203.612H694.068C698.058 203.612 700.97 204.54 702.805 206.396C704.661 208.23 705.589 211.142 705.589 215.132V232.156C705.589 233.286 705.034 233.852 703.924 233.852C702.794 233.852 702.229 233.286 702.229 232.156V228.988C700.181 232.23 696.522 233.852 691.253 233.852H687.669ZM687.669 230.492H691.253C693.322 230.492 695.135 230.268 696.693 229.82C698.271 229.35 699.54 228.604 700.5 227.58C701.46 226.556 702.037 225.19 702.229 223.484V217.916H687.669C685.301 217.916 683.658 218.374 682.74 219.292C681.844 220.188 681.396 221.83 681.396 224.22C681.396 226.588 681.844 228.23 682.74 229.148C683.658 230.044 685.301 230.492 687.669 230.492Z" fill="white"/>
<path d="M625.247 233.852C624.117 233.852 623.552 233.286 623.552 232.156V205.276C623.552 204.166 624.117 203.612 625.247 203.612C626.357 203.612 626.911 204.166 626.911 205.276V208.348C628.938 205.19 632.607 203.612 637.919 203.612H639.711C643.701 203.612 646.613 204.54 648.448 206.396C650.304 208.23 651.232 211.142 651.232 215.132V232.156C651.232 233.286 650.677 233.852 649.568 233.852C648.437 233.852 647.872 233.286 647.872 232.156V215.132C647.872 212.081 647.263 209.958 646.047 208.764C644.853 207.569 642.741 206.972 639.711 206.972H637.919C634.613 206.972 632.01 207.494 630.112 208.54C628.213 209.585 627.146 211.217 626.911 213.436V232.156C626.911 233.286 626.357 233.852 625.247 233.852Z" fill="white"/>
<path d="M595.677 233.852C591.688 233.852 588.765 232.934 586.909 231.1C585.053 229.244 584.125 226.332 584.125 222.364V215.132C584.125 211.1 585.053 208.166 586.909 206.332C588.765 204.476 591.688 203.569 595.677 203.612H600.925C604.914 203.612 607.826 204.54 609.661 206.396C611.517 208.23 612.445 211.142 612.445 215.132V222.3C612.445 226.289 611.517 229.212 609.661 231.068C607.826 232.924 604.914 233.852 600.925 233.852H595.677ZM587.485 222.364C587.485 225.372 588.082 227.484 589.277 228.7C590.493 229.894 592.626 230.492 595.677 230.492H600.925C603.976 230.492 606.098 229.894 607.293 228.7C608.488 227.484 609.085 225.35 609.085 222.3V215.132C609.085 212.081 608.488 209.958 607.293 208.764C606.098 207.569 603.976 206.972 600.925 206.972H595.677C593.629 206.95 592.008 207.196 590.813 207.708C589.618 208.22 588.765 209.073 588.253 210.268C587.741 211.462 587.485 213.084 587.485 215.132V222.364Z" fill="white"/>
<path d="M570.636 197.788C569.164 197.788 568.429 197.03 568.429 195.516V194.076C568.429 192.604 569.164 191.868 570.636 191.868H572.076C573.506 191.868 574.221 192.604 574.221 194.076V195.516C574.221 197.03 573.506 197.788 572.076 197.788H570.636ZM571.372 233.852C570.242 233.852 569.677 233.286 569.677 232.156V205.276C569.677 204.166 570.242 203.612 571.372 203.612C572.482 203.612 573.036 204.166 573.036 205.276V232.156C573.036 233.286 572.482 233.852 571.372 233.852Z" fill="white"/>
<path d="M559.091 233.852C555.166 233.852 552.296 232.945 550.483 231.132C548.67 229.318 547.763 226.46 547.763 222.556V206.972H543.955C542.824 206.972 542.259 206.406 542.259 205.276C542.259 204.166 542.824 203.612 543.955 203.612H547.763V196.732C547.763 195.601 548.318 195.036 549.427 195.036C550.558 195.036 551.123 195.601 551.123 196.732V203.612H559.155C560.264 203.612 560.819 204.166 560.819 205.276C560.819 206.406 560.264 206.972 559.155 206.972H551.123V222.556C551.123 225.542 551.699 227.612 552.851 228.764C554.024 229.916 556.104 230.492 559.091 230.492C559.71 230.492 560.147 230.63 560.403 230.908C560.68 231.185 560.819 231.601 560.819 232.156C560.819 233.286 560.243 233.852 559.091 233.852Z" fill="white"/>
<path d="M532.386 197.788C530.914 197.788 530.179 197.03 530.179 195.516V194.076C530.179 192.604 530.914 191.868 532.386 191.868H533.826C535.256 191.868 535.971 192.604 535.971 194.076V195.516C535.971 197.03 535.256 197.788 533.826 197.788H532.386ZM533.122 233.852C531.992 233.852 531.427 233.286 531.427 232.156V205.276C531.427 204.166 531.992 203.612 533.122 203.612C534.232 203.612 534.786 204.166 534.786 205.276V232.156C534.786 233.286 534.232 233.852 533.122 233.852Z" fill="white"/>
<path d="M494.06 233.852C492.929 233.852 492.364 233.286 492.364 232.156V205.276C492.364 204.166 492.929 203.612 494.06 203.612C495.169 203.612 495.724 204.166 495.724 205.276V208.348C497.751 205.19 501.42 203.612 506.732 203.612H508.524C512.513 203.612 515.425 204.54 517.26 206.396C519.116 208.23 520.044 211.142 520.044 215.132V232.156C520.044 233.286 519.489 233.852 518.38 233.852C517.249 233.852 516.684 233.286 516.684 232.156V215.132C516.684 212.081 516.076 209.958 514.86 208.764C513.665 207.569 511.553 206.972 508.524 206.972H506.732C503.425 206.972 500.823 207.494 498.924 208.54C497.025 209.585 495.959 211.217 495.724 213.436V232.156C495.724 233.286 495.169 233.852 494.06 233.852Z" fill="white"/>
<path d="M460.849 246.652C458.332 246.652 456.412 246.129 455.089 245.084C453.766 244.06 452.988 242.438 452.753 240.22C452.689 239.665 452.806 239.228 453.105 238.908C453.404 238.588 453.82 238.428 454.353 238.428C454.886 238.428 455.292 238.566 455.569 238.844C455.846 239.121 456.028 239.537 456.113 240.092C456.262 241.329 456.7 242.172 457.425 242.62C458.15 243.068 459.292 243.292 460.849 243.292H472.753C474.63 243.292 475.9 242.95 476.561 242.268C477.244 241.585 477.585 240.305 477.585 238.428V229.276C476.604 230.769 475.217 231.91 473.425 232.7C471.633 233.468 469.361 233.852 466.609 233.852H464.177C460.188 233.852 457.265 232.934 455.409 231.1C453.553 229.244 452.625 226.332 452.625 222.364V215.132C452.625 211.1 453.542 208.177 455.377 206.364C457.233 204.529 460.166 203.612 464.177 203.612H469.425C471.516 203.612 473.212 203.889 474.513 204.444C475.814 204.998 476.838 205.862 477.585 207.036V205.276C477.585 204.166 478.15 203.612 479.281 203.612C480.39 203.612 480.945 204.166 480.945 205.276V238.428C480.945 241.244 480.284 243.313 478.961 244.636C477.638 245.98 475.569 246.652 472.753 246.652H460.849ZM464.177 230.492H466.609C469.937 230.492 472.593 229.969 474.577 228.924C476.582 227.878 477.585 226.289 477.585 224.156V213.468C477.585 211.057 476.913 209.372 475.569 208.412C474.225 207.452 472.177 206.972 469.425 206.972H464.177C461.126 206.972 458.993 207.569 457.777 208.764C456.582 209.937 455.985 212.06 455.985 215.132V222.364C455.985 225.372 456.582 227.484 457.777 228.7C458.993 229.894 461.126 230.492 464.177 230.492Z" fill="white"/>
<path d="M425.615 233.852C421.625 233.852 418.702 232.934 416.846 231.1C414.99 229.244 414.062 226.332 414.062 222.364V215.132C414.062 211.1 414.99 208.166 416.846 206.332C418.702 204.476 421.625 203.569 425.615 203.612H430.863C434.852 203.612 437.764 204.54 439.599 206.396C441.455 208.23 442.383 211.142 442.383 215.132V222.3C442.383 226.289 441.455 229.212 439.599 231.068C437.764 232.924 434.852 233.852 430.863 233.852H425.615ZM417.423 222.364C417.423 225.372 418.02 227.484 419.215 228.7C420.431 229.894 422.564 230.492 425.615 230.492H430.863C433.913 230.492 436.036 229.894 437.23 228.7C438.425 227.484 439.023 225.35 439.023 222.3V215.132C439.023 212.081 438.425 209.958 437.23 208.764C436.036 207.569 433.913 206.972 430.863 206.972H425.615C423.567 206.95 421.945 207.196 420.751 207.708C419.556 208.22 418.702 209.073 418.19 210.268C417.678 211.462 417.423 213.084 417.423 215.132V222.364Z" fill="white"/>
<path d="M387.406 233.852C382.777 233.852 379.396 232.785 377.263 230.652C375.129 228.518 374.062 225.137 374.062 220.508V205.948C374.062 201.276 375.118 197.884 377.23 195.772C379.364 193.66 382.734 192.604 387.342 192.604H395.087C399.012 192.604 401.934 193.425 403.854 195.068C405.774 196.689 406.831 199.302 407.023 202.908C407.087 203.484 406.969 203.921 406.671 204.22C406.393 204.518 405.977 204.668 405.423 204.668C404.356 204.668 403.769 204.102 403.663 202.972C403.513 200.326 402.788 198.502 401.487 197.5C400.185 196.476 398.052 195.964 395.087 195.964H387.342C384.889 195.964 382.937 196.284 381.487 196.924C380.036 197.542 378.99 198.588 378.35 200.06C377.732 201.51 377.423 203.473 377.423 205.948V220.508C377.423 222.982 377.743 224.945 378.383 226.396C379.023 227.846 380.068 228.892 381.518 229.532C382.969 230.172 384.932 230.492 387.406 230.492H395.087C398.052 230.492 400.185 229.99 401.487 228.988C402.788 227.964 403.513 226.129 403.663 223.484C403.769 222.353 404.356 221.788 405.423 221.788C405.977 221.788 406.393 221.948 406.671 222.268C406.969 222.566 407.087 222.993 407.023 223.548C406.831 227.153 405.774 229.777 403.854 231.42C401.934 233.041 399.012 233.852 395.087 233.852H387.406Z" fill="white"/>
<path d="M327.349 246.652C324.832 246.652 322.912 246.129 321.589 245.084C320.266 244.06 319.488 242.438 319.253 240.22C319.189 239.665 319.306 239.228 319.605 238.908C319.904 238.588 320.32 238.428 320.853 238.428C321.386 238.428 321.792 238.566 322.069 238.844C322.346 239.121 322.528 239.537 322.613 240.092C322.762 241.329 323.2 242.172 323.925 242.62C324.65 243.068 325.792 243.292 327.349 243.292H339.253C341.13 243.292 342.4 242.95 343.061 242.268C343.744 241.585 344.085 240.305 344.085 238.428V229.276C343.104 230.769 341.717 231.91 339.925 232.7C338.133 233.468 335.861 233.852 333.109 233.852H330.677C326.688 233.852 323.765 232.934 321.909 231.1C320.053 229.244 319.125 226.332 319.125 222.364V215.132C319.125 211.1 320.042 208.177 321.877 206.364C323.733 204.529 326.666 203.612 330.677 203.612H335.925C338.016 203.612 339.712 203.889 341.013 204.444C342.314 204.998 343.338 205.862 344.085 207.036V205.276C344.085 204.166 344.65 203.612 345.781 203.612C346.89 203.612 347.445 204.166 347.445 205.276V238.428C347.445 241.244 346.784 243.313 345.461 244.636C344.138 245.98 342.069 246.652 339.253 246.652H327.349ZM330.677 230.492H333.109C336.437 230.492 339.093 229.969 341.077 228.924C343.082 227.878 344.085 226.289 344.085 224.156V213.468C344.085 211.057 343.413 209.372 342.069 208.412C340.725 207.452 338.677 206.972 335.925 206.972H330.677C327.626 206.972 325.493 207.569 324.277 208.764C323.082 209.937 322.485 212.06 322.485 215.132V222.364C322.485 225.372 323.082 227.484 324.277 228.7C325.493 229.894 327.626 230.492 330.677 230.492Z" fill="white"/>
<path d="M282.622 233.852C281.492 233.852 280.927 233.286 280.927 232.156V205.276C280.927 204.166 281.492 203.612 282.622 203.612C283.732 203.612 284.286 204.166 284.286 205.276V208.348C286.313 205.19 289.982 203.612 295.294 203.612H297.087C301.076 203.612 303.988 204.54 305.823 206.396C307.679 208.23 308.607 211.142 308.607 215.132V232.156C308.607 233.286 308.052 233.852 306.943 233.852C305.812 233.852 305.247 233.286 305.247 232.156V215.132C305.247 212.081 304.639 209.958 303.423 208.764C302.228 207.569 300.116 206.972 297.087 206.972H295.294C291.988 206.972 289.385 207.494 287.487 208.54C285.588 209.585 284.521 211.217 284.286 213.436V232.156C284.286 233.286 283.732 233.852 282.622 233.852Z" fill="white"/>
<path d="M266.574 197.788C265.102 197.788 264.366 197.03 264.366 195.516V194.076C264.366 192.604 265.102 191.868 266.574 191.868H268.014C269.443 191.868 270.158 192.604 270.158 194.076V195.516C270.158 197.03 269.443 197.788 268.014 197.788H266.574ZM267.31 233.852C266.179 233.852 265.614 233.286 265.614 232.156V205.276C265.614 204.166 266.179 203.612 267.31 203.612C268.419 203.612 268.974 204.166 268.974 205.276V232.156C268.974 233.286 268.419 233.852 267.31 233.852Z" fill="white"/>
<path d="M255.029 233.852C251.103 233.852 248.234 232.945 246.421 231.132C244.607 229.318 243.701 226.46 243.701 222.556V206.972H239.893C238.762 206.972 238.197 206.406 238.197 205.276C238.197 204.166 238.762 203.612 239.893 203.612H243.701V196.732C243.701 195.601 244.255 195.036 245.365 195.036C246.495 195.036 247.061 195.601 247.061 196.732V203.612H255.093C256.202 203.612 256.757 204.166 256.757 205.276C256.757 206.406 256.202 206.972 255.093 206.972H247.061V222.556C247.061 225.542 247.637 227.612 248.789 228.764C249.962 229.916 252.042 230.492 255.029 230.492C255.647 230.492 256.085 230.63 256.341 230.908C256.618 231.185 256.757 231.601 256.757 232.156C256.757 233.286 256.181 233.852 255.029 233.852Z" fill="white"/>
<path d="M216.802 233.852C212.813 233.852 209.89 232.924 208.034 231.068C206.178 229.212 205.25 226.289 205.25 222.3V215.068C205.25 211.078 206.167 208.166 208.002 206.332C209.858 204.476 212.791 203.569 216.802 203.612H222.05C225.186 203.612 227.575 204.145 229.218 205.212C230.882 206.257 231.874 207.91 232.194 210.172C232.258 210.748 232.13 211.185 231.81 211.484C231.511 211.782 231.085 211.932 230.53 211.932C230.018 211.932 229.634 211.804 229.378 211.548C229.122 211.27 228.93 210.876 228.802 210.364C228.567 209.126 227.938 208.252 226.914 207.74C225.89 207.228 224.269 206.972 222.05 206.972H216.802C213.751 206.929 211.618 207.505 210.402 208.7C209.207 209.873 208.61 211.996 208.61 215.068V222.3C208.61 225.35 209.207 227.484 210.402 228.7C211.618 229.894 213.751 230.492 216.802 230.492H222.05C224.269 230.492 225.89 230.236 226.914 229.724C227.938 229.212 228.567 228.326 228.802 227.068C228.93 226.556 229.122 226.172 229.378 225.916C229.634 225.638 230.018 225.5 230.53 225.5C231.085 225.5 231.511 225.66 231.81 225.98C232.13 226.278 232.258 226.705 232.194 227.26C231.874 229.521 230.882 231.185 229.218 232.252C227.575 233.318 225.186 233.852 222.05 233.852H216.802Z" fill="white"/>
<path d="M170.048 220.028V222.364C170.048 225.372 170.645 227.484 171.84 228.7C173.056 229.894 175.189 230.492 178.24 230.492H183.488C186.176 230.492 188.128 230.15 189.344 229.468C190.581 228.764 191.317 227.558 191.552 225.852C191.637 225.318 191.808 224.913 192.064 224.636C192.341 224.358 192.757 224.22 193.312 224.22C193.866 224.22 194.282 224.38 194.56 224.7C194.858 224.998 194.975 225.425 194.911 225.98C194.634 228.668 193.557 230.652 191.68 231.932C189.802 233.212 187.072 233.852 183.488 233.852H178.24C174.25 233.852 171.328 232.934 169.472 231.1C167.616 229.244 166.688 226.332 166.688 222.364V215.132C166.688 211.1 167.616 208.166 169.472 206.332C171.328 204.476 174.25 203.569 178.24 203.612H183.488C187.477 203.612 190.389 204.54 192.224 206.396C194.08 208.23 195.008 211.142 195.008 215.132V218.332C195.008 219.462 194.453 220.028 193.344 220.028H170.048ZM178.24 206.972C175.189 206.929 173.056 207.516 171.84 208.732C170.645 209.926 170.048 212.06 170.048 215.132V216.668H191.648V215.132C191.648 212.081 191.05 209.958 189.855 208.764C188.661 207.569 186.538 206.972 183.488 206.972H178.24Z" fill="white"/>
<path d="M130.185 233.852C129.054 233.852 128.489 233.286 128.489 232.156V205.276C128.489 204.166 129.054 203.612 130.185 203.612C131.294 203.612 131.849 204.166 131.849 205.276V208.348C133.876 205.19 137.545 203.612 142.857 203.612H144.649C148.638 203.612 151.55 204.54 153.385 206.396C155.241 208.23 156.169 211.142 156.169 215.132V232.156C156.169 233.286 155.614 233.852 154.505 233.852C153.374 233.852 152.809 233.286 152.809 232.156V215.132C152.809 212.081 152.201 209.958 150.985 208.764C149.79 207.569 147.678 206.972 144.649 206.972H142.857C139.55 206.972 136.948 207.494 135.049 208.54C133.15 209.585 132.084 211.217 131.849 213.436V232.156C131.849 233.286 131.294 233.852 130.185 233.852Z" fill="white"/>
<path d="M91.1225 233.852C89.9918 233.852 89.4265 233.286 89.4265 232.156V205.276C89.4265 204.166 89.9918 203.612 91.1225 203.612C92.2318 203.612 92.7865 204.166 92.7865 205.276V208.348C94.8132 205.19 98.4825 203.612 103.795 203.612H105.587C109.576 203.612 112.488 204.54 114.323 206.396C116.179 208.23 117.107 211.142 117.107 215.132V232.156C117.107 233.286 116.552 233.852 115.443 233.852C114.312 233.852 113.747 233.286 113.747 232.156V215.132C113.747 212.081 113.139 209.958 111.923 208.764C110.728 207.569 108.616 206.972 105.587 206.972H103.795C100.488 206.972 97.8852 207.494 95.9865 208.54C94.0878 209.585 93.0212 211.217 92.7865 213.436V232.156C92.7865 233.286 92.2318 233.852 91.1225 233.852Z" fill="white"/>
<path d="M61.552 233.852C57.5627 233.852 54.64 232.934 52.784 231.1C50.928 229.244 50 226.332 50 222.364V215.132C50 211.1 50.928 208.166 52.784 206.332C54.64 204.476 57.5627 203.569 61.552 203.612H66.8C70.7893 203.612 73.7013 204.54 75.536 206.396C77.392 208.23 78.32 211.142 78.32 215.132V222.3C78.32 226.289 77.392 229.212 75.536 231.068C73.7013 232.924 70.7893 233.852 66.8 233.852H61.552ZM53.36 222.364C53.36 225.372 53.9573 227.484 55.152 228.7C56.368 229.894 58.5013 230.492 61.552 230.492H66.8C69.8507 230.492 71.9733 229.894 73.168 228.7C74.3627 227.484 74.96 225.35 74.96 222.3V215.132C74.96 212.081 74.3627 209.958 73.168 208.764C71.9733 207.569 69.8507 206.972 66.8 206.972H61.552C59.504 206.95 57.8827 207.196 56.688 207.708C55.4933 208.22 54.64 209.073 54.128 210.268C53.616 211.462 53.36 213.084 53.36 215.132V222.364Z" fill="white"/>
<path d="M23.344 233.852C18.7147 233.852 15.3333 232.785 13.2 230.652C11.0667 228.518 10 225.137 10 220.508V205.948C10 201.276 11.056 197.884 13.168 195.772C15.3013 193.66 18.672 192.604 23.28 192.604H31.024C34.9493 192.604 37.872 193.425 39.792 195.068C41.712 196.689 42.768 199.302 42.96 202.908C43.024 203.484 42.9067 203.921 42.608 204.22C42.3307 204.518 41.9147 204.668 41.36 204.668C40.2933 204.668 39.7067 204.102 39.6 202.972C39.4507 200.326 38.7253 198.502 37.424 197.5C36.1227 196.476 33.9893 195.964 31.024 195.964H23.28C20.8267 195.964 18.8747 196.284 17.424 196.924C15.9733 197.542 14.928 198.588 14.288 200.06C13.6693 201.51 13.36 203.473 13.36 205.948V220.508C13.36 222.982 13.68 224.945 14.32 226.396C14.96 227.846 16.0053 228.892 17.456 229.532C18.9067 230.172 20.8693 230.492 23.344 230.492H31.024C33.9893 230.492 36.1227 229.99 37.424 228.988C38.7253 227.964 39.4507 226.129 39.6 223.484C39.7067 222.353 40.2933 221.788 41.36 221.788C41.9147 221.788 42.3307 221.948 42.608 222.268C42.9067 222.566 43.024 222.993 42.96 223.548C42.768 227.153 41.712 229.777 39.792 231.42C37.872 233.041 34.9493 233.852 31.024 233.852H23.344Z" fill="white"/>
</svg>
