<svg width="1038" height="257" viewBox="0 0 1038 257" fill="none" xmlns="http://www.w3.org/2000/svg">
<path d="M958.603 147.192C946.789 147.192 937.707 144.734 931.357 139.817C925.075 134.832 921.319 127.116 920.09 116.668C919.885 114.142 920.431 112.23 921.729 110.932C923.094 109.567 925.006 108.884 927.465 108.884C929.923 108.884 931.732 109.498 932.893 110.727C934.122 111.957 934.908 113.8 935.249 116.259C936.069 122.268 938.22 126.433 941.702 128.755C945.253 131.008 950.886 132.135 958.603 132.135H988.102C997.252 132.135 1003.5 130.462 1006.85 127.116C1010.26 123.702 1011.97 117.522 1011.97 108.577C1011.97 99.4946 1010.23 93.2465 1006.74 89.8322C1003.33 86.3497 997.116 84.6084 988.102 84.6084H961.88C949.248 84.6084 939.892 81.5697 933.815 75.4923C927.806 69.4149 924.801 60.094 924.801 47.5295C924.801 34.965 927.772 25.6782 933.713 19.6691C939.722 13.66 949.043 10.6555 961.675 10.6555H987.487C998.55 10.6555 1007.05 13.0113 1012.99 17.723C1019 22.3664 1022.62 29.5705 1023.85 39.3353C1024.12 41.8618 1023.58 43.808 1022.21 45.1737C1020.91 46.4711 1019 47.1198 1016.47 47.1198C1014.08 47.1198 1012.27 46.5052 1011.05 45.2761C1009.82 43.9787 1009.07 42.135 1008.79 39.745C1007.97 34.487 1005.92 30.8338 1002.65 28.7852C999.437 26.7367 994.384 25.7124 987.487 25.7124H961.675C953.208 25.7124 947.438 27.2829 944.365 30.4241C941.361 33.4969 939.858 39.1987 939.858 47.5295C939.858 55.8603 941.395 61.6304 944.468 64.8398C947.609 67.9809 953.413 69.5515 961.88 69.5515H988.102C1001.35 69.5515 1011.15 72.7268 1017.5 79.0773C1023.85 85.4278 1027.02 95.2609 1027.02 108.577C1027.02 121.824 1023.85 131.589 1017.5 137.871C1011.15 144.085 1001.35 147.192 988.102 147.192H958.603Z" fill="black"/>
<path d="M817.81 147.294C802.446 147.294 791.111 143.675 783.804 136.437C776.566 129.13 772.947 117.795 772.947 102.431V55.3141C772.947 39.8134 776.566 28.478 783.804 21.3081C791.111 14.0699 802.412 10.519 817.708 10.6556H842.393C857.757 10.6556 869.058 14.2747 876.297 21.5129C883.535 28.7512 887.154 40.0865 887.154 55.519V102.431C887.154 117.795 883.535 129.13 876.297 136.437C869.058 143.675 857.757 147.294 842.393 147.294H817.81ZM817.81 132.237H842.393C849.836 132.237 855.709 131.316 860.011 129.472C864.381 127.628 867.488 124.555 869.331 120.253C871.175 115.883 872.097 109.942 872.097 102.431V55.519C872.097 48.0759 871.175 42.2034 869.331 37.9014C867.488 33.5311 864.381 30.4242 860.011 28.5805C855.709 26.6685 849.836 25.7125 842.393 25.7125H817.708C810.265 25.6442 804.392 26.5319 800.09 28.3756C795.788 30.151 792.681 33.2239 790.769 37.5941C788.926 41.8961 788.004 47.8028 788.004 55.3141V102.431C788.004 109.942 788.926 115.883 790.769 120.253C792.613 124.555 795.686 127.628 799.988 129.472C804.358 131.316 810.299 132.237 817.81 132.237Z" fill="black"/>
<path d="M740.63 147.602C738.649 148.899 736.772 149.309 734.996 148.831C733.221 148.353 731.684 147.124 730.387 145.143L698.02 92.0856H666.369V139.715C666.369 144.768 663.877 147.294 658.892 147.294C653.839 147.294 651.313 144.768 651.313 139.715V18.2351C651.313 13.182 653.839 10.6555 658.892 10.6555H706.828C719.052 10.6555 728.372 13.899 734.791 20.3861C741.21 26.8049 744.419 36.1259 744.419 48.3489V54.4946C744.419 65.1471 741.927 73.6145 736.942 79.8967C732.026 86.1789 724.856 90.0371 715.432 91.4711L743.395 137.359C745.785 141.592 744.863 145.007 740.63 147.602ZM666.369 77.0287H706.828C714.886 77.0287 720.656 75.2875 724.139 71.8049C727.621 68.3224 729.363 62.5523 729.363 54.4946V48.3489C729.363 40.2913 727.621 34.5212 724.139 31.0386C720.656 27.4878 714.886 25.7124 706.828 25.7124H666.369V77.0287Z" fill="black"/>
<path d="M555.121 162.249C550.068 162.249 547.542 159.756 547.542 154.771C547.542 149.718 550.068 147.192 555.121 147.192H606.95C611.935 147.192 614.427 149.718 614.427 154.771C614.427 159.756 611.935 162.249 606.95 162.249H555.121Z" fill="black"/>
<path d="M521.369 147.602C519.389 148.899 517.511 149.309 515.736 148.831C513.96 148.353 512.424 147.124 511.127 145.143L478.759 92.0856H447.109V139.715C447.109 144.768 444.617 147.294 439.632 147.294C434.579 147.294 432.052 144.768 432.052 139.715V18.2351C432.052 13.182 434.579 10.6555 439.632 10.6555H487.568C499.791 10.6555 509.112 13.899 515.531 20.3861C521.95 26.8049 525.159 36.1259 525.159 48.3489V54.4946C525.159 65.1471 522.667 73.6145 517.682 79.8967C512.766 86.1789 505.596 90.0371 496.172 91.4711L524.135 137.359C526.525 141.592 525.603 145.007 521.369 147.602ZM447.109 77.0287H487.568C495.626 77.0287 501.396 75.2875 504.879 71.8049C508.361 68.3224 510.102 62.5523 510.102 54.4946V48.3489C510.102 40.2913 508.361 34.5212 504.879 31.0386C501.396 27.4878 495.626 25.7124 487.568 25.7124H447.109V77.0287Z" fill="black"/>
<path d="M291.232 146.577C286.452 144.665 285.018 141.353 286.93 136.642L336.403 16.5963C338.11 12.6357 340.91 10.6555 344.802 10.6555H345.314C349.206 10.8603 351.869 12.8406 353.303 16.5963L403.288 136.642C405.2 141.353 403.834 144.665 399.191 146.577C394.479 148.421 391.202 147.055 389.358 142.48L377.374 113.8H312.537L300.963 142.48C299.051 147.124 295.807 148.489 291.232 146.577ZM318.478 98.7434H371.228L344.495 34.5212L318.478 98.7434Z" fill="black"/>
<path d="M194.641 147.294C179.277 147.294 167.941 143.675 160.635 136.437C153.396 129.13 149.777 117.795 149.777 102.431V55.3141C149.777 39.8134 153.396 28.478 160.635 21.3081C167.941 14.0699 179.242 10.519 194.538 10.6556H219.223C234.588 10.6556 245.889 14.2747 253.127 21.5129C260.365 28.7512 263.984 40.0865 263.984 55.519V102.431C263.984 117.795 260.365 129.13 253.127 136.437C245.889 143.675 234.588 147.294 219.223 147.294H194.641ZM194.641 132.237H219.223C226.667 132.237 232.539 131.316 236.841 129.472C241.211 127.628 244.318 124.555 246.162 120.253C248.006 115.883 248.928 109.942 248.928 102.431V55.519C248.928 48.0759 248.006 42.2034 246.162 37.9014C244.318 33.5311 241.211 30.4242 236.841 28.5805C232.539 26.6685 226.667 25.7125 219.223 25.7125H194.538C187.095 25.6442 181.223 26.5319 176.921 28.3756C172.619 30.151 169.512 33.2239 167.6 37.5941C165.756 41.8961 164.834 47.8028 164.834 55.3141V102.431C164.834 109.942 165.756 115.883 167.6 120.253C169.444 124.555 172.516 127.628 176.818 129.472C181.189 131.316 187.129 132.237 194.641 132.237Z" fill="black"/>
<path d="M48.5548 147.192C36.7414 147.192 27.6595 144.734 21.309 139.817C15.0267 134.832 11.271 127.116 10.0419 116.668C9.83705 114.142 10.3833 112.23 11.6807 110.932C13.0465 109.567 14.9584 108.884 17.4167 108.884C19.875 108.884 21.6845 109.498 22.8454 110.728C24.0745 111.957 24.8598 113.8 25.2012 116.259C26.0206 122.268 28.1716 126.433 31.6542 128.755C35.205 131.008 40.8385 132.135 48.5548 132.135H78.054C87.2042 132.135 93.4523 130.462 96.7983 127.116C100.213 123.702 101.92 117.522 101.92 108.577C101.92 99.4946 100.178 93.2465 96.6959 89.8322C93.2816 86.3497 87.0677 84.6084 78.054 84.6084H51.8325C39.1997 84.6084 29.8446 81.5697 23.7672 75.4923C17.7581 69.415 14.7536 60.094 14.7536 47.5295C14.7536 34.965 17.724 25.6783 23.6648 19.6692C29.6739 13.6601 38.9948 10.6555 51.6276 10.6555H77.4394C88.5016 10.6555 97.0032 13.0113 102.944 17.723C108.953 22.3664 112.572 29.5705 113.801 39.3353C114.074 41.8619 113.528 43.808 112.162 45.1737C110.865 46.4711 108.953 47.1198 106.427 47.1198C104.037 47.1198 102.227 46.5053 100.998 45.2761C99.7687 43.9787 99.0176 42.135 98.7444 39.745C97.925 34.487 95.8765 30.8338 92.5988 28.7852C89.3893 26.7367 84.3362 25.7124 77.4394 25.7124H51.6276C43.1602 25.7124 37.3901 27.283 34.3173 30.4241C31.3128 33.4969 29.8105 39.1987 29.8105 47.5295C29.8105 55.8603 31.3469 61.6304 34.4197 64.8398C37.5609 67.981 43.3651 69.5515 51.8325 69.5515H78.054C91.3013 69.5515 101.1 72.7268 107.451 79.0773C113.801 85.4278 116.977 95.2609 116.977 108.577C116.977 121.824 113.801 131.589 107.451 137.871C101.1 144.085 91.3013 147.192 78.054 147.192H48.5548Z" fill="black"/>
<path d="M1023.5 233.678C1022.27 233.678 1021.65 233.048 1021.65 231.79V230.574C1021.65 229.358 1022.27 228.75 1023.5 228.75H1024.69C1025.9 228.75 1026.51 229.358 1026.51 230.574V231.79C1026.51 233.048 1025.9 233.678 1024.69 233.678H1023.5Z" fill="black"/>
<path d="M993.8 233.614C991.176 233.614 989.171 233.059 987.784 231.95C986.398 230.819 985.566 229.102 985.288 226.798C985.224 226.243 985.342 225.816 985.64 225.518C985.939 225.198 986.376 225.038 986.952 225.038C987.486 225.038 987.88 225.176 988.136 225.454C988.414 225.731 988.595 226.147 988.68 226.702C988.872 228.024 989.352 228.952 990.12 229.486C990.91 229.998 992.136 230.254 993.8 230.254H1004.3C1006.28 230.254 1007.65 229.88 1008.39 229.134C1009.14 228.387 1009.51 227.022 1009.51 225.038C1009.51 223.032 1009.14 221.656 1008.39 220.91C1007.65 220.163 1006.28 219.79 1004.3 219.79H993.929C991.155 219.79 989.086 219.128 987.72 217.806C986.376 216.462 985.705 214.403 985.705 211.63C985.705 208.792 986.376 206.712 987.72 205.39C989.064 204.046 991.134 203.374 993.929 203.374H1003.98C1008.8 203.374 1011.48 205.507 1012.01 209.774C1012.09 210.328 1011.98 210.766 1011.66 211.086C1011.36 211.384 1010.93 211.534 1010.38 211.534C1009.84 211.534 1009.44 211.395 1009.16 211.118C1008.9 210.84 1008.72 210.435 1008.62 209.902C1008.47 208.707 1008.03 207.886 1007.3 207.438C1006.6 206.968 1005.49 206.734 1003.98 206.734H993.929C992.073 206.734 990.792 207.075 990.088 207.758C989.406 208.44 989.064 209.731 989.064 211.63C989.064 213.443 989.416 214.702 990.12 215.406C990.824 216.088 992.094 216.43 993.929 216.43H1004.3C1007.24 216.43 1009.41 217.134 1010.79 218.542C1012.18 219.928 1012.87 222.094 1012.87 225.038C1012.87 227.96 1012.18 230.126 1010.79 231.534C1009.41 232.92 1007.24 233.614 1004.3 233.614H993.8Z" fill="black"/>
<path d="M976.591 233.678C972.666 233.678 969.796 232.771 967.983 230.958C966.17 229.144 965.263 226.286 965.263 222.382V206.798H961.455C960.324 206.798 959.759 206.232 959.759 205.102C959.759 203.992 960.324 203.438 961.455 203.438H965.263V196.558C965.263 195.427 965.818 194.862 966.927 194.862C968.058 194.862 968.623 195.427 968.623 196.558V203.438H976.655C977.764 203.438 978.319 203.992 978.319 205.102C978.319 206.232 977.764 206.798 976.655 206.798H968.623V222.382C968.623 225.368 969.199 227.438 970.351 228.59C971.524 229.742 973.604 230.318 976.591 230.318C977.21 230.318 977.647 230.456 977.903 230.734C978.18 231.011 978.319 231.427 978.319 231.982C978.319 233.112 977.743 233.678 976.591 233.678Z" fill="black"/>
<path d="M937.615 233.678C933.625 233.678 930.702 232.76 928.846 230.926C926.99 229.07 926.062 226.158 926.062 222.19V214.958C926.062 210.926 926.99 207.992 928.846 206.158C930.702 204.302 933.625 203.395 937.615 203.438H942.862C946.852 203.438 949.764 204.366 951.599 206.222C953.455 208.056 954.383 210.968 954.383 214.958V222.126C954.383 226.115 953.455 229.038 951.599 230.894C949.764 232.75 946.852 233.678 942.862 233.678H937.615ZM929.422 222.19C929.422 225.198 930.02 227.31 931.214 228.526C932.43 229.72 934.564 230.318 937.615 230.318H942.862C945.913 230.318 948.036 229.72 949.231 228.526C950.425 227.31 951.023 225.176 951.023 222.126V214.958C951.023 211.907 950.425 209.784 949.231 208.59C948.036 207.395 945.913 206.798 942.862 206.798H937.615C935.567 206.776 933.945 207.022 932.75 207.534C931.556 208.046 930.702 208.899 930.19 210.094C929.678 211.288 929.422 212.91 929.422 214.958V222.19Z" fill="black"/>
<path d="M889.185 233.678C888.054 233.678 887.489 233.112 887.489 231.982V190.958C887.489 189.848 888.054 189.294 889.185 189.294C890.294 189.294 890.849 189.848 890.849 190.958V207.886C891.809 206.414 893.174 205.294 894.945 204.526C896.737 203.758 899.041 203.374 901.857 203.374H904.289C908.278 203.374 911.19 204.302 913.025 206.158C914.881 208.014 915.809 210.936 915.809 214.926V222.126C915.809 226.115 914.881 229.038 913.025 230.894C911.19 232.75 908.278 233.678 904.289 233.678H901.857C899.041 233.678 896.737 233.304 894.945 232.558C893.174 231.79 891.809 230.659 890.849 229.166V231.982C890.849 233.112 890.294 233.678 889.185 233.678ZM901.857 230.318H904.289C907.34 230.318 909.462 229.72 910.657 228.526C911.852 227.31 912.449 225.176 912.449 222.126V214.926C912.449 211.875 911.841 209.752 910.625 208.558C909.43 207.342 907.318 206.734 904.289 206.734H901.857C898.529 206.734 895.862 207.256 893.857 208.302C891.852 209.347 890.849 210.936 890.849 213.07V224.11C890.892 226.179 891.916 227.736 893.921 228.782C895.926 229.806 898.572 230.318 901.857 230.318Z" fill="black"/>
<path d="M859.615 233.678C855.625 233.678 852.702 232.76 850.846 230.926C848.99 229.07 848.062 226.158 848.062 222.19V214.958C848.062 210.926 848.99 207.992 850.846 206.158C852.702 204.302 855.625 203.395 859.615 203.438H864.862C868.852 203.438 871.764 204.366 873.599 206.222C875.455 208.056 876.383 210.968 876.383 214.958V222.126C876.383 226.115 875.455 229.038 873.599 230.894C871.764 232.75 868.852 233.678 864.862 233.678H859.615ZM851.422 222.19C851.422 225.198 852.02 227.31 853.214 228.526C854.43 229.72 856.564 230.318 859.615 230.318H864.862C867.913 230.318 870.036 229.72 871.231 228.526C872.425 227.31 873.023 225.176 873.023 222.126V214.958C873.023 211.907 872.425 209.784 871.231 208.59C870.036 207.395 867.913 206.798 864.862 206.798H859.615C857.567 206.776 855.945 207.022 854.75 207.534C853.556 208.046 852.702 208.899 852.19 210.094C851.678 211.288 851.422 212.91 851.422 214.958V222.19Z" fill="black"/>
<path d="M838.893 233.742C838.424 234.019 837.997 234.115 837.613 234.03C837.229 233.944 836.888 233.678 836.589 233.23L826.093 216.526H814.349V231.982C814.349 233.112 813.794 233.678 812.685 233.678C811.554 233.678 810.989 233.112 810.989 231.982V194.126C810.989 192.995 811.554 192.43 812.685 192.43H827.661C831.309 192.43 834.061 193.368 835.917 195.246C837.794 197.123 838.733 199.886 838.733 203.534V205.454C838.733 208.675 837.997 211.203 836.525 213.038C835.053 214.872 832.877 215.992 829.997 216.398L839.437 231.438C840.034 232.419 839.853 233.187 838.893 233.742ZM814.349 213.166H827.661C830.349 213.166 832.301 212.558 833.517 211.342C834.754 210.104 835.373 208.142 835.373 205.454V203.534C835.373 200.824 834.754 198.862 833.517 197.646C832.301 196.408 830.349 195.79 827.661 195.79H814.349V213.166Z" fill="black"/>
<path d="M766.74 233.678C762.75 233.678 759.827 232.75 757.971 230.894C756.115 229.038 755.188 226.115 755.188 222.126V214.958C755.188 210.968 756.115 208.056 757.971 206.222C759.827 204.366 762.75 203.438 766.74 203.438H780.148V190.958C780.148 189.848 780.713 189.294 781.844 189.294C782.953 189.294 783.508 189.848 783.508 190.958V231.982C783.508 233.112 782.953 233.678 781.844 233.678C780.713 233.678 780.148 233.112 780.148 231.982V229.23C779.23 230.702 777.886 231.811 776.115 232.558C774.345 233.304 772.03 233.678 769.172 233.678H766.74ZM766.74 230.318H769.172C772.5 230.318 775.156 229.795 777.14 228.75C779.145 227.683 780.148 226.094 780.148 223.982V206.798H766.74C763.689 206.798 761.555 207.406 760.339 208.622C759.145 209.816 758.547 211.928 758.547 214.958V222.126C758.547 225.176 759.145 227.31 760.339 228.526C761.555 229.72 763.689 230.318 766.74 230.318Z" fill="black"/>
<path d="M718.685 233.678C717.554 233.678 716.989 233.112 716.989 231.982V205.102C716.989 203.992 717.554 203.438 718.685 203.438C719.794 203.438 720.349 203.992 720.349 205.102V208.174C722.376 205.016 726.045 203.438 731.357 203.438H733.149C737.138 203.438 740.05 204.366 741.885 206.222C743.741 208.056 744.669 210.968 744.669 214.958V231.982C744.669 233.112 744.114 233.678 743.005 233.678C741.874 233.678 741.309 233.112 741.309 231.982V214.958C741.309 211.907 740.701 209.784 739.485 208.59C738.29 207.395 736.178 206.798 733.149 206.798H731.357C728.05 206.798 725.448 207.32 723.549 208.366C721.65 209.411 720.584 211.043 720.349 213.262V231.982C720.349 233.112 719.794 233.678 718.685 233.678Z" fill="black"/>
<path d="M687.669 233.678C684.341 233.678 681.898 232.91 680.341 231.374C678.805 229.816 678.036 227.374 678.036 224.046C678.036 220.718 678.815 218.275 680.372 216.718C681.93 215.16 684.362 214.382 687.669 214.382H702.229C702.186 211.566 701.546 209.603 700.309 208.494C699.093 207.363 697.012 206.798 694.068 206.798H690.357C687.647 206.798 685.663 207.086 684.404 207.662C683.146 208.238 682.367 209.219 682.068 210.606C681.919 211.139 681.717 211.534 681.461 211.79C681.226 212.024 680.842 212.142 680.309 212.142C679.754 212.142 679.317 211.992 678.997 211.694C678.698 211.374 678.591 210.947 678.677 210.414C678.954 207.982 680.053 206.211 681.973 205.102C683.914 203.992 686.709 203.438 690.357 203.438H694.068C698.058 203.438 700.97 204.366 702.805 206.222C704.661 208.056 705.589 210.968 705.589 214.958V231.982C705.589 233.112 705.034 233.678 703.924 233.678C702.794 233.678 702.229 233.112 702.229 231.982V228.814C700.181 232.056 696.522 233.678 691.253 233.678H687.669ZM687.669 230.318H691.253C693.322 230.318 695.135 230.094 696.693 229.646C698.271 229.176 699.54 228.43 700.5 227.406C701.46 226.382 702.037 225.016 702.229 223.31V217.742H687.669C685.301 217.742 683.658 218.2 682.74 219.118C681.844 220.014 681.396 221.656 681.396 224.046C681.396 226.414 681.844 228.056 682.74 228.974C683.658 229.87 685.301 230.318 687.669 230.318Z" fill="black"/>
<path d="M625.247 233.678C624.117 233.678 623.552 233.112 623.552 231.982V205.102C623.552 203.992 624.117 203.438 625.247 203.438C626.357 203.438 626.911 203.992 626.911 205.102V208.174C628.938 205.016 632.607 203.438 637.919 203.438H639.711C643.701 203.438 646.613 204.366 648.448 206.222C650.304 208.056 651.232 210.968 651.232 214.958V231.982C651.232 233.112 650.677 233.678 649.568 233.678C648.437 233.678 647.872 233.112 647.872 231.982V214.958C647.872 211.907 647.263 209.784 646.047 208.59C644.853 207.395 642.741 206.798 639.711 206.798H637.919C634.613 206.798 632.01 207.32 630.112 208.366C628.213 209.411 627.146 211.043 626.911 213.262V231.982C626.911 233.112 626.357 233.678 625.247 233.678Z" fill="black"/>
<path d="M595.677 233.678C591.688 233.678 588.765 232.76 586.909 230.926C585.053 229.07 584.125 226.158 584.125 222.19V214.958C584.125 210.926 585.053 207.992 586.909 206.158C588.765 204.302 591.688 203.395 595.677 203.438H600.925C604.914 203.438 607.826 204.366 609.661 206.222C611.517 208.056 612.445 210.968 612.445 214.958V222.126C612.445 226.115 611.517 229.038 609.661 230.894C607.826 232.75 604.914 233.678 600.925 233.678H595.677ZM587.485 222.19C587.485 225.198 588.082 227.31 589.277 228.526C590.493 229.72 592.626 230.318 595.677 230.318H600.925C603.976 230.318 606.098 229.72 607.293 228.526C608.488 227.31 609.085 225.176 609.085 222.126V214.958C609.085 211.907 608.488 209.784 607.293 208.59C606.098 207.395 603.976 206.798 600.925 206.798H595.677C593.629 206.776 592.008 207.022 590.813 207.534C589.618 208.046 588.765 208.899 588.253 210.094C587.741 211.288 587.485 212.91 587.485 214.958V222.19Z" fill="black"/>
<path d="M570.636 197.614C569.164 197.614 568.429 196.856 568.429 195.342V193.902C568.429 192.43 569.164 191.694 570.636 191.694H572.076C573.506 191.694 574.221 192.43 574.221 193.902V195.342C574.221 196.856 573.506 197.614 572.076 197.614H570.636ZM571.372 233.678C570.242 233.678 569.677 233.112 569.677 231.982V205.102C569.677 203.992 570.242 203.438 571.372 203.438C572.482 203.438 573.036 203.992 573.036 205.102V231.982C573.036 233.112 572.482 233.678 571.372 233.678Z" fill="black"/>
<path d="M559.091 233.678C555.166 233.678 552.296 232.771 550.483 230.958C548.67 229.144 547.763 226.286 547.763 222.382V206.798H543.955C542.824 206.798 542.259 206.232 542.259 205.102C542.259 203.992 542.824 203.438 543.955 203.438H547.763V196.558C547.763 195.427 548.318 194.862 549.427 194.862C550.558 194.862 551.123 195.427 551.123 196.558V203.438H559.155C560.264 203.438 560.819 203.992 560.819 205.102C560.819 206.232 560.264 206.798 559.155 206.798H551.123V222.382C551.123 225.368 551.699 227.438 552.851 228.59C554.024 229.742 556.104 230.318 559.091 230.318C559.71 230.318 560.147 230.456 560.403 230.734C560.68 231.011 560.819 231.427 560.819 231.982C560.819 233.112 560.243 233.678 559.091 233.678Z" fill="black"/>
<path d="M532.386 197.614C530.914 197.614 530.179 196.856 530.179 195.342V193.902C530.179 192.43 530.914 191.694 532.386 191.694H533.826C535.256 191.694 535.971 192.43 535.971 193.902V195.342C535.971 196.856 535.256 197.614 533.826 197.614H532.386ZM533.122 233.678C531.992 233.678 531.427 233.112 531.427 231.982V205.102C531.427 203.992 531.992 203.438 533.122 203.438C534.232 203.438 534.786 203.992 534.786 205.102V231.982C534.786 233.112 534.232 233.678 533.122 233.678Z" fill="black"/>
<path d="M494.06 233.678C492.929 233.678 492.364 233.112 492.364 231.982V205.102C492.364 203.992 492.929 203.438 494.06 203.438C495.169 203.438 495.724 203.992 495.724 205.102V208.174C497.751 205.016 501.42 203.438 506.732 203.438H508.524C512.513 203.438 515.425 204.366 517.26 206.222C519.116 208.056 520.044 210.968 520.044 214.958V231.982C520.044 233.112 519.489 233.678 518.38 233.678C517.249 233.678 516.684 233.112 516.684 231.982V214.958C516.684 211.907 516.076 209.784 514.86 208.59C513.665 207.395 511.553 206.798 508.524 206.798H506.732C503.425 206.798 500.823 207.32 498.924 208.366C497.025 209.411 495.959 211.043 495.724 213.262V231.982C495.724 233.112 495.169 233.678 494.06 233.678Z" fill="black"/>
<path d="M460.849 246.478C458.332 246.478 456.412 245.955 455.089 244.91C453.766 243.886 452.988 242.264 452.753 240.046C452.689 239.491 452.806 239.054 453.105 238.734C453.404 238.414 453.82 238.254 454.353 238.254C454.886 238.254 455.292 238.392 455.569 238.67C455.846 238.947 456.028 239.363 456.113 239.918C456.262 241.155 456.7 241.998 457.425 242.446C458.15 242.894 459.292 243.118 460.849 243.118H472.753C474.63 243.118 475.9 242.776 476.561 242.094C477.244 241.411 477.585 240.131 477.585 238.254V229.102C476.604 230.595 475.217 231.736 473.425 232.526C471.633 233.294 469.361 233.678 466.609 233.678H464.177C460.188 233.678 457.265 232.76 455.409 230.926C453.553 229.07 452.625 226.158 452.625 222.19V214.958C452.625 210.926 453.542 208.003 455.377 206.19C457.233 204.355 460.166 203.438 464.177 203.438H469.425C471.516 203.438 473.212 203.715 474.513 204.27C475.814 204.824 476.838 205.688 477.585 206.862V205.102C477.585 203.992 478.15 203.438 479.281 203.438C480.39 203.438 480.945 203.992 480.945 205.102V238.254C480.945 241.07 480.284 243.139 478.961 244.462C477.638 245.806 475.569 246.478 472.753 246.478H460.849ZM464.177 230.318H466.609C469.937 230.318 472.593 229.795 474.577 228.75C476.582 227.704 477.585 226.115 477.585 223.982V213.294C477.585 210.883 476.913 209.198 475.569 208.238C474.225 207.278 472.177 206.798 469.425 206.798H464.177C461.126 206.798 458.993 207.395 457.777 208.59C456.582 209.763 455.985 211.886 455.985 214.958V222.19C455.985 225.198 456.582 227.31 457.777 228.526C458.993 229.72 461.126 230.318 464.177 230.318Z" fill="black"/>
<path d="M425.615 233.678C421.625 233.678 418.702 232.76 416.846 230.926C414.99 229.07 414.062 226.158 414.062 222.19V214.958C414.062 210.926 414.99 207.992 416.846 206.158C418.702 204.302 421.625 203.395 425.615 203.438H430.863C434.852 203.438 437.764 204.366 439.599 206.222C441.455 208.056 442.383 210.968 442.383 214.958V222.126C442.383 226.115 441.455 229.038 439.599 230.894C437.764 232.75 434.852 233.678 430.863 233.678H425.615ZM417.423 222.19C417.423 225.198 418.02 227.31 419.215 228.526C420.431 229.72 422.564 230.318 425.615 230.318H430.863C433.913 230.318 436.036 229.72 437.23 228.526C438.425 227.31 439.023 225.176 439.023 222.126V214.958C439.023 211.907 438.425 209.784 437.23 208.59C436.036 207.395 433.913 206.798 430.863 206.798H425.615C423.567 206.776 421.945 207.022 420.751 207.534C419.556 208.046 418.702 208.899 418.19 210.094C417.678 211.288 417.423 212.91 417.423 214.958V222.19Z" fill="black"/>
<path d="M387.406 233.678C382.777 233.678 379.396 232.611 377.263 230.478C375.129 228.344 374.062 224.963 374.062 220.334V205.774C374.062 201.102 375.118 197.71 377.23 195.598C379.364 193.486 382.734 192.43 387.342 192.43H395.087C399.012 192.43 401.934 193.251 403.854 194.894C405.774 196.515 406.831 199.128 407.023 202.734C407.087 203.31 406.969 203.747 406.671 204.046C406.393 204.344 405.977 204.494 405.423 204.494C404.356 204.494 403.769 203.928 403.663 202.798C403.513 200.152 402.788 198.328 401.487 197.326C400.185 196.302 398.052 195.79 395.087 195.79H387.342C384.889 195.79 382.937 196.11 381.487 196.75C380.036 197.368 378.99 198.414 378.35 199.886C377.732 201.336 377.423 203.299 377.423 205.774V220.334C377.423 222.808 377.743 224.771 378.383 226.222C379.023 227.672 380.068 228.718 381.518 229.358C382.969 229.998 384.932 230.318 387.406 230.318H395.087C398.052 230.318 400.185 229.816 401.487 228.814C402.788 227.79 403.513 225.955 403.663 223.31C403.769 222.179 404.356 221.614 405.423 221.614C405.977 221.614 406.393 221.774 406.671 222.094C406.969 222.392 407.087 222.819 407.023 223.374C406.831 226.979 405.774 229.603 403.854 231.246C401.934 232.867 399.012 233.678 395.087 233.678H387.406Z" fill="black"/>
<path d="M327.349 246.478C324.832 246.478 322.912 245.955 321.589 244.91C320.266 243.886 319.488 242.264 319.253 240.046C319.189 239.491 319.306 239.054 319.605 238.734C319.904 238.414 320.32 238.254 320.853 238.254C321.386 238.254 321.792 238.392 322.069 238.67C322.346 238.947 322.528 239.363 322.613 239.918C322.762 241.155 323.2 241.998 323.925 242.446C324.65 242.894 325.792 243.118 327.349 243.118H339.253C341.13 243.118 342.4 242.776 343.061 242.094C343.744 241.411 344.085 240.131 344.085 238.254V229.102C343.104 230.595 341.717 231.736 339.925 232.526C338.133 233.294 335.861 233.678 333.109 233.678H330.677C326.688 233.678 323.765 232.76 321.909 230.926C320.053 229.07 319.125 226.158 319.125 222.19V214.958C319.125 210.926 320.042 208.003 321.877 206.19C323.733 204.355 326.666 203.438 330.677 203.438H335.925C338.016 203.438 339.712 203.715 341.013 204.27C342.314 204.824 343.338 205.688 344.085 206.862V205.102C344.085 203.992 344.65 203.438 345.781 203.438C346.89 203.438 347.445 203.992 347.445 205.102V238.254C347.445 241.07 346.784 243.139 345.461 244.462C344.138 245.806 342.069 246.478 339.253 246.478H327.349ZM330.677 230.318H333.109C336.437 230.318 339.093 229.795 341.077 228.75C343.082 227.704 344.085 226.115 344.085 223.982V213.294C344.085 210.883 343.413 209.198 342.069 208.238C340.725 207.278 338.677 206.798 335.925 206.798H330.677C327.626 206.798 325.493 207.395 324.277 208.59C323.082 209.763 322.485 211.886 322.485 214.958V222.19C322.485 225.198 323.082 227.31 324.277 228.526C325.493 229.72 327.626 230.318 330.677 230.318Z" fill="black"/>
<path d="M282.622 233.678C281.492 233.678 280.927 233.112 280.927 231.982V205.102C280.927 203.992 281.492 203.438 282.622 203.438C283.732 203.438 284.286 203.992 284.286 205.102V208.174C286.313 205.016 289.982 203.438 295.294 203.438H297.087C301.076 203.438 303.988 204.366 305.823 206.222C307.679 208.056 308.607 210.968 308.607 214.958V231.982C308.607 233.112 308.052 233.678 306.943 233.678C305.812 233.678 305.247 233.112 305.247 231.982V214.958C305.247 211.907 304.639 209.784 303.423 208.59C302.228 207.395 300.116 206.798 297.087 206.798H295.294C291.988 206.798 289.385 207.32 287.487 208.366C285.588 209.411 284.521 211.043 284.286 213.262V231.982C284.286 233.112 283.732 233.678 282.622 233.678Z" fill="black"/>
<path d="M266.574 197.614C265.102 197.614 264.366 196.856 264.366 195.342V193.902C264.366 192.43 265.102 191.694 266.574 191.694H268.014C269.443 191.694 270.158 192.43 270.158 193.902V195.342C270.158 196.856 269.443 197.614 268.014 197.614H266.574ZM267.31 233.678C266.179 233.678 265.614 233.112 265.614 231.982V205.102C265.614 203.992 266.179 203.438 267.31 203.438C268.419 203.438 268.974 203.992 268.974 205.102V231.982C268.974 233.112 268.419 233.678 267.31 233.678Z" fill="black"/>
<path d="M255.029 233.678C251.103 233.678 248.234 232.771 246.421 230.958C244.607 229.144 243.701 226.286 243.701 222.382V206.798H239.893C238.762 206.798 238.197 206.232 238.197 205.102C238.197 203.992 238.762 203.438 239.893 203.438H243.701V196.558C243.701 195.427 244.255 194.862 245.365 194.862C246.495 194.862 247.061 195.427 247.061 196.558V203.438H255.093C256.202 203.438 256.757 203.992 256.757 205.102C256.757 206.232 256.202 206.798 255.093 206.798H247.061V222.382C247.061 225.368 247.637 227.438 248.789 228.59C249.962 229.742 252.042 230.318 255.029 230.318C255.647 230.318 256.085 230.456 256.341 230.734C256.618 231.011 256.757 231.427 256.757 231.982C256.757 233.112 256.181 233.678 255.029 233.678Z" fill="black"/>
<path d="M216.802 233.678C212.813 233.678 209.89 232.75 208.034 230.894C206.178 229.038 205.25 226.115 205.25 222.126V214.894C205.25 210.904 206.167 207.992 208.002 206.158C209.858 204.302 212.791 203.395 216.802 203.438H222.05C225.186 203.438 227.575 203.971 229.218 205.038C230.882 206.083 231.874 207.736 232.194 209.998C232.258 210.574 232.13 211.011 231.81 211.31C231.511 211.608 231.085 211.758 230.53 211.758C230.018 211.758 229.634 211.63 229.378 211.374C229.122 211.096 228.93 210.702 228.802 210.19C228.567 208.952 227.938 208.078 226.914 207.566C225.89 207.054 224.269 206.798 222.05 206.798H216.802C213.751 206.755 211.618 207.331 210.402 208.526C209.207 209.699 208.61 211.822 208.61 214.894V222.126C208.61 225.176 209.207 227.31 210.402 228.526C211.618 229.72 213.751 230.318 216.802 230.318H222.05C224.269 230.318 225.89 230.062 226.914 229.55C227.938 229.038 228.567 228.152 228.802 226.894C228.93 226.382 229.122 225.998 229.378 225.742C229.634 225.464 230.018 225.326 230.53 225.326C231.085 225.326 231.511 225.486 231.81 225.806C232.13 226.104 232.258 226.531 232.194 227.086C231.874 229.347 230.882 231.011 229.218 232.078C227.575 233.144 225.186 233.678 222.05 233.678H216.802Z" fill="black"/>
<path d="M170.048 219.854V222.19C170.048 225.198 170.645 227.31 171.84 228.526C173.056 229.72 175.189 230.318 178.24 230.318H183.488C186.176 230.318 188.128 229.976 189.344 229.294C190.581 228.59 191.317 227.384 191.552 225.678C191.637 225.144 191.808 224.739 192.064 224.462C192.341 224.184 192.757 224.046 193.312 224.046C193.866 224.046 194.282 224.206 194.56 224.526C194.858 224.824 194.975 225.251 194.911 225.806C194.634 228.494 193.557 230.478 191.68 231.758C189.802 233.038 187.072 233.678 183.488 233.678H178.24C174.25 233.678 171.328 232.76 169.472 230.926C167.616 229.07 166.688 226.158 166.688 222.19V214.958C166.688 210.926 167.616 207.992 169.472 206.158C171.328 204.302 174.25 203.395 178.24 203.438H183.488C187.477 203.438 190.389 204.366 192.224 206.222C194.08 208.056 195.008 210.968 195.008 214.958V218.158C195.008 219.288 194.453 219.854 193.344 219.854H170.048ZM178.24 206.798C175.189 206.755 173.056 207.342 171.84 208.558C170.645 209.752 170.048 211.886 170.048 214.958V216.494H191.648V214.958C191.648 211.907 191.05 209.784 189.855 208.59C188.661 207.395 186.538 206.798 183.488 206.798H178.24Z" fill="black"/>
<path d="M130.185 233.678C129.054 233.678 128.489 233.112 128.489 231.982V205.102C128.489 203.992 129.054 203.438 130.185 203.438C131.294 203.438 131.849 203.992 131.849 205.102V208.174C133.876 205.016 137.545 203.438 142.857 203.438H144.649C148.638 203.438 151.55 204.366 153.385 206.222C155.241 208.056 156.169 210.968 156.169 214.958V231.982C156.169 233.112 155.614 233.678 154.505 233.678C153.374 233.678 152.809 233.112 152.809 231.982V214.958C152.809 211.907 152.201 209.784 150.985 208.59C149.79 207.395 147.678 206.798 144.649 206.798H142.857C139.55 206.798 136.948 207.32 135.049 208.366C133.15 209.411 132.084 211.043 131.849 213.262V231.982C131.849 233.112 131.294 233.678 130.185 233.678Z" fill="black"/>
<path d="M91.1225 233.678C89.9918 233.678 89.4265 233.112 89.4265 231.982V205.102C89.4265 203.992 89.9918 203.438 91.1225 203.438C92.2318 203.438 92.7865 203.992 92.7865 205.102V208.174C94.8132 205.016 98.4825 203.438 103.795 203.438H105.587C109.576 203.438 112.488 204.366 114.323 206.222C116.179 208.056 117.107 210.968 117.107 214.958V231.982C117.107 233.112 116.552 233.678 115.443 233.678C114.312 233.678 113.747 233.112 113.747 231.982V214.958C113.747 211.907 113.139 209.784 111.923 208.59C110.728 207.395 108.616 206.798 105.587 206.798H103.795C100.488 206.798 97.8852 207.32 95.9865 208.366C94.0878 209.411 93.0212 211.043 92.7865 213.262V231.982C92.7865 233.112 92.2318 233.678 91.1225 233.678Z" fill="black"/>
<path d="M61.552 233.678C57.5627 233.678 54.64 232.76 52.784 230.926C50.928 229.07 50 226.158 50 222.19V214.958C50 210.926 50.928 207.992 52.784 206.158C54.64 204.302 57.5627 203.395 61.552 203.438H66.8C70.7893 203.438 73.7013 204.366 75.536 206.222C77.392 208.056 78.32 210.968 78.32 214.958V222.126C78.32 226.115 77.392 229.038 75.536 230.894C73.7013 232.75 70.7893 233.678 66.8 233.678H61.552ZM53.36 222.19C53.36 225.198 53.9573 227.31 55.152 228.526C56.368 229.72 58.5013 230.318 61.552 230.318H66.8C69.8507 230.318 71.9733 229.72 73.168 228.526C74.3627 227.31 74.96 225.176 74.96 222.126V214.958C74.96 211.907 74.3627 209.784 73.168 208.59C71.9733 207.395 69.8507 206.798 66.8 206.798H61.552C59.504 206.776 57.8827 207.022 56.688 207.534C55.4933 208.046 54.64 208.899 54.128 210.094C53.616 211.288 53.36 212.91 53.36 214.958V222.19Z" fill="black"/>
<path d="M23.344 233.678C18.7147 233.678 15.3333 232.611 13.2 230.478C11.0667 228.344 10 224.963 10 220.334V205.774C10 201.102 11.056 197.71 13.168 195.598C15.3013 193.486 18.672 192.43 23.28 192.43H31.024C34.9493 192.43 37.872 193.251 39.792 194.894C41.712 196.515 42.768 199.128 42.96 202.734C43.024 203.31 42.9067 203.747 42.608 204.046C42.3307 204.344 41.9147 204.494 41.36 204.494C40.2933 204.494 39.7067 203.928 39.6 202.798C39.4507 200.152 38.7253 198.328 37.424 197.326C36.1227 196.302 33.9893 195.79 31.024 195.79H23.28C20.8267 195.79 18.8747 196.11 17.424 196.75C15.9733 197.368 14.928 198.414 14.288 199.886C13.6693 201.336 13.36 203.299 13.36 205.774V220.334C13.36 222.808 13.68 224.771 14.32 226.222C14.96 227.672 16.0053 228.718 17.456 229.358C18.9067 229.998 20.8693 230.318 23.344 230.318H31.024C33.9893 230.318 36.1227 229.816 37.424 228.814C38.7253 227.79 39.4507 225.955 39.6 223.31C39.7067 222.179 40.2933 221.614 41.36 221.614C41.9147 221.614 42.3307 221.774 42.608 222.094C42.9067 222.392 43.024 222.819 42.96 223.374C42.768 226.979 41.712 229.603 39.792 231.246C37.872 232.867 34.9493 233.678 31.024 233.678H23.344Z" fill="black"/>
</svg>
