<svg width="1457" height="419" viewBox="0 0 1457 419" fill="none" xmlns="http://www.w3.org/2000/svg">
<path d="M247.23 295.477C249.888 296.947 253.176 295.952 254.573 293.255C255.971 290.558 254.949 287.18 252.29 285.71L247.23 295.477ZM142.707 231.392L176.228 286.203L205.446 229.814L142.707 231.392ZM252.29 285.71L188.555 250.463L183.494 260.23L247.23 295.477L252.29 285.71Z" fill="white"/>
<ellipse cx="46.3221" cy="45.6661" rx="46.3221" ry="45.6661" transform="matrix(-0.517591 0.855628 -0.840121 -0.542398 363 304.009)" fill="white"/>
<ellipse cx="301.444" cy="82.7376" rx="45.2407" ry="46.7376" fill="white"/>
<path d="M306.945 146.866C306.945 143.828 304.482 141.366 301.445 141.366C298.407 141.366 295.945 143.828 295.945 146.866H306.945ZM301.445 254.471L333.199 199.471H269.69L301.445 254.471ZM295.945 146.866V204.971H306.945V146.866H295.945Z" fill="white"/>
<ellipse cx="46.3796" cy="45.6076" rx="46.3796" ry="45.6076" transform="matrix(-0.479971 -0.877285 0.863561 -0.504245 74.5217 266.628)" fill="white"/>
<path d="M141.503 168.555C138.871 170.072 137.907 173.468 139.35 176.141C140.793 178.814 144.096 179.751 146.728 178.234L141.503 168.555ZM249.404 112.728L186.664 112.245L216.834 168.129L249.404 112.728ZM146.728 178.234L209.127 142.281L203.902 132.601L141.503 168.555L146.728 178.234Z" fill="white"/>
<path d="M1377.6 228.127C1365.79 228.127 1356.71 225.669 1350.36 220.752C1344.07 215.767 1340.32 208.051 1339.09 197.604C1338.89 195.077 1339.43 193.165 1340.73 191.868C1342.09 190.502 1344.01 189.819 1346.46 189.819C1348.92 189.819 1350.73 190.434 1351.89 191.663C1353.12 192.892 1353.91 194.736 1354.25 197.194C1355.07 203.203 1357.22 207.368 1360.7 209.69C1364.25 211.943 1369.89 213.07 1377.6 213.07H1407.1C1416.25 213.07 1422.5 211.397 1425.85 208.051C1429.26 204.637 1430.97 198.457 1430.97 189.512C1430.97 180.43 1429.23 174.182 1425.74 170.767C1422.33 167.285 1416.12 165.544 1407.1 165.544H1380.88C1368.25 165.544 1358.89 162.505 1352.82 156.428C1346.81 150.35 1343.8 141.029 1343.8 128.465C1343.8 115.9 1346.77 106.613 1352.71 100.604C1358.72 94.5953 1368.04 91.5907 1380.68 91.5907H1406.49C1417.55 91.5907 1426.05 93.9466 1431.99 98.6583C1438 103.302 1441.62 110.506 1442.85 120.271C1443.12 122.797 1442.58 124.743 1441.21 126.109C1439.91 127.406 1438 128.055 1435.47 128.055C1433.08 128.055 1431.28 127.44 1430.05 126.211C1428.82 124.914 1428.07 123.07 1427.79 120.68C1426.97 115.422 1424.92 111.769 1421.65 109.72C1418.44 107.672 1413.38 106.648 1406.49 106.648H1380.68C1372.21 106.648 1366.44 108.218 1363.37 111.359C1360.36 114.432 1358.86 120.134 1358.86 128.465C1358.86 136.796 1360.4 142.566 1363.47 145.775C1366.61 148.916 1372.41 150.487 1380.88 150.487H1407.1C1420.35 150.487 1430.15 153.662 1436.5 160.013C1442.85 166.363 1446.02 176.196 1446.02 189.512C1446.02 202.759 1442.85 212.524 1436.5 218.806C1430.15 225.02 1420.35 228.127 1407.1 228.127H1377.6Z" fill="white"/>
<path d="M1236.81 228.23C1221.45 228.23 1210.11 224.61 1202.8 217.372C1195.57 210.066 1191.95 198.73 1191.95 183.366V136.249C1191.95 120.749 1195.57 109.413 1202.8 102.243C1210.11 95.0051 1221.41 91.4543 1236.71 91.5909H1261.39C1276.76 91.5909 1288.06 95.21 1295.3 102.448C1302.54 109.686 1306.15 121.022 1306.15 136.454V183.366C1306.15 198.73 1302.54 210.066 1295.3 217.372C1288.06 224.61 1276.76 228.23 1261.39 228.23H1236.81ZM1236.81 213.173H1261.39C1268.84 213.173 1274.71 212.251 1279.01 210.407C1283.38 208.563 1286.49 205.491 1288.33 201.189C1290.18 196.818 1291.1 190.878 1291.1 183.366V136.454C1291.1 129.011 1290.18 123.139 1288.33 118.837C1286.49 114.466 1283.38 111.359 1279.01 109.516C1274.71 107.604 1268.84 106.648 1261.39 106.648H1236.71C1229.27 106.579 1223.39 107.467 1219.09 109.311C1214.79 111.086 1211.68 114.159 1209.77 118.529C1207.93 122.831 1207 128.738 1207 136.249V183.366C1207 190.878 1207.93 196.818 1209.77 201.189C1211.61 205.491 1214.69 208.563 1218.99 210.407C1223.36 212.251 1229.3 213.173 1236.81 213.173Z" fill="white"/>
<path d="M1159.63 228.537C1157.65 229.834 1155.77 230.244 1154 229.766C1152.22 229.288 1150.68 228.059 1149.39 226.079L1117.02 173.021H1085.37V220.65C1085.37 225.703 1082.88 228.23 1077.89 228.23C1072.84 228.23 1070.31 225.703 1070.31 220.65V99.1704C1070.31 94.1173 1072.84 91.5907 1077.89 91.5907H1125.83C1138.05 91.5907 1147.37 94.8343 1153.79 101.321C1160.21 107.74 1163.42 117.061 1163.42 129.284V135.43C1163.42 146.082 1160.93 154.55 1155.94 160.832C1151.03 167.114 1143.86 170.972 1134.43 172.406L1162.4 218.294C1164.79 222.528 1163.86 225.942 1159.63 228.537ZM1085.37 157.964H1125.83C1133.89 157.964 1139.66 156.223 1143.14 152.74C1146.62 149.258 1148.36 143.488 1148.36 135.43V129.284C1148.36 121.227 1146.62 115.456 1143.14 111.974C1139.66 108.423 1133.89 106.648 1125.83 106.648H1085.37V157.964Z" fill="white"/>
<path d="M974.122 243.184C969.069 243.184 966.542 240.691 966.542 235.707C966.542 230.654 969.069 228.127 974.122 228.127H1025.95C1030.93 228.127 1033.43 230.654 1033.43 235.707C1033.43 240.691 1030.93 243.184 1025.95 243.184H974.122Z" fill="white"/>
<path d="M940.37 228.537C938.39 229.834 936.512 230.244 934.736 229.766C932.961 229.288 931.424 228.059 930.127 226.079L897.76 173.021H866.11V220.65C866.11 225.703 863.617 228.23 858.632 228.23C853.579 228.23 851.053 225.703 851.053 220.65V99.1704C851.053 94.1173 853.579 91.5907 858.632 91.5907H906.569C918.792 91.5907 928.113 94.8343 934.531 101.321C940.95 107.74 944.16 117.061 944.16 129.284V135.43C944.16 146.082 941.667 154.55 936.682 160.832C931.766 167.114 924.596 170.972 915.173 172.406L943.135 218.294C945.525 222.528 944.603 225.942 940.37 228.537ZM866.11 157.964H906.569C914.626 157.964 920.396 156.223 923.879 152.74C927.361 149.258 929.103 143.488 929.103 135.43V129.284C929.103 121.227 927.361 115.456 923.879 111.974C920.396 108.423 914.626 106.648 906.569 106.648H866.11V157.964Z" fill="white"/>
<path d="M710.232 227.513C705.453 225.601 704.019 222.289 705.931 217.577L755.403 97.5316C757.11 93.571 759.91 91.5907 763.802 91.5907H764.314C768.207 91.7956 770.87 93.7759 772.304 97.5316L822.289 217.577C824.201 222.289 822.835 225.601 818.191 227.513C813.48 229.356 810.202 227.99 808.358 223.415L796.374 194.736H731.537L719.963 223.415C718.051 228.059 714.808 229.424 710.232 227.513ZM737.478 179.679H790.229L763.495 115.456L737.478 179.679Z" fill="white"/>
<path d="M613.641 228.23C598.277 228.23 586.942 224.61 579.635 217.372C572.397 210.066 568.778 198.73 568.778 183.366V136.249C568.778 120.749 572.397 109.413 579.635 102.243C586.942 95.0051 598.243 91.4543 613.539 91.5909H638.224C653.588 91.5909 664.889 95.21 672.127 102.448C679.366 109.686 682.985 121.022 682.985 136.454V183.366C682.985 198.73 679.366 210.066 672.127 217.372C664.889 224.61 653.588 228.23 638.224 228.23H613.641ZM613.641 213.173H638.224C645.667 213.173 651.539 212.251 655.841 210.407C660.212 208.563 663.319 205.491 665.162 201.189C667.006 196.818 667.928 190.878 667.928 183.366V136.454C667.928 129.011 667.006 123.139 665.162 118.837C663.319 114.466 660.212 111.359 655.841 109.516C651.539 107.604 645.667 106.648 638.224 106.648H613.539C606.096 106.579 600.223 107.467 595.921 109.311C591.619 111.086 588.512 114.159 586.6 118.529C584.756 122.831 583.835 128.738 583.835 136.249V183.366C583.835 190.878 584.756 196.818 586.6 201.189C588.444 205.491 591.517 208.563 595.819 210.407C600.189 212.251 606.13 213.173 613.641 213.173Z" fill="white"/>
<path d="M467.555 228.127C455.742 228.127 446.66 225.669 440.309 220.752C434.027 215.767 430.271 208.051 429.042 197.604C428.837 195.077 429.384 193.165 430.681 191.868C432.047 190.502 433.959 189.819 436.417 189.819C438.875 189.819 440.685 190.434 441.846 191.663C443.075 192.892 443.86 194.736 444.202 197.194C445.021 203.203 447.172 207.368 450.655 209.69C454.205 211.944 459.839 213.07 467.555 213.07H497.054C506.205 213.07 512.453 211.397 515.799 208.051C519.213 204.637 520.92 198.457 520.92 189.512C520.92 180.43 519.179 174.182 515.696 170.768C512.282 167.285 506.068 165.544 497.054 165.544H470.833C458.2 165.544 448.845 162.505 442.768 156.428C436.758 150.35 433.754 141.029 433.754 128.465C433.754 115.9 436.724 106.614 442.665 100.604C448.674 94.5953 457.995 91.5908 470.628 91.5908H496.44C507.502 91.5908 516.004 93.9466 521.944 98.6583C527.953 103.302 531.573 110.506 532.802 120.271C533.075 122.797 532.529 124.743 531.163 126.109C529.865 127.406 527.953 128.055 525.427 128.055C523.037 128.055 521.227 127.441 519.998 126.211C518.769 124.914 518.018 123.07 517.745 120.68C516.925 115.422 514.877 111.769 511.599 109.721C508.39 107.672 503.337 106.648 496.44 106.648H470.628C462.161 106.648 456.391 108.218 453.318 111.359C450.313 114.432 448.811 120.134 448.811 128.465C448.811 136.796 450.347 142.566 453.42 145.775C456.561 148.916 462.365 150.487 470.833 150.487H497.054C510.302 150.487 520.101 153.662 526.451 160.013C532.802 166.363 535.977 176.196 535.977 189.512C535.977 202.759 532.802 212.524 526.451 218.806C520.101 225.02 510.302 228.127 497.054 228.127H467.555Z" fill="white"/>
<path d="M1442.5 314.613C1441.27 314.613 1440.65 313.984 1440.65 312.725V311.509C1440.65 310.293 1441.27 309.685 1442.5 309.685H1443.69C1444.9 309.685 1445.51 310.293 1445.51 311.509V312.725C1445.51 313.984 1444.9 314.613 1443.69 314.613H1442.5Z" fill="white"/>
<path d="M1412.8 314.549C1410.18 314.549 1408.17 313.994 1406.78 312.885C1405.4 311.754 1404.57 310.037 1404.29 307.733C1404.22 307.178 1404.34 306.752 1404.64 306.453C1404.94 306.133 1405.38 305.973 1405.95 305.973C1406.49 305.973 1406.88 306.112 1407.14 306.389C1407.41 306.666 1407.6 307.082 1407.68 307.637C1407.87 308.96 1408.35 309.888 1409.12 310.421C1409.91 310.933 1411.14 311.189 1412.8 311.189H1423.3C1425.28 311.189 1426.65 310.816 1427.39 310.069C1428.14 309.322 1428.51 307.957 1428.51 305.973C1428.51 303.968 1428.14 302.592 1427.39 301.845C1426.65 301.098 1425.28 300.725 1423.3 300.725H1412.93C1410.16 300.725 1408.09 300.064 1406.72 298.741C1405.38 297.397 1404.7 295.338 1404.7 292.565C1404.7 289.728 1405.38 287.648 1406.72 286.325C1408.06 284.981 1410.13 284.309 1412.93 284.309H1422.98C1427.8 284.309 1430.48 286.442 1431.01 290.709C1431.09 291.264 1430.98 291.701 1430.66 292.021C1430.36 292.32 1429.93 292.469 1429.38 292.469C1428.84 292.469 1428.44 292.33 1428.16 292.053C1427.9 291.776 1427.72 291.37 1427.62 290.837C1427.47 289.642 1427.03 288.821 1426.3 288.373C1425.6 287.904 1424.49 287.669 1422.98 287.669H1412.93C1411.07 287.669 1409.79 288.01 1409.09 288.693C1408.41 289.376 1408.06 290.666 1408.06 292.565C1408.06 294.378 1408.42 295.637 1409.12 296.341C1409.82 297.024 1411.09 297.365 1412.93 297.365H1423.3C1426.24 297.365 1428.41 298.069 1429.79 299.477C1431.18 300.864 1431.87 303.029 1431.87 305.973C1431.87 308.896 1431.18 311.061 1429.79 312.469C1428.41 313.856 1426.24 314.549 1423.3 314.549H1412.8Z" fill="white"/>
<path d="M1395.59 314.613C1391.67 314.613 1388.8 313.706 1386.98 311.893C1385.17 310.08 1384.26 307.221 1384.26 303.317V287.733H1380.46C1379.32 287.733 1378.76 287.168 1378.76 286.037C1378.76 284.928 1379.32 284.373 1380.46 284.373H1384.26V277.493C1384.26 276.362 1384.82 275.797 1385.93 275.797C1387.06 275.797 1387.62 276.362 1387.62 277.493V284.373H1395.66C1396.76 284.373 1397.32 284.928 1397.32 286.037C1397.32 287.168 1396.76 287.733 1395.66 287.733H1387.62V303.317C1387.62 306.304 1388.2 308.373 1389.35 309.525C1390.52 310.677 1392.6 311.253 1395.59 311.253C1396.21 311.253 1396.65 311.392 1396.9 311.669C1397.18 311.946 1397.32 312.362 1397.32 312.917C1397.32 314.048 1396.74 314.613 1395.59 314.613Z" fill="white"/>
<path d="M1356.61 314.613C1352.63 314.613 1349.7 313.696 1347.85 311.861C1345.99 310.005 1345.06 307.093 1345.06 303.125V295.893C1345.06 291.861 1345.99 288.928 1347.85 287.093C1349.7 285.237 1352.63 284.33 1356.61 284.373H1361.86C1365.85 284.373 1368.76 285.301 1370.6 287.157C1372.45 288.992 1373.38 291.904 1373.38 295.893V303.061C1373.38 307.05 1372.45 309.973 1370.6 311.829C1368.76 313.685 1365.85 314.613 1361.86 314.613H1356.61ZM1348.42 303.125C1348.42 306.133 1349.02 308.245 1350.21 309.461C1351.43 310.656 1353.56 311.253 1356.61 311.253H1361.86C1364.91 311.253 1367.04 310.656 1368.23 309.461C1369.43 308.245 1370.02 306.112 1370.02 303.061V295.893C1370.02 292.842 1369.43 290.72 1368.23 289.525C1367.04 288.33 1364.91 287.733 1361.86 287.733H1356.61C1354.57 287.712 1352.95 287.957 1351.75 288.469C1350.56 288.981 1349.7 289.834 1349.19 291.029C1348.68 292.224 1348.42 293.845 1348.42 295.893V303.125Z" fill="white"/>
<path d="M1308.19 314.613C1307.05 314.613 1306.49 314.048 1306.49 312.917V271.893C1306.49 270.784 1307.05 270.229 1308.19 270.229C1309.29 270.229 1309.85 270.784 1309.85 271.893V288.821C1310.81 287.349 1312.17 286.229 1313.95 285.461C1315.74 284.693 1318.04 284.309 1320.86 284.309H1323.29C1327.28 284.309 1330.19 285.237 1332.03 287.093C1333.88 288.949 1334.81 291.872 1334.81 295.861V303.061C1334.81 307.05 1333.88 309.973 1332.03 311.829C1330.19 313.685 1327.28 314.613 1323.29 314.613H1320.86C1318.04 314.613 1315.74 314.24 1313.95 313.493C1312.17 312.725 1310.81 311.594 1309.85 310.101V312.917C1309.85 314.048 1309.29 314.613 1308.19 314.613ZM1320.86 311.253H1323.29C1326.34 311.253 1328.46 310.656 1329.66 309.461C1330.85 308.245 1331.45 306.112 1331.45 303.061V295.861C1331.45 292.81 1330.84 290.688 1329.63 289.493C1328.43 288.277 1326.32 287.669 1323.29 287.669H1320.86C1317.53 287.669 1314.86 288.192 1312.86 289.237C1310.85 290.282 1309.85 291.872 1309.85 294.005V305.045C1309.89 307.114 1310.92 308.672 1312.92 309.717C1314.93 310.741 1317.57 311.253 1320.86 311.253Z" fill="white"/>
<path d="M1278.61 314.613C1274.63 314.613 1271.7 313.696 1269.85 311.861C1267.99 310.005 1267.06 307.093 1267.06 303.125V295.893C1267.06 291.861 1267.99 288.928 1269.85 287.093C1271.7 285.237 1274.63 284.33 1278.61 284.373H1283.86C1287.85 284.373 1290.76 285.301 1292.6 287.157C1294.45 288.992 1295.38 291.904 1295.38 295.893V303.061C1295.38 307.05 1294.45 309.973 1292.6 311.829C1290.76 313.685 1287.85 314.613 1283.86 314.613H1278.61ZM1270.42 303.125C1270.42 306.133 1271.02 308.245 1272.21 309.461C1273.43 310.656 1275.56 311.253 1278.61 311.253H1283.86C1286.91 311.253 1289.04 310.656 1290.23 309.461C1291.43 308.245 1292.02 306.112 1292.02 303.061V295.893C1292.02 292.842 1291.43 290.72 1290.23 289.525C1289.04 288.33 1286.91 287.733 1283.86 287.733H1278.61C1276.57 287.712 1274.95 287.957 1273.75 288.469C1272.56 288.981 1271.7 289.834 1271.19 291.029C1270.68 292.224 1270.42 293.845 1270.42 295.893V303.125Z" fill="white"/>
<path d="M1257.89 314.677C1257.42 314.954 1257 315.05 1256.61 314.965C1256.23 314.88 1255.89 314.613 1255.59 314.165L1245.09 297.461H1233.35V312.917C1233.35 314.048 1232.79 314.613 1231.69 314.613C1230.55 314.613 1229.99 314.048 1229.99 312.917V275.061C1229.99 273.93 1230.55 273.365 1231.69 273.365H1246.66C1250.31 273.365 1253.06 274.304 1254.92 276.181C1256.79 278.058 1257.73 280.821 1257.73 284.469V286.389C1257.73 289.61 1257 292.138 1255.53 293.973C1254.05 295.808 1251.88 296.928 1249 297.333L1258.44 312.373C1259.03 313.354 1258.85 314.122 1257.89 314.677ZM1233.35 294.101H1246.66C1249.35 294.101 1251.3 293.493 1252.52 292.277C1253.75 291.04 1254.37 289.077 1254.37 286.389V284.469C1254.37 281.76 1253.75 279.797 1252.52 278.581C1251.3 277.344 1249.35 276.725 1246.66 276.725H1233.35V294.101Z" fill="white"/>
<path d="M1185.74 314.613C1181.75 314.613 1178.83 313.685 1176.97 311.829C1175.12 309.973 1174.19 307.05 1174.19 303.061V295.893C1174.19 291.904 1175.12 288.992 1176.97 287.157C1178.83 285.301 1181.75 284.373 1185.74 284.373H1199.15V271.893C1199.15 270.784 1199.71 270.229 1200.84 270.229C1201.95 270.229 1202.51 270.784 1202.51 271.893V312.917C1202.51 314.048 1201.95 314.613 1200.84 314.613C1199.71 314.613 1199.15 314.048 1199.15 312.917V310.165C1198.23 311.637 1196.89 312.746 1195.12 313.493C1193.35 314.24 1191.03 314.613 1188.17 314.613H1185.74ZM1185.74 311.253H1188.17C1191.5 311.253 1194.16 310.73 1196.14 309.685C1198.15 308.618 1199.15 307.029 1199.15 304.917V287.733H1185.74C1182.69 287.733 1180.56 288.341 1179.34 289.557C1178.15 290.752 1177.55 292.864 1177.55 295.893V303.061C1177.55 306.112 1178.15 308.245 1179.34 309.461C1180.56 310.656 1182.69 311.253 1185.74 311.253Z" fill="white"/>
<path d="M1137.69 314.613C1136.55 314.613 1135.99 314.048 1135.99 312.917V286.037C1135.99 284.928 1136.55 284.373 1137.69 284.373C1138.79 284.373 1139.35 284.928 1139.35 286.037V289.109C1141.38 285.952 1145.05 284.373 1150.36 284.373H1152.15C1156.14 284.373 1159.05 285.301 1160.89 287.157C1162.74 288.992 1163.67 291.904 1163.67 295.893V312.917C1163.67 314.048 1163.11 314.613 1162.01 314.613C1160.87 314.613 1160.31 314.048 1160.31 312.917V295.893C1160.31 292.842 1159.7 290.72 1158.49 289.525C1157.29 288.33 1155.18 287.733 1152.15 287.733H1150.36C1147.05 287.733 1144.45 288.256 1142.55 289.301C1140.65 290.346 1139.58 291.978 1139.35 294.197V312.917C1139.35 314.048 1138.79 314.613 1137.69 314.613Z" fill="white"/>
<path d="M1106.67 314.613C1103.34 314.613 1100.9 313.845 1099.34 312.309C1097.8 310.752 1097.04 308.309 1097.04 304.981C1097.04 301.653 1097.82 299.21 1099.37 297.653C1100.93 296.096 1103.36 295.317 1106.67 295.317H1121.23C1121.19 292.501 1120.55 290.538 1119.31 289.429C1118.09 288.298 1116.01 287.733 1113.07 287.733H1109.36C1106.65 287.733 1104.66 288.021 1103.4 288.597C1102.15 289.173 1101.37 290.154 1101.07 291.541C1100.92 292.074 1100.72 292.469 1100.46 292.725C1100.23 292.96 1099.84 293.077 1099.31 293.077C1098.75 293.077 1098.32 292.928 1098 292.629C1097.7 292.309 1097.59 291.882 1097.68 291.349C1097.95 288.917 1099.05 287.146 1100.97 286.037C1102.91 284.928 1105.71 284.373 1109.36 284.373H1113.07C1117.06 284.373 1119.97 285.301 1121.8 287.157C1123.66 288.992 1124.59 291.904 1124.59 295.893V312.917C1124.59 314.048 1124.03 314.613 1122.92 314.613C1121.79 314.613 1121.23 314.048 1121.23 312.917V309.749C1119.18 312.992 1115.52 314.613 1110.25 314.613H1106.67ZM1106.67 311.253H1110.25C1112.32 311.253 1114.14 311.029 1115.69 310.581C1117.27 310.112 1118.54 309.365 1119.5 308.341C1120.46 307.317 1121.04 305.952 1121.23 304.245V298.677H1106.67C1104.3 298.677 1102.66 299.136 1101.74 300.053C1100.84 300.949 1100.4 302.592 1100.4 304.981C1100.4 307.349 1100.84 308.992 1101.74 309.909C1102.66 310.805 1104.3 311.253 1106.67 311.253Z" fill="white"/>
<path d="M1044.25 314.613C1043.12 314.613 1042.55 314.048 1042.55 312.917V286.037C1042.55 284.928 1043.12 284.373 1044.25 284.373C1045.36 284.373 1045.91 284.928 1045.91 286.037V289.109C1047.94 285.952 1051.61 284.373 1056.92 284.373H1058.71C1062.7 284.373 1065.61 285.301 1067.45 287.157C1069.3 288.992 1070.23 291.904 1070.23 295.893V312.917C1070.23 314.048 1069.68 314.613 1068.57 314.613C1067.44 314.613 1066.87 314.048 1066.87 312.917V295.893C1066.87 292.842 1066.26 290.72 1065.05 289.525C1063.85 288.33 1061.74 287.733 1058.71 287.733H1056.92C1053.61 287.733 1051.01 288.256 1049.11 289.301C1047.21 290.346 1046.15 291.978 1045.91 294.197V312.917C1045.91 314.048 1045.36 314.613 1044.25 314.613Z" fill="white"/>
<path d="M1014.68 314.613C1010.69 314.613 1007.77 313.696 1005.91 311.861C1004.05 310.005 1003.13 307.093 1003.13 303.125V295.893C1003.13 291.861 1004.05 288.928 1005.91 287.093C1007.77 285.237 1010.69 284.33 1014.68 284.373H1019.93C1023.91 284.373 1026.83 285.301 1028.66 287.157C1030.52 288.992 1031.45 291.904 1031.45 295.893V303.061C1031.45 307.05 1030.52 309.973 1028.66 311.829C1026.83 313.685 1023.91 314.613 1019.93 314.613H1014.68ZM1006.49 303.125C1006.49 306.133 1007.08 308.245 1008.28 309.461C1009.49 310.656 1011.63 311.253 1014.68 311.253H1019.93C1022.98 311.253 1025.1 310.656 1026.29 309.461C1027.49 308.245 1028.09 306.112 1028.09 303.061V295.893C1028.09 292.842 1027.49 290.72 1026.29 289.525C1025.1 288.33 1022.98 287.733 1019.93 287.733H1014.68C1012.63 287.712 1011.01 287.957 1009.81 288.469C1008.62 288.981 1007.77 289.834 1007.25 291.029C1006.74 292.224 1006.49 293.845 1006.49 295.893V303.125Z" fill="white"/>
<path d="M989.637 278.549C988.165 278.549 987.429 277.792 987.429 276.277V274.837C987.429 273.365 988.165 272.629 989.637 272.629H991.077C992.506 272.629 993.221 273.365 993.221 274.837V276.277C993.221 277.792 992.506 278.549 991.077 278.549H989.637ZM990.373 314.613C989.242 314.613 988.677 314.048 988.677 312.917V286.037C988.677 284.928 989.242 284.373 990.373 284.373C991.482 284.373 992.037 284.928 992.037 286.037V312.917C992.037 314.048 991.482 314.613 990.373 314.613Z" fill="white"/>
<path d="M978.091 314.613C974.166 314.613 971.297 313.706 969.483 311.893C967.67 310.08 966.763 307.221 966.763 303.317V287.733H962.955C961.825 287.733 961.259 287.168 961.259 286.037C961.259 284.928 961.825 284.373 962.955 284.373H966.763V277.493C966.763 276.362 967.318 275.797 968.427 275.797C969.558 275.797 970.123 276.362 970.123 277.493V284.373H978.155C979.265 284.373 979.819 284.928 979.819 286.037C979.819 287.168 979.265 287.733 978.155 287.733H970.123V303.317C970.123 306.304 970.699 308.373 971.851 309.525C973.025 310.677 975.105 311.253 978.091 311.253C978.71 311.253 979.147 311.392 979.403 311.669C979.681 311.946 979.819 312.362 979.819 312.917C979.819 314.048 979.243 314.613 978.091 314.613Z" fill="white"/>
<path d="M951.387 278.549C949.915 278.549 949.179 277.792 949.179 276.277V274.837C949.179 273.365 949.915 272.629 951.387 272.629H952.827C954.256 272.629 954.971 273.365 954.971 274.837V276.277C954.971 277.792 954.256 278.549 952.827 278.549H951.387ZM952.123 314.613C950.992 314.613 950.427 314.048 950.427 312.917V286.037C950.427 284.928 950.992 284.373 952.123 284.373C953.232 284.373 953.787 284.928 953.787 286.037V312.917C953.787 314.048 953.232 314.613 952.123 314.613Z" fill="white"/>
<path d="M913.06 314.613C911.93 314.613 911.364 314.048 911.364 312.917V286.037C911.364 284.928 911.93 284.373 913.06 284.373C914.17 284.373 914.724 284.928 914.724 286.037V289.109C916.751 285.952 920.42 284.373 925.732 284.373H927.524C931.514 284.373 934.426 285.301 936.26 287.157C938.116 288.992 939.044 291.904 939.044 295.893V312.917C939.044 314.048 938.49 314.613 937.38 314.613C936.25 314.613 935.684 314.048 935.684 312.917V295.893C935.684 292.842 935.076 290.72 933.86 289.525C932.666 288.33 930.554 287.733 927.524 287.733H925.732C922.426 287.733 919.823 288.256 917.924 289.301C916.026 290.346 914.959 291.978 914.724 294.197V312.917C914.724 314.048 914.17 314.613 913.06 314.613Z" fill="white"/>
<path d="M879.849 327.413C877.332 327.413 875.412 326.89 874.089 325.845C872.767 324.821 871.988 323.2 871.753 320.981C871.689 320.426 871.807 319.989 872.105 319.669C872.404 319.349 872.82 319.189 873.353 319.189C873.887 319.189 874.292 319.328 874.569 319.605C874.847 319.882 875.028 320.298 875.113 320.853C875.263 322.09 875.7 322.933 876.425 323.381C877.151 323.829 878.292 324.053 879.849 324.053H891.753C893.631 324.053 894.9 323.712 895.561 323.029C896.244 322.346 896.585 321.066 896.585 319.189V310.037C895.604 311.53 894.217 312.672 892.425 313.461C890.633 314.229 888.361 314.613 885.609 314.613H883.177C879.188 314.613 876.265 313.696 874.409 311.861C872.553 310.005 871.625 307.093 871.625 303.125V295.893C871.625 291.861 872.543 288.938 874.377 287.125C876.233 285.29 879.167 284.373 883.177 284.373H888.425C890.516 284.373 892.212 284.65 893.513 285.205C894.815 285.76 895.839 286.624 896.585 287.797V286.037C896.585 284.928 897.151 284.373 898.281 284.373C899.391 284.373 899.945 284.928 899.945 286.037V319.189C899.945 322.005 899.284 324.074 897.961 325.397C896.639 326.741 894.569 327.413 891.753 327.413H879.849ZM883.177 311.253H885.609C888.937 311.253 891.593 310.73 893.577 309.685C895.583 308.64 896.585 307.05 896.585 304.917V294.229C896.585 291.818 895.913 290.133 894.569 289.173C893.225 288.213 891.177 287.733 888.425 287.733H883.177C880.127 287.733 877.993 288.33 876.777 289.525C875.583 290.698 874.985 292.821 874.985 295.893V303.125C874.985 306.133 875.583 308.245 876.777 309.461C877.993 310.656 880.127 311.253 883.177 311.253Z" fill="white"/>
<path d="M844.615 314.613C840.626 314.613 837.703 313.696 835.847 311.861C833.991 310.005 833.063 307.093 833.063 303.125V295.893C833.063 291.861 833.991 288.928 835.847 287.093C837.703 285.237 840.626 284.33 844.615 284.373H849.863C853.852 284.373 856.764 285.301 858.599 287.157C860.455 288.992 861.383 291.904 861.383 295.893V303.061C861.383 307.05 860.455 309.973 858.599 311.829C856.764 313.685 853.852 314.613 849.863 314.613H844.615ZM836.423 303.125C836.423 306.133 837.02 308.245 838.215 309.461C839.431 310.656 841.564 311.253 844.615 311.253H849.863C852.914 311.253 855.036 310.656 856.231 309.461C857.426 308.245 858.023 306.112 858.023 303.061V295.893C858.023 292.842 857.426 290.72 856.231 289.525C855.036 288.33 852.914 287.733 849.863 287.733H844.615C842.567 287.712 840.946 287.957 839.751 288.469C838.556 288.981 837.703 289.834 837.191 291.029C836.679 292.224 836.423 293.845 836.423 295.893V303.125Z" fill="white"/>
<path d="M806.407 314.613C801.778 314.613 798.396 313.546 796.263 311.413C794.13 309.28 793.063 305.898 793.063 301.269V286.709C793.063 282.037 794.119 278.645 796.231 276.533C798.364 274.421 801.735 273.365 806.343 273.365H814.087C818.012 273.365 820.935 274.186 822.855 275.829C824.775 277.45 825.831 280.064 826.023 283.669C826.087 284.245 825.97 284.682 825.671 284.981C825.394 285.28 824.978 285.429 824.423 285.429C823.356 285.429 822.77 284.864 822.663 283.733C822.514 281.088 821.788 279.264 820.487 278.261C819.186 277.237 817.052 276.725 814.087 276.725H806.343C803.89 276.725 801.938 277.045 800.487 277.685C799.036 278.304 797.991 279.349 797.351 280.821C796.732 282.272 796.423 284.234 796.423 286.709V301.269C796.423 303.744 796.743 305.706 797.383 307.157C798.023 308.608 799.068 309.653 800.519 310.293C801.97 310.933 803.932 311.253 806.407 311.253H814.087C817.052 311.253 819.186 310.752 820.487 309.749C821.788 308.725 822.514 306.89 822.663 304.245C822.77 303.114 823.356 302.549 824.423 302.549C824.978 302.549 825.394 302.709 825.671 303.029C825.97 303.328 826.087 303.754 826.023 304.309C825.831 307.914 824.775 310.538 822.855 312.181C820.935 313.802 818.012 314.613 814.087 314.613H806.407Z" fill="white"/>
<path d="M746.349 327.413C743.832 327.413 741.912 326.89 740.589 325.845C739.267 324.821 738.488 323.2 738.253 320.981C738.189 320.426 738.307 319.989 738.605 319.669C738.904 319.349 739.32 319.189 739.853 319.189C740.387 319.189 740.792 319.328 741.069 319.605C741.347 319.882 741.528 320.298 741.613 320.853C741.763 322.09 742.2 322.933 742.925 323.381C743.651 323.829 744.792 324.053 746.349 324.053H758.253C760.131 324.053 761.4 323.712 762.061 323.029C762.744 322.346 763.085 321.066 763.085 319.189V310.037C762.104 311.53 760.717 312.672 758.925 313.461C757.133 314.229 754.861 314.613 752.109 314.613H749.677C745.688 314.613 742.765 313.696 740.909 311.861C739.053 310.005 738.125 307.093 738.125 303.125V295.893C738.125 291.861 739.043 288.938 740.877 287.125C742.733 285.29 745.667 284.373 749.677 284.373H754.925C757.016 284.373 758.712 284.65 760.013 285.205C761.315 285.76 762.339 286.624 763.085 287.797V286.037C763.085 284.928 763.651 284.373 764.781 284.373C765.891 284.373 766.445 284.928 766.445 286.037V319.189C766.445 322.005 765.784 324.074 764.461 325.397C763.139 326.741 761.069 327.413 758.253 327.413H746.349ZM749.677 311.253H752.109C755.437 311.253 758.093 310.73 760.077 309.685C762.083 308.64 763.085 307.05 763.085 304.917V294.229C763.085 291.818 762.413 290.133 761.069 289.173C759.725 288.213 757.677 287.733 754.925 287.733H749.677C746.627 287.733 744.493 288.33 743.277 289.525C742.083 290.698 741.485 292.821 741.485 295.893V303.125C741.485 306.133 742.083 308.245 743.277 309.461C744.493 310.656 746.627 311.253 749.677 311.253Z" fill="white"/>
<path d="M701.623 314.613C700.492 314.613 699.927 314.048 699.927 312.917V286.037C699.927 284.928 700.492 284.373 701.623 284.373C702.732 284.373 703.287 284.928 703.287 286.037V289.109C705.314 285.952 708.983 284.373 714.295 284.373H716.087C720.076 284.373 722.988 285.301 724.823 287.157C726.679 288.992 727.607 291.904 727.607 295.893V312.917C727.607 314.048 727.052 314.613 725.943 314.613C724.812 314.613 724.247 314.048 724.247 312.917V295.893C724.247 292.842 723.639 290.72 722.423 289.525C721.228 288.33 719.116 287.733 716.087 287.733H714.295C710.988 287.733 708.386 288.256 706.487 289.301C704.588 290.346 703.522 291.978 703.287 294.197V312.917C703.287 314.048 702.732 314.613 701.623 314.613Z" fill="white"/>
<path d="M685.574 278.549C684.102 278.549 683.366 277.792 683.366 276.277V274.837C683.366 273.365 684.102 272.629 685.574 272.629H687.014C688.444 272.629 689.158 273.365 689.158 274.837V276.277C689.158 277.792 688.444 278.549 687.014 278.549H685.574ZM686.31 314.613C685.18 314.613 684.614 314.048 684.614 312.917V286.037C684.614 284.928 685.18 284.373 686.31 284.373C687.42 284.373 687.974 284.928 687.974 286.037V312.917C687.974 314.048 687.42 314.613 686.31 314.613Z" fill="white"/>
<path d="M674.029 314.613C670.104 314.613 667.234 313.706 665.421 311.893C663.608 310.08 662.701 307.221 662.701 303.317V287.733H658.893C657.762 287.733 657.197 287.168 657.197 286.037C657.197 284.928 657.762 284.373 658.893 284.373H662.701V277.493C662.701 276.362 663.256 275.797 664.365 275.797C665.496 275.797 666.061 276.362 666.061 277.493V284.373H674.093C675.202 284.373 675.757 284.928 675.757 286.037C675.757 287.168 675.202 287.733 674.093 287.733H666.061V303.317C666.061 306.304 666.637 308.373 667.789 309.525C668.962 310.677 671.042 311.253 674.029 311.253C674.648 311.253 675.085 311.392 675.341 311.669C675.618 311.946 675.757 312.362 675.757 312.917C675.757 314.048 675.181 314.613 674.029 314.613Z" fill="white"/>
<path d="M635.802 314.613C631.813 314.613 628.89 313.685 627.034 311.829C625.178 309.973 624.25 307.05 624.25 303.061V295.829C624.25 291.84 625.168 288.928 627.002 287.093C628.858 285.237 631.792 284.33 635.802 284.373H641.05C644.186 284.373 646.576 284.906 648.218 285.973C649.882 287.018 650.874 288.672 651.194 290.933C651.258 291.509 651.13 291.946 650.81 292.245C650.512 292.544 650.085 292.693 649.53 292.693C649.018 292.693 648.634 292.565 648.378 292.309C648.122 292.032 647.93 291.637 647.802 291.125C647.568 289.888 646.938 289.013 645.914 288.501C644.89 287.989 643.269 287.733 641.05 287.733H635.802C632.752 287.69 630.618 288.266 629.402 289.461C628.208 290.634 627.61 292.757 627.61 295.829V303.061C627.61 306.112 628.208 308.245 629.402 309.461C630.618 310.656 632.752 311.253 635.802 311.253H641.05C643.269 311.253 644.89 310.997 645.914 310.485C646.938 309.973 647.568 309.088 647.802 307.829C647.93 307.317 648.122 306.933 648.378 306.677C648.634 306.4 649.018 306.261 649.53 306.261C650.085 306.261 650.512 306.421 650.81 306.741C651.13 307.04 651.258 307.466 651.194 308.021C650.874 310.282 649.882 311.946 648.218 313.013C646.576 314.08 644.186 314.613 641.05 314.613H635.802Z" fill="white"/>
<path d="M589.048 300.789V303.125C589.048 306.133 589.645 308.245 590.84 309.461C592.056 310.656 594.189 311.253 597.24 311.253H602.488C605.176 311.253 607.128 310.912 608.344 310.229C609.581 309.525 610.317 308.32 610.552 306.613C610.637 306.08 610.808 305.674 611.064 305.397C611.341 305.12 611.757 304.981 612.312 304.981C612.867 304.981 613.283 305.141 613.56 305.461C613.859 305.76 613.976 306.186 613.912 306.741C613.635 309.429 612.557 311.413 610.68 312.693C608.803 313.973 606.072 314.613 602.488 314.613H597.24C593.251 314.613 590.328 313.696 588.472 311.861C586.616 310.005 585.688 307.093 585.688 303.125V295.893C585.688 291.861 586.616 288.928 588.472 287.093C590.328 285.237 593.251 284.33 597.24 284.373H602.488C606.477 284.373 609.389 285.301 611.224 287.157C613.08 288.992 614.008 291.904 614.008 295.893V299.093C614.008 300.224 613.453 300.789 612.344 300.789H589.048ZM597.24 287.733C594.189 287.69 592.056 288.277 590.84 289.493C589.645 290.688 589.048 292.821 589.048 295.893V297.429H610.648V295.893C610.648 292.842 610.051 290.72 608.856 289.525C607.661 288.33 605.539 287.733 602.488 287.733H597.24Z" fill="white"/>
<path d="M549.185 314.613C548.055 314.613 547.489 314.048 547.489 312.917V286.037C547.489 284.928 548.055 284.373 549.185 284.373C550.295 284.373 550.849 284.928 550.849 286.037V289.109C552.876 285.952 556.545 284.373 561.857 284.373H563.649C567.639 284.373 570.551 285.301 572.385 287.157C574.241 288.992 575.169 291.904 575.169 295.893V312.917C575.169 314.048 574.615 314.613 573.505 314.613C572.375 314.613 571.809 314.048 571.809 312.917V295.893C571.809 292.842 571.201 290.72 569.985 289.525C568.791 288.33 566.679 287.733 563.649 287.733H561.857C558.551 287.733 555.948 288.256 554.049 289.301C552.151 290.346 551.084 291.978 550.849 294.197V312.917C550.849 314.048 550.295 314.613 549.185 314.613Z" fill="white"/>
<path d="M510.123 314.613C508.992 314.613 508.427 314.048 508.427 312.917V286.037C508.427 284.928 508.992 284.373 510.123 284.373C511.232 284.373 511.787 284.928 511.787 286.037V289.109C513.814 285.952 517.483 284.373 522.795 284.373H524.587C528.576 284.373 531.488 285.301 533.323 287.157C535.179 288.992 536.107 291.904 536.107 295.893V312.917C536.107 314.048 535.552 314.613 534.443 314.613C533.312 314.613 532.747 314.048 532.747 312.917V295.893C532.747 292.842 532.139 290.72 530.923 289.525C529.728 288.33 527.616 287.733 524.587 287.733H522.795C519.488 287.733 516.886 288.256 514.987 289.301C513.088 290.346 512.022 291.978 511.787 294.197V312.917C511.787 314.048 511.232 314.613 510.123 314.613Z" fill="white"/>
<path d="M480.552 314.613C476.563 314.613 473.64 313.696 471.784 311.861C469.928 310.005 469 307.093 469 303.125V295.893C469 291.861 469.928 288.928 471.784 287.093C473.64 285.237 476.563 284.33 480.552 284.373H485.8C489.79 284.373 492.702 285.301 494.536 287.157C496.392 288.992 497.32 291.904 497.32 295.893V303.061C497.32 307.05 496.392 309.973 494.536 311.829C492.702 313.685 489.79 314.613 485.8 314.613H480.552ZM472.36 303.125C472.36 306.133 472.958 308.245 474.152 309.461C475.368 310.656 477.502 311.253 480.552 311.253H485.8C488.851 311.253 490.974 310.656 492.168 309.461C493.363 308.245 493.96 306.112 493.96 303.061V295.893C493.96 292.842 493.363 290.72 492.168 289.525C490.974 288.33 488.851 287.733 485.8 287.733H480.552C478.504 287.712 476.883 287.957 475.688 288.469C474.494 288.981 473.64 289.834 473.128 291.029C472.616 292.224 472.36 293.845 472.36 295.893V303.125Z" fill="white"/>
<path d="M442.344 314.613C437.715 314.613 434.334 313.546 432.2 311.413C430.067 309.28 429 305.898 429 301.269V286.709C429 282.037 430.056 278.645 432.168 276.533C434.302 274.421 437.672 273.365 442.28 273.365H450.024C453.95 273.365 456.872 274.186 458.792 275.829C460.712 277.45 461.768 280.064 461.96 283.669C462.024 284.245 461.907 284.682 461.608 284.981C461.331 285.28 460.915 285.429 460.36 285.429C459.294 285.429 458.707 284.864 458.6 283.733C458.451 281.088 457.726 279.264 456.424 278.261C455.123 277.237 452.99 276.725 450.024 276.725H442.28C439.827 276.725 437.875 277.045 436.424 277.685C434.974 278.304 433.928 279.349 433.288 280.821C432.67 282.272 432.36 284.234 432.36 286.709V301.269C432.36 303.744 432.68 305.706 433.32 307.157C433.96 308.608 435.006 309.653 436.456 310.293C437.907 310.933 439.87 311.253 442.344 311.253H450.024C452.99 311.253 455.123 310.752 456.424 309.749C457.726 308.725 458.451 306.89 458.6 304.245C458.707 303.114 459.294 302.549 460.36 302.549C460.915 302.549 461.331 302.709 461.608 303.029C461.907 303.328 462.024 303.754 461.96 304.309C461.768 307.914 460.712 310.538 458.792 312.181C456.872 313.802 453.95 314.613 450.024 314.613H442.344Z" fill="white"/>
</svg>
