<svg width="1038" height="256" viewBox="0 0 1038 256" fill="none" xmlns="http://www.w3.org/2000/svg">
<path d="M958.603 146.54C946.789 146.54 937.707 144.082 931.357 139.165C925.075 134.18 921.319 126.464 920.09 116.016C919.885 113.49 920.431 111.578 921.729 110.281C923.094 108.915 925.006 108.232 927.465 108.232C929.923 108.232 931.732 108.847 932.893 110.076C934.122 111.305 934.908 113.149 935.249 115.607C936.069 121.616 938.22 125.781 941.702 128.103C945.253 130.356 950.886 131.483 958.603 131.483H988.102C997.252 131.483 1003.5 129.81 1006.85 126.464C1010.26 123.05 1011.97 116.87 1011.97 107.925C1011.97 98.8428 1010.23 92.5947 1006.74 89.1804C1003.33 85.6978 997.116 83.9566 988.102 83.9566H961.88C949.248 83.9566 939.892 80.9179 933.815 74.8405C927.806 68.7631 924.801 59.4422 924.801 46.8777C924.801 34.3132 927.772 25.0264 933.713 19.0173C939.722 13.0082 949.043 10.0037 961.675 10.0037H987.487C998.55 10.0037 1007.05 12.3595 1012.99 17.0712C1019 21.7146 1022.62 28.9187 1023.85 38.6835C1024.12 41.21 1023.58 43.1561 1022.21 44.5219C1020.91 45.8193 1019 46.468 1016.47 46.468C1014.08 46.468 1012.27 45.8534 1011.05 44.6243C1009.82 43.3269 1009.07 41.4832 1008.79 39.0932C1007.97 33.8352 1005.92 30.182 1002.65 28.1334C999.437 26.0848 994.384 25.0606 987.487 25.0606H961.675C953.208 25.0606 947.438 26.6311 944.365 29.7722C941.361 32.8451 939.858 38.5469 939.858 46.8777C939.858 55.2085 941.395 60.9786 944.468 64.188C947.609 67.3291 953.413 68.8997 961.88 68.8997H988.102C1001.35 68.8997 1011.15 72.0749 1017.5 78.4255C1023.85 84.776 1027.02 94.6091 1027.02 107.925C1027.02 121.172 1023.85 130.937 1017.5 137.219C1011.15 143.433 1001.35 146.54 988.102 146.54H958.603Z" fill="#229CF3"/>
<path d="M817.81 146.643C802.446 146.643 791.111 143.023 783.804 135.785C776.566 128.479 772.947 117.143 772.947 101.779V54.6623C772.947 39.1616 776.566 27.8263 783.804 20.6563C791.111 13.4181 802.412 9.86722 817.708 10.0038H842.393C857.757 10.0038 869.058 13.6229 876.297 20.8612C883.535 28.0994 887.154 39.4347 887.154 54.8672V101.779C887.154 117.143 883.535 128.479 876.297 135.785C869.058 143.023 857.757 146.643 842.393 146.643H817.81ZM817.81 131.586H842.393C849.836 131.586 855.709 130.664 860.011 128.82C864.381 126.976 867.488 123.904 869.331 119.602C871.175 115.231 872.097 109.291 872.097 101.779V54.8672C872.097 47.4241 871.175 41.5516 869.331 37.2496C867.488 32.8793 864.381 29.7724 860.011 27.9287C855.709 26.0167 849.836 25.0607 842.393 25.0607H817.708C810.265 24.9924 804.392 25.8801 800.09 27.7238C795.788 29.4992 792.681 32.5721 790.769 36.9423C788.926 41.2443 788.004 47.151 788.004 54.6623V101.779C788.004 109.291 788.926 115.231 790.769 119.602C792.613 123.904 795.686 126.976 799.988 128.82C804.358 130.664 810.299 131.586 817.81 131.586Z" fill="#229CF3"/>
<path d="M740.63 146.95C738.649 148.247 736.772 148.657 734.996 148.179C733.221 147.701 731.684 146.472 730.387 144.491L698.02 91.4338H666.369V139.063C666.369 144.116 663.877 146.642 658.892 146.642C653.839 146.642 651.313 144.116 651.313 139.063V17.5833C651.313 12.5302 653.839 10.0037 658.892 10.0037H706.828C719.052 10.0037 728.372 13.2472 734.791 19.7343C741.21 26.1531 744.419 35.4741 744.419 47.6971V53.8428C744.419 64.4953 741.927 72.9627 736.942 79.2449C732.026 85.5271 724.856 89.3853 715.432 90.8192L743.395 136.707C745.785 140.941 744.863 144.355 740.63 146.95ZM666.369 76.3769H706.828C714.886 76.3769 720.656 74.6356 724.139 71.1531C727.621 67.6705 729.363 61.9004 729.363 53.8428V47.6971C729.363 39.6395 727.621 33.8694 724.139 30.3868C720.656 26.836 714.886 25.0606 706.828 25.0606H666.369V76.3769Z" fill="#229CF3"/>
<path d="M555.121 161.597C550.068 161.597 547.542 159.104 547.542 154.12C547.542 149.066 550.068 146.54 555.121 146.54H606.95C611.935 146.54 614.427 149.066 614.427 154.12C614.427 159.104 611.935 161.597 606.95 161.597H555.121Z" fill="#229CF3"/>
<path d="M521.369 146.95C519.389 148.247 517.511 148.657 515.736 148.179C513.96 147.701 512.424 146.472 511.127 144.491L478.759 91.4338H447.109V139.063C447.109 144.116 444.617 146.642 439.632 146.642C434.579 146.642 432.052 144.116 432.052 139.063V17.5833C432.052 12.5302 434.579 10.0037 439.632 10.0037H487.568C499.791 10.0037 509.112 13.2472 515.531 19.7343C521.95 26.1531 525.159 35.4741 525.159 47.6971V53.8428C525.159 64.4953 522.667 72.9627 517.682 79.2449C512.766 85.5271 505.596 89.3853 496.172 90.8192L524.135 136.707C526.525 140.941 525.603 144.355 521.369 146.95ZM447.109 76.3769H487.568C495.626 76.3769 501.396 74.6356 504.879 71.1531C508.361 67.6705 510.102 61.9004 510.102 53.8428V47.6971C510.102 39.6395 508.361 33.8694 504.879 30.3868C501.396 26.836 495.626 25.0606 487.568 25.0606H447.109V76.3769Z" fill="#229CF3"/>
<path d="M291.232 145.925C286.452 144.013 285.018 140.702 286.93 135.99L336.403 15.9445C338.11 11.9839 340.91 10.0037 344.802 10.0037H345.314C349.206 10.2085 351.869 12.1888 353.303 15.9445L403.288 135.99C405.2 140.702 403.834 144.013 399.191 145.925C394.479 147.769 391.202 146.403 389.358 141.828L377.374 113.149H312.537L300.963 141.828C299.051 146.472 295.807 147.837 291.232 145.925ZM318.478 98.0916H371.228L344.495 33.8694L318.478 98.0916Z" fill="#229CF3"/>
<path d="M194.641 146.643C179.277 146.643 167.941 143.023 160.635 135.785C153.396 128.479 149.777 117.143 149.777 101.779V54.6623C149.777 39.1616 153.396 27.8263 160.635 20.6563C167.941 13.4181 179.242 9.86722 194.538 10.0038H219.223C234.588 10.0038 245.889 13.6229 253.127 20.8612C260.365 28.0994 263.984 39.4347 263.984 54.8672V101.779C263.984 117.143 260.365 128.479 253.127 135.785C245.889 143.023 234.588 146.643 219.223 146.643H194.641ZM194.641 131.586H219.223C226.667 131.586 232.539 130.664 236.841 128.82C241.211 126.976 244.318 123.904 246.162 119.602C248.006 115.231 248.928 109.291 248.928 101.779V54.8672C248.928 47.4241 248.006 41.5516 246.162 37.2496C244.318 32.8793 241.211 29.7724 236.841 27.9287C232.539 26.0167 226.667 25.0607 219.223 25.0607H194.538C187.095 24.9924 181.223 25.8801 176.921 27.7238C172.619 29.4992 169.512 32.5721 167.6 36.9423C165.756 41.2443 164.834 47.151 164.834 54.6623V101.779C164.834 109.291 165.756 115.231 167.6 119.602C169.444 123.904 172.516 126.976 176.818 128.82C181.189 130.664 187.129 131.586 194.641 131.586Z" fill="#229CF3"/>
<path d="M48.5548 146.54C36.7414 146.54 27.6595 144.082 21.309 139.165C15.0267 134.18 11.271 126.464 10.0419 116.017C9.83705 113.49 10.3833 111.578 11.6807 110.281C13.0465 108.915 14.9584 108.232 17.4167 108.232C19.875 108.232 21.6845 108.847 22.8454 110.076C24.0745 111.305 24.8598 113.149 25.2012 115.607C26.0206 121.616 28.1716 125.781 31.6542 128.103C35.205 130.356 40.8385 131.483 48.5548 131.483H78.054C87.2042 131.483 93.4523 129.81 96.7983 126.464C100.213 123.05 101.92 116.87 101.92 107.925C101.92 98.8428 100.178 92.5947 96.6959 89.1805C93.2816 85.6979 87.0677 83.9566 78.054 83.9566H51.8325C39.1997 83.9566 29.8446 80.9179 23.7672 74.8406C17.7581 68.7632 14.7536 59.4422 14.7536 46.8778C14.7536 34.3133 17.724 25.0265 23.6648 19.0174C29.6739 13.0083 38.9948 10.0037 51.6276 10.0037H77.4394C88.5016 10.0037 97.0032 12.3596 102.944 17.0712C108.953 21.7146 112.572 28.9187 113.801 38.6835C114.074 41.2101 113.528 43.1562 112.162 44.5219C110.865 45.8193 108.953 46.468 106.427 46.468C104.037 46.468 102.227 45.8535 100.998 44.6243C99.7687 43.3269 99.0176 41.4832 98.7444 39.0932C97.925 33.8353 95.8765 30.182 92.5988 28.1335C89.3893 26.0849 84.3362 25.0606 77.4394 25.0606H51.6276C43.1602 25.0606 37.3901 26.6312 34.3173 29.7723C31.3128 32.8451 29.8105 38.547 29.8105 46.8778C29.8105 55.2086 31.3469 60.9787 34.4197 64.1881C37.5609 67.3292 43.3651 68.8997 51.8325 68.8997H78.054C91.3013 68.8997 101.1 72.075 107.451 78.4255C113.801 84.7761 116.977 94.6091 116.977 107.925C116.977 121.172 113.801 130.937 107.451 137.219C101.1 143.433 91.3013 146.54 78.054 146.54H48.5548Z" fill="#229CF3"/>
<path d="M1023.5 233.026C1022.27 233.026 1021.65 232.397 1021.65 231.138V229.922C1021.65 228.706 1022.27 228.098 1023.5 228.098H1024.69C1025.9 228.098 1026.51 228.706 1026.51 229.922V231.138C1026.51 232.397 1025.9 233.026 1024.69 233.026H1023.5Z" fill="#777777"/>
<path d="M993.8 232.962C991.176 232.962 989.171 232.407 987.784 231.298C986.398 230.167 985.566 228.45 985.288 226.146C985.224 225.591 985.342 225.165 985.64 224.866C985.939 224.546 986.376 224.386 986.952 224.386C987.486 224.386 987.88 224.525 988.136 224.802C988.414 225.079 988.595 225.495 988.68 226.05C988.872 227.373 989.352 228.301 990.12 228.834C990.91 229.346 992.136 229.602 993.8 229.602H1004.3C1006.28 229.602 1007.65 229.229 1008.39 228.482C1009.14 227.735 1009.51 226.37 1009.51 224.386C1009.51 222.381 1009.14 221.005 1008.39 220.258C1007.65 219.511 1006.28 219.138 1004.3 219.138H993.929C991.155 219.138 989.086 218.477 987.72 217.154C986.376 215.81 985.705 213.751 985.705 210.978C985.705 208.141 986.376 206.061 987.72 204.738C989.064 203.394 991.134 202.722 993.929 202.722H1003.98C1008.8 202.722 1011.48 204.855 1012.01 209.122C1012.09 209.677 1011.98 210.114 1011.66 210.434C1011.36 210.733 1010.93 210.882 1010.38 210.882C1009.84 210.882 1009.44 210.743 1009.16 210.466C1008.9 210.189 1008.72 209.783 1008.62 209.25C1008.47 208.055 1008.03 207.234 1007.3 206.786C1006.6 206.317 1005.49 206.082 1003.98 206.082H993.929C992.073 206.082 990.792 206.423 990.088 207.106C989.406 207.789 989.064 209.079 989.064 210.978C989.064 212.791 989.416 214.05 990.12 214.754C990.824 215.437 992.094 215.778 993.929 215.778H1004.3C1007.24 215.778 1009.41 216.482 1010.79 217.89C1012.18 219.277 1012.87 221.442 1012.87 224.386C1012.87 227.309 1012.18 229.474 1010.79 230.882C1009.41 232.269 1007.24 232.962 1004.3 232.962H993.8Z" fill="#777777"/>
<path d="M976.591 233.026C972.666 233.026 969.796 232.119 967.983 230.306C966.17 228.493 965.263 225.634 965.263 221.73V206.146H961.455C960.324 206.146 959.759 205.581 959.759 204.45C959.759 203.341 960.324 202.786 961.455 202.786H965.263V195.906C965.263 194.775 965.818 194.21 966.927 194.21C968.058 194.21 968.623 194.775 968.623 195.906V202.786H976.655C977.764 202.786 978.319 203.341 978.319 204.45C978.319 205.581 977.764 206.146 976.655 206.146H968.623V221.73C968.623 224.717 969.199 226.786 970.351 227.938C971.524 229.09 973.604 229.666 976.591 229.666C977.21 229.666 977.647 229.805 977.903 230.082C978.18 230.359 978.319 230.775 978.319 231.33C978.319 232.461 977.743 233.026 976.591 233.026Z" fill="#777777"/>
<path d="M937.615 233.026C933.625 233.026 930.702 232.109 928.846 230.274C926.99 228.418 926.062 225.506 926.062 221.538V214.306C926.062 210.274 926.99 207.341 928.846 205.506C930.702 203.65 933.625 202.743 937.615 202.786H942.862C946.852 202.786 949.764 203.714 951.599 205.57C953.455 207.405 954.383 210.317 954.383 214.306V221.474C954.383 225.463 953.455 228.386 951.599 230.242C949.764 232.098 946.852 233.026 942.862 233.026H937.615ZM929.422 221.538C929.422 224.546 930.02 226.658 931.214 227.874C932.43 229.069 934.564 229.666 937.615 229.666H942.862C945.913 229.666 948.036 229.069 949.231 227.874C950.425 226.658 951.023 224.525 951.023 221.474V214.306C951.023 211.255 950.425 209.133 949.231 207.938C948.036 206.743 945.913 206.146 942.862 206.146H937.615C935.567 206.125 933.945 206.37 932.75 206.882C931.556 207.394 930.702 208.247 930.19 209.442C929.678 210.637 929.422 212.258 929.422 214.306V221.538Z" fill="#777777"/>
<path d="M889.185 233.026C888.054 233.026 887.489 232.461 887.489 231.33V190.306C887.489 189.197 888.054 188.642 889.185 188.642C890.294 188.642 890.849 189.197 890.849 190.306V207.234C891.809 205.762 893.174 204.642 894.945 203.874C896.737 203.106 899.041 202.722 901.857 202.722H904.289C908.278 202.722 911.19 203.65 913.025 205.506C914.881 207.362 915.809 210.285 915.809 214.274V221.474C915.809 225.463 914.881 228.386 913.025 230.242C911.19 232.098 908.278 233.026 904.289 233.026H901.857C899.041 233.026 896.737 232.653 894.945 231.906C893.174 231.138 891.809 230.007 890.849 228.514V231.33C890.849 232.461 890.294 233.026 889.185 233.026ZM901.857 229.666H904.289C907.34 229.666 909.462 229.069 910.657 227.874C911.852 226.658 912.449 224.525 912.449 221.474V214.274C912.449 211.223 911.841 209.101 910.625 207.906C909.43 206.69 907.318 206.082 904.289 206.082H901.857C898.529 206.082 895.862 206.605 893.857 207.65C891.852 208.695 890.849 210.285 890.849 212.418V223.458C890.892 225.527 891.916 227.085 893.921 228.13C895.926 229.154 898.572 229.666 901.857 229.666Z" fill="#777777"/>
<path d="M859.615 233.026C855.625 233.026 852.702 232.109 850.846 230.274C848.99 228.418 848.062 225.506 848.062 221.538V214.306C848.062 210.274 848.99 207.341 850.846 205.506C852.702 203.65 855.625 202.743 859.615 202.786H864.862C868.852 202.786 871.764 203.714 873.599 205.57C875.455 207.405 876.383 210.317 876.383 214.306V221.474C876.383 225.463 875.455 228.386 873.599 230.242C871.764 232.098 868.852 233.026 864.862 233.026H859.615ZM851.422 221.538C851.422 224.546 852.02 226.658 853.214 227.874C854.43 229.069 856.564 229.666 859.615 229.666H864.862C867.913 229.666 870.036 229.069 871.231 227.874C872.425 226.658 873.023 224.525 873.023 221.474V214.306C873.023 211.255 872.425 209.133 871.231 207.938C870.036 206.743 867.913 206.146 864.862 206.146H859.615C857.567 206.125 855.945 206.37 854.75 206.882C853.556 207.394 852.702 208.247 852.19 209.442C851.678 210.637 851.422 212.258 851.422 214.306V221.538Z" fill="#777777"/>
<path d="M838.893 233.09C838.424 233.367 837.997 233.463 837.613 233.378C837.229 233.293 836.888 233.026 836.589 232.578L826.093 215.874H814.349V231.33C814.349 232.461 813.794 233.026 812.685 233.026C811.554 233.026 810.989 232.461 810.989 231.33V193.474C810.989 192.343 811.554 191.778 812.685 191.778H827.661C831.309 191.778 834.061 192.717 835.917 194.594C837.794 196.471 838.733 199.234 838.733 202.882V204.802C838.733 208.023 837.997 210.551 836.525 212.386C835.053 214.221 832.877 215.341 829.997 215.746L839.437 230.786C840.034 231.767 839.853 232.535 838.893 233.09ZM814.349 212.514H827.661C830.349 212.514 832.301 211.906 833.517 210.69C834.754 209.453 835.373 207.49 835.373 204.802V202.882C835.373 200.173 834.754 198.21 833.517 196.994C832.301 195.757 830.349 195.138 827.661 195.138H814.349V212.514Z" fill="#777777"/>
<path d="M766.74 233.026C762.75 233.026 759.827 232.098 757.971 230.242C756.115 228.386 755.188 225.463 755.188 221.474V214.306C755.188 210.317 756.115 207.405 757.971 205.57C759.827 203.714 762.75 202.786 766.74 202.786H780.148V190.306C780.148 189.197 780.713 188.642 781.844 188.642C782.953 188.642 783.508 189.197 783.508 190.306V231.33C783.508 232.461 782.953 233.026 781.844 233.026C780.713 233.026 780.148 232.461 780.148 231.33V228.578C779.23 230.05 777.886 231.159 776.115 231.906C774.345 232.653 772.03 233.026 769.172 233.026H766.74ZM766.74 229.666H769.172C772.5 229.666 775.156 229.143 777.14 228.098C779.145 227.031 780.148 225.442 780.148 223.33V206.146H766.74C763.689 206.146 761.555 206.754 760.339 207.97C759.145 209.165 758.547 211.277 758.547 214.306V221.474C758.547 224.525 759.145 226.658 760.339 227.874C761.555 229.069 763.689 229.666 766.74 229.666Z" fill="#777777"/>
<path d="M718.685 233.026C717.554 233.026 716.989 232.461 716.989 231.33V204.45C716.989 203.341 717.554 202.786 718.685 202.786C719.794 202.786 720.349 203.341 720.349 204.45V207.522C722.376 204.365 726.045 202.786 731.357 202.786H733.149C737.138 202.786 740.05 203.714 741.885 205.57C743.741 207.405 744.669 210.317 744.669 214.306V231.33C744.669 232.461 744.114 233.026 743.005 233.026C741.874 233.026 741.309 232.461 741.309 231.33V214.306C741.309 211.255 740.701 209.133 739.485 207.938C738.29 206.743 736.178 206.146 733.149 206.146H731.357C728.05 206.146 725.448 206.669 723.549 207.714C721.65 208.759 720.584 210.391 720.349 212.61V231.33C720.349 232.461 719.794 233.026 718.685 233.026Z" fill="#777777"/>
<path d="M687.669 233.026C684.341 233.026 681.898 232.258 680.341 230.722C678.805 229.165 678.036 226.722 678.036 223.394C678.036 220.066 678.815 217.623 680.372 216.066C681.93 214.509 684.362 213.73 687.669 213.73H702.229C702.186 210.914 701.546 208.951 700.309 207.842C699.093 206.711 697.012 206.146 694.068 206.146H690.357C687.647 206.146 685.663 206.434 684.404 207.01C683.146 207.586 682.367 208.567 682.068 209.954C681.919 210.487 681.717 210.882 681.461 211.138C681.226 211.373 680.842 211.49 680.309 211.49C679.754 211.49 679.317 211.341 678.997 211.042C678.698 210.722 678.591 210.295 678.677 209.762C678.954 207.33 680.053 205.559 681.973 204.45C683.914 203.341 686.709 202.786 690.357 202.786H694.068C698.058 202.786 700.97 203.714 702.805 205.57C704.661 207.405 705.589 210.317 705.589 214.306V231.33C705.589 232.461 705.034 233.026 703.924 233.026C702.794 233.026 702.229 232.461 702.229 231.33V228.162C700.181 231.405 696.522 233.026 691.253 233.026H687.669ZM687.669 229.666H691.253C693.322 229.666 695.135 229.442 696.693 228.994C698.271 228.525 699.54 227.778 700.5 226.754C701.46 225.73 702.037 224.365 702.229 222.658V217.09H687.669C685.301 217.09 683.658 217.549 682.74 218.466C681.844 219.362 681.396 221.005 681.396 223.394C681.396 225.762 681.844 227.405 682.74 228.322C683.658 229.218 685.301 229.666 687.669 229.666Z" fill="#777777"/>
<path d="M625.247 233.026C624.117 233.026 623.552 232.461 623.552 231.33V204.45C623.552 203.341 624.117 202.786 625.247 202.786C626.357 202.786 626.911 203.341 626.911 204.45V207.522C628.938 204.365 632.607 202.786 637.919 202.786H639.711C643.701 202.786 646.613 203.714 648.448 205.57C650.304 207.405 651.232 210.317 651.232 214.306V231.33C651.232 232.461 650.677 233.026 649.568 233.026C648.437 233.026 647.872 232.461 647.872 231.33V214.306C647.872 211.255 647.263 209.133 646.047 207.938C644.853 206.743 642.741 206.146 639.711 206.146H637.919C634.613 206.146 632.01 206.669 630.112 207.714C628.213 208.759 627.146 210.391 626.911 212.61V231.33C626.911 232.461 626.357 233.026 625.247 233.026Z" fill="#777777"/>
<path d="M595.677 233.026C591.688 233.026 588.765 232.109 586.909 230.274C585.053 228.418 584.125 225.506 584.125 221.538V214.306C584.125 210.274 585.053 207.341 586.909 205.506C588.765 203.65 591.688 202.743 595.677 202.786H600.925C604.914 202.786 607.826 203.714 609.661 205.57C611.517 207.405 612.445 210.317 612.445 214.306V221.474C612.445 225.463 611.517 228.386 609.661 230.242C607.826 232.098 604.914 233.026 600.925 233.026H595.677ZM587.485 221.538C587.485 224.546 588.082 226.658 589.277 227.874C590.493 229.069 592.626 229.666 595.677 229.666H600.925C603.976 229.666 606.098 229.069 607.293 227.874C608.488 226.658 609.085 224.525 609.085 221.474V214.306C609.085 211.255 608.488 209.133 607.293 207.938C606.098 206.743 603.976 206.146 600.925 206.146H595.677C593.629 206.125 592.008 206.37 590.813 206.882C589.618 207.394 588.765 208.247 588.253 209.442C587.741 210.637 587.485 212.258 587.485 214.306V221.538Z" fill="#777777"/>
<path d="M570.636 196.962C569.164 196.962 568.429 196.205 568.429 194.69V193.25C568.429 191.778 569.164 191.042 570.636 191.042H572.076C573.506 191.042 574.221 191.778 574.221 193.25V194.69C574.221 196.205 573.506 196.962 572.076 196.962H570.636ZM571.372 233.026C570.242 233.026 569.677 232.461 569.677 231.33V204.45C569.677 203.341 570.242 202.786 571.372 202.786C572.482 202.786 573.036 203.341 573.036 204.45V231.33C573.036 232.461 572.482 233.026 571.372 233.026Z" fill="#777777"/>
<path d="M559.091 233.026C555.166 233.026 552.296 232.119 550.483 230.306C548.67 228.493 547.763 225.634 547.763 221.73V206.146H543.955C542.824 206.146 542.259 205.581 542.259 204.45C542.259 203.341 542.824 202.786 543.955 202.786H547.763V195.906C547.763 194.775 548.318 194.21 549.427 194.21C550.558 194.21 551.123 194.775 551.123 195.906V202.786H559.155C560.264 202.786 560.819 203.341 560.819 204.45C560.819 205.581 560.264 206.146 559.155 206.146H551.123V221.73C551.123 224.717 551.699 226.786 552.851 227.938C554.024 229.09 556.104 229.666 559.091 229.666C559.71 229.666 560.147 229.805 560.403 230.082C560.68 230.359 560.819 230.775 560.819 231.33C560.819 232.461 560.243 233.026 559.091 233.026Z" fill="#777777"/>
<path d="M532.386 196.962C530.914 196.962 530.179 196.205 530.179 194.69V193.25C530.179 191.778 530.914 191.042 532.386 191.042H533.826C535.256 191.042 535.971 191.778 535.971 193.25V194.69C535.971 196.205 535.256 196.962 533.826 196.962H532.386ZM533.122 233.026C531.992 233.026 531.427 232.461 531.427 231.33V204.45C531.427 203.341 531.992 202.786 533.122 202.786C534.232 202.786 534.786 203.341 534.786 204.45V231.33C534.786 232.461 534.232 233.026 533.122 233.026Z" fill="#777777"/>
<path d="M494.06 233.026C492.929 233.026 492.364 232.461 492.364 231.33V204.45C492.364 203.341 492.929 202.786 494.06 202.786C495.169 202.786 495.724 203.341 495.724 204.45V207.522C497.751 204.365 501.42 202.786 506.732 202.786H508.524C512.513 202.786 515.425 203.714 517.26 205.57C519.116 207.405 520.044 210.317 520.044 214.306V231.33C520.044 232.461 519.489 233.026 518.38 233.026C517.249 233.026 516.684 232.461 516.684 231.33V214.306C516.684 211.255 516.076 209.133 514.86 207.938C513.665 206.743 511.553 206.146 508.524 206.146H506.732C503.425 206.146 500.823 206.669 498.924 207.714C497.025 208.759 495.959 210.391 495.724 212.61V231.33C495.724 232.461 495.169 233.026 494.06 233.026Z" fill="#777777"/>
<path d="M460.849 245.826C458.332 245.826 456.412 245.303 455.089 244.258C453.766 243.234 452.988 241.613 452.753 239.394C452.689 238.839 452.806 238.402 453.105 238.082C453.404 237.762 453.82 237.602 454.353 237.602C454.886 237.602 455.292 237.741 455.569 238.018C455.846 238.295 456.028 238.711 456.113 239.266C456.262 240.503 456.7 241.346 457.425 241.794C458.15 242.242 459.292 242.466 460.849 242.466H472.753C474.63 242.466 475.9 242.125 476.561 241.442C477.244 240.759 477.585 239.479 477.585 237.602V228.45C476.604 229.943 475.217 231.085 473.425 231.874C471.633 232.642 469.361 233.026 466.609 233.026H464.177C460.188 233.026 457.265 232.109 455.409 230.274C453.553 228.418 452.625 225.506 452.625 221.538V214.306C452.625 210.274 453.542 207.351 455.377 205.538C457.233 203.703 460.166 202.786 464.177 202.786H469.425C471.516 202.786 473.212 203.063 474.513 203.618C475.814 204.173 476.838 205.037 477.585 206.21V204.45C477.585 203.341 478.15 202.786 479.281 202.786C480.39 202.786 480.945 203.341 480.945 204.45V237.602C480.945 240.418 480.284 242.487 478.961 243.81C477.638 245.154 475.569 245.826 472.753 245.826H460.849ZM464.177 229.666H466.609C469.937 229.666 472.593 229.143 474.577 228.098C476.582 227.053 477.585 225.463 477.585 223.33V212.642C477.585 210.231 476.913 208.546 475.569 207.586C474.225 206.626 472.177 206.146 469.425 206.146H464.177C461.126 206.146 458.993 206.743 457.777 207.938C456.582 209.111 455.985 211.234 455.985 214.306V221.538C455.985 224.546 456.582 226.658 457.777 227.874C458.993 229.069 461.126 229.666 464.177 229.666Z" fill="#777777"/>
<path d="M425.615 233.026C421.625 233.026 418.702 232.109 416.846 230.274C414.99 228.418 414.062 225.506 414.062 221.538V214.306C414.062 210.274 414.99 207.341 416.846 205.506C418.702 203.65 421.625 202.743 425.615 202.786H430.863C434.852 202.786 437.764 203.714 439.599 205.57C441.455 207.405 442.383 210.317 442.383 214.306V221.474C442.383 225.463 441.455 228.386 439.599 230.242C437.764 232.098 434.852 233.026 430.863 233.026H425.615ZM417.423 221.538C417.423 224.546 418.02 226.658 419.215 227.874C420.431 229.069 422.564 229.666 425.615 229.666H430.863C433.913 229.666 436.036 229.069 437.23 227.874C438.425 226.658 439.023 224.525 439.023 221.474V214.306C439.023 211.255 438.425 209.133 437.23 207.938C436.036 206.743 433.913 206.146 430.863 206.146H425.615C423.567 206.125 421.945 206.37 420.751 206.882C419.556 207.394 418.702 208.247 418.19 209.442C417.678 210.637 417.423 212.258 417.423 214.306V221.538Z" fill="#777777"/>
<path d="M387.406 233.026C382.777 233.026 379.396 231.959 377.263 229.826C375.129 227.693 374.062 224.311 374.062 219.682V205.122C374.062 200.45 375.118 197.058 377.23 194.946C379.364 192.834 382.734 191.778 387.342 191.778H395.087C399.012 191.778 401.934 192.599 403.854 194.242C405.774 195.863 406.831 198.477 407.023 202.082C407.087 202.658 406.969 203.095 406.671 203.394C406.393 203.693 405.977 203.842 405.423 203.842C404.356 203.842 403.769 203.277 403.663 202.146C403.513 199.501 402.788 197.677 401.487 196.674C400.185 195.65 398.052 195.138 395.087 195.138H387.342C384.889 195.138 382.937 195.458 381.487 196.098C380.036 196.717 378.99 197.762 378.35 199.234C377.732 200.685 377.423 202.647 377.423 205.122V219.682C377.423 222.157 377.743 224.119 378.383 225.57C379.023 227.021 380.068 228.066 381.518 228.706C382.969 229.346 384.932 229.666 387.406 229.666H395.087C398.052 229.666 400.185 229.165 401.487 228.162C402.788 227.138 403.513 225.303 403.663 222.658C403.769 221.527 404.356 220.962 405.423 220.962C405.977 220.962 406.393 221.122 406.671 221.442C406.969 221.741 407.087 222.167 407.023 222.722C406.831 226.327 405.774 228.951 403.854 230.594C401.934 232.215 399.012 233.026 395.087 233.026H387.406Z" fill="#777777"/>
<path d="M327.349 245.826C324.832 245.826 322.912 245.303 321.589 244.258C320.266 243.234 319.488 241.613 319.253 239.394C319.189 238.839 319.306 238.402 319.605 238.082C319.904 237.762 320.32 237.602 320.853 237.602C321.386 237.602 321.792 237.741 322.069 238.018C322.346 238.295 322.528 238.711 322.613 239.266C322.762 240.503 323.2 241.346 323.925 241.794C324.65 242.242 325.792 242.466 327.349 242.466H339.253C341.13 242.466 342.4 242.125 343.061 241.442C343.744 240.759 344.085 239.479 344.085 237.602V228.45C343.104 229.943 341.717 231.085 339.925 231.874C338.133 232.642 335.861 233.026 333.109 233.026H330.677C326.688 233.026 323.765 232.109 321.909 230.274C320.053 228.418 319.125 225.506 319.125 221.538V214.306C319.125 210.274 320.042 207.351 321.877 205.538C323.733 203.703 326.666 202.786 330.677 202.786H335.925C338.016 202.786 339.712 203.063 341.013 203.618C342.314 204.173 343.338 205.037 344.085 206.21V204.45C344.085 203.341 344.65 202.786 345.781 202.786C346.89 202.786 347.445 203.341 347.445 204.45V237.602C347.445 240.418 346.784 242.487 345.461 243.81C344.138 245.154 342.069 245.826 339.253 245.826H327.349ZM330.677 229.666H333.109C336.437 229.666 339.093 229.143 341.077 228.098C343.082 227.053 344.085 225.463 344.085 223.33V212.642C344.085 210.231 343.413 208.546 342.069 207.586C340.725 206.626 338.677 206.146 335.925 206.146H330.677C327.626 206.146 325.493 206.743 324.277 207.938C323.082 209.111 322.485 211.234 322.485 214.306V221.538C322.485 224.546 323.082 226.658 324.277 227.874C325.493 229.069 327.626 229.666 330.677 229.666Z" fill="#777777"/>
<path d="M282.622 233.026C281.492 233.026 280.927 232.461 280.927 231.33V204.45C280.927 203.341 281.492 202.786 282.622 202.786C283.732 202.786 284.286 203.341 284.286 204.45V207.522C286.313 204.365 289.982 202.786 295.294 202.786H297.087C301.076 202.786 303.988 203.714 305.823 205.57C307.679 207.405 308.607 210.317 308.607 214.306V231.33C308.607 232.461 308.052 233.026 306.943 233.026C305.812 233.026 305.247 232.461 305.247 231.33V214.306C305.247 211.255 304.639 209.133 303.423 207.938C302.228 206.743 300.116 206.146 297.087 206.146H295.294C291.988 206.146 289.385 206.669 287.487 207.714C285.588 208.759 284.521 210.391 284.286 212.61V231.33C284.286 232.461 283.732 233.026 282.622 233.026Z" fill="#777777"/>
<path d="M266.574 196.962C265.102 196.962 264.366 196.205 264.366 194.69V193.25C264.366 191.778 265.102 191.042 266.574 191.042H268.014C269.443 191.042 270.158 191.778 270.158 193.25V194.69C270.158 196.205 269.443 196.962 268.014 196.962H266.574ZM267.31 233.026C266.179 233.026 265.614 232.461 265.614 231.33V204.45C265.614 203.341 266.179 202.786 267.31 202.786C268.419 202.786 268.974 203.341 268.974 204.45V231.33C268.974 232.461 268.419 233.026 267.31 233.026Z" fill="#777777"/>
<path d="M255.029 233.026C251.103 233.026 248.234 232.119 246.421 230.306C244.607 228.493 243.701 225.634 243.701 221.73V206.146H239.893C238.762 206.146 238.197 205.581 238.197 204.45C238.197 203.341 238.762 202.786 239.893 202.786H243.701V195.906C243.701 194.775 244.255 194.21 245.365 194.21C246.495 194.21 247.061 194.775 247.061 195.906V202.786H255.093C256.202 202.786 256.757 203.341 256.757 204.45C256.757 205.581 256.202 206.146 255.093 206.146H247.061V221.73C247.061 224.717 247.637 226.786 248.789 227.938C249.962 229.09 252.042 229.666 255.029 229.666C255.647 229.666 256.085 229.805 256.341 230.082C256.618 230.359 256.757 230.775 256.757 231.33C256.757 232.461 256.181 233.026 255.029 233.026Z" fill="#777777"/>
<path d="M216.802 233.026C212.813 233.026 209.89 232.098 208.034 230.242C206.178 228.386 205.25 225.463 205.25 221.474V214.242C205.25 210.253 206.167 207.341 208.002 205.506C209.858 203.65 212.791 202.743 216.802 202.786H222.05C225.186 202.786 227.575 203.319 229.218 204.386C230.882 205.431 231.874 207.085 232.194 209.346C232.258 209.922 232.13 210.359 231.81 210.658C231.511 210.957 231.085 211.106 230.53 211.106C230.018 211.106 229.634 210.978 229.378 210.722C229.122 210.445 228.93 210.05 228.802 209.538C228.567 208.301 227.938 207.426 226.914 206.914C225.89 206.402 224.269 206.146 222.05 206.146H216.802C213.751 206.103 211.618 206.679 210.402 207.874C209.207 209.047 208.61 211.17 208.61 214.242V221.474C208.61 224.525 209.207 226.658 210.402 227.874C211.618 229.069 213.751 229.666 216.802 229.666H222.05C224.269 229.666 225.89 229.41 226.914 228.898C227.938 228.386 228.567 227.501 228.802 226.242C228.93 225.73 229.122 225.346 229.378 225.09C229.634 224.813 230.018 224.674 230.53 224.674C231.085 224.674 231.511 224.834 231.81 225.154C232.13 225.453 232.258 225.879 232.194 226.434C231.874 228.695 230.882 230.359 229.218 231.426C227.575 232.493 225.186 233.026 222.05 233.026H216.802Z" fill="#777777"/>
<path d="M170.048 219.202V221.538C170.048 224.546 170.645 226.658 171.84 227.874C173.056 229.069 175.189 229.666 178.24 229.666H183.488C186.176 229.666 188.128 229.325 189.344 228.642C190.581 227.938 191.317 226.733 191.552 225.026C191.637 224.493 191.808 224.087 192.064 223.81C192.341 223.533 192.757 223.394 193.312 223.394C193.866 223.394 194.282 223.554 194.56 223.874C194.858 224.173 194.975 224.599 194.911 225.154C194.634 227.842 193.557 229.826 191.68 231.106C189.802 232.386 187.072 233.026 183.488 233.026H178.24C174.25 233.026 171.328 232.109 169.472 230.274C167.616 228.418 166.688 225.506 166.688 221.538V214.306C166.688 210.274 167.616 207.341 169.472 205.506C171.328 203.65 174.25 202.743 178.24 202.786H183.488C187.477 202.786 190.389 203.714 192.224 205.57C194.08 207.405 195.008 210.317 195.008 214.306V217.506C195.008 218.637 194.453 219.202 193.344 219.202H170.048ZM178.24 206.146C175.189 206.103 173.056 206.69 171.84 207.906C170.645 209.101 170.048 211.234 170.048 214.306V215.842H191.648V214.306C191.648 211.255 191.05 209.133 189.855 207.938C188.661 206.743 186.538 206.146 183.488 206.146H178.24Z" fill="#777777"/>
<path d="M130.185 233.026C129.054 233.026 128.489 232.461 128.489 231.33V204.45C128.489 203.341 129.054 202.786 130.185 202.786C131.294 202.786 131.849 203.341 131.849 204.45V207.522C133.876 204.365 137.545 202.786 142.857 202.786H144.649C148.638 202.786 151.55 203.714 153.385 205.57C155.241 207.405 156.169 210.317 156.169 214.306V231.33C156.169 232.461 155.614 233.026 154.505 233.026C153.374 233.026 152.809 232.461 152.809 231.33V214.306C152.809 211.255 152.201 209.133 150.985 207.938C149.79 206.743 147.678 206.146 144.649 206.146H142.857C139.55 206.146 136.948 206.669 135.049 207.714C133.15 208.759 132.084 210.391 131.849 212.61V231.33C131.849 232.461 131.294 233.026 130.185 233.026Z" fill="#777777"/>
<path d="M91.1225 233.026C89.9918 233.026 89.4265 232.461 89.4265 231.33V204.45C89.4265 203.341 89.9918 202.786 91.1225 202.786C92.2318 202.786 92.7865 203.341 92.7865 204.45V207.522C94.8132 204.365 98.4825 202.786 103.795 202.786H105.587C109.576 202.786 112.488 203.714 114.323 205.57C116.179 207.405 117.107 210.317 117.107 214.306V231.33C117.107 232.461 116.552 233.026 115.443 233.026C114.312 233.026 113.747 232.461 113.747 231.33V214.306C113.747 211.255 113.139 209.133 111.923 207.938C110.728 206.743 108.616 206.146 105.587 206.146H103.795C100.488 206.146 97.8852 206.669 95.9865 207.714C94.0878 208.759 93.0212 210.391 92.7865 212.61V231.33C92.7865 232.461 92.2318 233.026 91.1225 233.026Z" fill="#777777"/>
<path d="M61.552 233.026C57.5627 233.026 54.64 232.109 52.784 230.274C50.928 228.418 50 225.506 50 221.538V214.306C50 210.274 50.928 207.341 52.784 205.506C54.64 203.65 57.5627 202.743 61.552 202.786H66.8C70.7893 202.786 73.7013 203.714 75.536 205.57C77.392 207.405 78.32 210.317 78.32 214.306V221.474C78.32 225.463 77.392 228.386 75.536 230.242C73.7013 232.098 70.7893 233.026 66.8 233.026H61.552ZM53.36 221.538C53.36 224.546 53.9573 226.658 55.152 227.874C56.368 229.069 58.5013 229.666 61.552 229.666H66.8C69.8507 229.666 71.9733 229.069 73.168 227.874C74.3627 226.658 74.96 224.525 74.96 221.474V214.306C74.96 211.255 74.3627 209.133 73.168 207.938C71.9733 206.743 69.8507 206.146 66.8 206.146H61.552C59.504 206.125 57.8827 206.37 56.688 206.882C55.4933 207.394 54.64 208.247 54.128 209.442C53.616 210.637 53.36 212.258 53.36 214.306V221.538Z" fill="#777777"/>
<path d="M23.344 233.026C18.7147 233.026 15.3333 231.959 13.2 229.826C11.0667 227.693 10 224.311 10 219.682V205.122C10 200.45 11.056 197.058 13.168 194.946C15.3013 192.834 18.672 191.778 23.28 191.778H31.024C34.9493 191.778 37.872 192.599 39.792 194.242C41.712 195.863 42.768 198.477 42.96 202.082C43.024 202.658 42.9067 203.095 42.608 203.394C42.3307 203.693 41.9147 203.842 41.36 203.842C40.2933 203.842 39.7067 203.277 39.6 202.146C39.4507 199.501 38.7253 197.677 37.424 196.674C36.1227 195.65 33.9893 195.138 31.024 195.138H23.28C20.8267 195.138 18.8747 195.458 17.424 196.098C15.9733 196.717 14.928 197.762 14.288 199.234C13.6693 200.685 13.36 202.647 13.36 205.122V219.682C13.36 222.157 13.68 224.119 14.32 225.57C14.96 227.021 16.0053 228.066 17.456 228.706C18.9067 229.346 20.8693 229.666 23.344 229.666H31.024C33.9893 229.666 36.1227 229.165 37.424 228.162C38.7253 227.138 39.4507 225.303 39.6 222.658C39.7067 221.527 40.2933 220.962 41.36 220.962C41.9147 220.962 42.3307 221.122 42.608 221.442C42.9067 221.741 43.024 222.167 42.96 222.722C42.768 226.327 41.712 228.951 39.792 230.594C37.872 232.215 34.9493 233.026 31.024 233.026H23.344Z" fill="#777777"/>
</svg>
