<?xml version="1.0" encoding="utf-8"?>
<!-- Generator: $$$/GeneralStr/196=Adobe Illustrator 27.6.0, SVG Export Plug-In . SVG Version: 6.00 Build 0)  -->
<svg version="1.1" id="Calque_1" xmlns="http://www.w3.org/2000/svg" xmlns:xlink="http://www.w3.org/1999/xlink" x="0px" y="0px"
	 viewBox="0 0 932.4 273" style="enable-background:new 0 0 932.4 273;" xml:space="preserve">
<style type="text/css">
	.st0{fill:#FF0350;}
</style>
<g>
	<path class="st0" d="M426,150.8h29.7v51.3L426,150.8z M341.2,122.1V61.2l35.1,60.9H341.2z M210.9,204.1h30.7v-53.3h54v-28.7h-54
		V58.5h-30.7V204.1z M120.8,204.1h30.7V87.2h44.1V58.5H76.8v28.7h44.1V204.1z M452.8,204.1h33.5v-8c0-37.7-22.8-73.9-66.7-73.9
		h-10.3l-23.2-40.2c-9.2-15.9-22-23.4-42.7-23.4h-33v145.6h30.7v-53.3h51.7l17.2,29.9C419.3,196.6,432.2,204.1,452.8,204.1"/>
</g>
<g>
	<path class="st0" d="M561.9,65.1h-17.7v9.2h17.4v6.6h-17.4v15.6h-7.9v-38h25.6V65.1z"/>
	<path class="st0" d="M592.3,79.4v0.1v17h-7.6v-5.1c-1.5,3.2-4,5.7-9.1,5.7c-5.3,0-9.5-3.6-9.5-8.9c0-6.2,5.9-7.8,11.3-8.2l7.2-0.7
		v-0.4v-0.1c0-2.8-1.6-4.9-4.9-4.9c-3,0-4.6,1.8-4.9,3.7h-7.7c0.7-5.6,5.7-8.9,12.6-8.9C588.2,68.7,592.3,73.3,592.3,79.4z
		 M584.6,84.9v-1.1l-4.4,0.5c-3.1,0.4-6.3,0.9-6.3,4c0,2.7,2.1,4.3,4.7,4.3C582.6,92.5,584.6,89.2,584.6,84.9z"/>
	<path class="st0" d="M598,82.9c0-8.5,5.8-14.2,14.1-14.2c7.2,0,12.1,4,13.3,10.4h-7.7c-0.6-2.9-2.4-5.2-5.6-5.2
		c-4.1,0-6.2,3.5-6.2,9c0,5.7,2.3,9,6.2,9c3.2,0,5-1.9,5.8-5h7.7c-1.3,6.7-6.7,10.2-13.5,10.2C603.7,97.1,598,91.4,598,82.9z"/>
	<path class="st0" d="M648.3,69.3h7.7v27.2h-7.6v-5.4c-1.2,3.2-3.8,6-8.6,6c-6.3,0-9-4.5-9-10.6v-0.1V69.3h7.7v15.5v0.1
		c0,4.7,1.8,6.8,4.9,6.8c3.2,0,4.9-2.3,4.9-7V69.3z"/>
	<path class="st0" d="M663.5,96.5v-38h7.7v38H663.5z"/>
	<path class="st0" d="M694.9,90.9v5.6h-4.3c-5.4,0-9.4-2.7-9.4-8.1v-0.1V74.9h-5.1v-5.6h5.1v-6.4h7.7v6.4h6v5.6h-6v12.8v0.1
		c0,2.3,1.1,3,3.3,3H694.9z"/>
	<path class="st0" d="M718.9,69.3h8l-10.7,37h-7.9l3.6-12.6h-6.5l-8-24.4h7.7l7.2,22.8L718.9,69.3z"/>
	<path class="st0" d="M742.4,82.9c0-8.4,5.5-14.2,14.2-14.2c8.7,0,14.2,5.9,14.2,14.2c0,8.3-5.5,14.2-14.2,14.2
		C747.9,97.1,742.4,91.2,742.4,82.9z M762.9,82.9c0-5.6-2.2-9-6.4-9s-6.3,3.5-6.3,9c0,5.5,2.2,9,6.3,9S762.9,88.4,762.9,82.9z"/>
	<path class="st0" d="M789.8,63.9c-2.2,0-3.4,0.7-3.4,3.1v2.2h6.1v5.6h-6.1v21.6h-7.7V74.9h-4.9v-5.6h4.9v-2.7c0-5.5,4-8.2,9.4-8.2
		h4.4v5.5H789.8z"/>
	<path class="st0" d="M544.3,143.7H563v6.6h-26.6v-38h26.2v6.6h-18.3v8.6h17.9v6.6h-17.9V143.7z"/>
	<path class="st0" d="M569.8,150.3v-38h7.7v38H569.8z"/>
	<path class="st0" d="M610.9,139h-19.6c0.5,4.5,2.9,6.7,6.1,6.7c3,0,4.4-1.2,5.4-3.5h7.7c-1.8,5.8-6.6,8.7-13.1,8.7
		c-8.5,0-13.8-5.9-13.8-14.2c0-8.4,5.6-14.2,13.8-14.2c8.4,0,13.7,5.8,13.7,14.3C611.1,137.5,611,138.2,610.9,139z M591.4,133.9
		h11.9c-0.4-3.9-2.7-6.2-5.9-6.2C594.3,127.7,592.1,129.6,591.4,133.9z"/>
	<path class="st0" d="M615.7,136.7c0-8.5,5.8-14.2,14.1-14.2c7.2,0,12.1,4,13.3,10.4h-7.7c-0.6-2.9-2.4-5.2-5.6-5.2
		c-4.1,0-6.2,3.5-6.2,9c0,5.7,2.3,9,6.2,9c3.2,0,5-1.9,5.8-5h7.7c-1.3,6.7-6.7,10.2-13.5,10.2C621.3,150.9,615.7,145.2,615.7,136.7z
		"/>
	<path class="st0" d="M664.6,144.7v5.6h-4.3c-5.4,0-9.4-2.7-9.4-8.1v-0.1v-13.4h-5.1v-5.6h5.1v-6.4h7.7v6.4h6v5.6h-6v12.8v0.1
		c0,2.3,1.1,3,3.4,3H664.6z"/>
	<path class="st0" d="M677.9,130.2c1-4.2,3.8-7.7,9-7.7v7.5h-2c-4.8,0-7,1.6-7,6.2v14.1h-7.7v-27.2h7.6V130.2z"/>
	<path class="st0" d="M692,119.5v-7.2h7.9v7.2H692z M692.1,150.3v-27.2h7.7v27.2H692.1z"/>
	<path class="st0" d="M705.9,136.7c0-8.5,5.8-14.2,14.1-14.2c7.2,0,12.1,4,13.3,10.4h-7.7c-0.6-2.9-2.4-5.2-5.5-5.2
		c-4.1,0-6.2,3.5-6.2,9c0,5.7,2.3,9,6.2,9c3.2,0,5-1.9,5.8-5h7.7c-1.3,6.7-6.7,10.2-13.5,10.2C711.5,150.9,705.9,145.2,705.9,136.7z
		"/>
	<path class="st0" d="M763.7,133.2v0.1v17h-7.6v-5.1c-1.5,3.2-4,5.7-9,5.7c-5.3,0-9.5-3.6-9.5-8.9c0-6.2,5.9-7.8,11.3-8.2l7.2-0.7
		v-0.4v-0.1c0-2.8-1.6-4.9-4.9-4.9c-3,0-4.6,1.8-4.9,3.7h-7.7c0.7-5.6,5.7-8.9,12.6-8.9C759.6,122.5,763.7,127.1,763.7,133.2z
		 M756,138.7v-1.1l-4.4,0.5c-3.1,0.4-6.2,0.9-6.2,4c0,2.7,2,4.3,4.7,4.3C754,146.3,756,143,756,138.7z"/>
	<path class="st0" d="M770.9,150.3v-38h7.7v38H770.9z"/>
	<path class="st0" d="M544.3,197.5H563v6.6h-26.6v-38h26.2v6.6h-18.3v8.6h17.9v6.6h-17.9V197.5z"/>
	<path class="st0" d="M595.1,186.9v0.1v17.1h-7.7v-15.5v-0.1c0-4.7-1.8-6.9-5-6.9c-3.2,0-5,2.2-5,7v15.5h-7.7v-27.2h7.6v5.6
		c1.2-3.4,3.9-6.2,8.7-6.2C592.4,176.3,595.1,180.9,595.1,186.9z"/>
	<path class="st0" d="M621.3,176.9h7.6v26.7c0,8.2-7.1,10.9-13.4,10.9c-6.4,0-12.5-2.8-13.2-9h7.7c0.5,2.5,2.8,3.8,5.5,3.8
		c3.3,0,5.8-1.8,5.8-5.5v-5.8c-1.5,3.4-4.8,5.9-9,5.9c-6.7,0-11.2-5.6-11.2-13.8s4.6-13.8,11.2-13.8c4.8,0,7.8,3,9,6.6V176.9z
		 M621.6,190.1c0-5.3-2.2-8.5-6.4-8.5c-4.2,0-6.4,3.2-6.4,8.5c0,5.4,2.2,8.6,6.4,8.6C619.4,198.6,621.6,195.4,621.6,190.1z"/>
	<path class="st0" d="M636.2,173.3v-7.2h7.9v7.2H636.2z M636.3,204.1v-27.2h7.7v27.2H636.3z"/>
	<path class="st0" d="M676.8,186.9v0.1v17.1h-7.7v-15.5v-0.1c0-4.7-1.8-6.9-5-6.9c-3.2,0-5,2.2-5,7v15.5h-7.7v-27.2h7.6v5.6
		c1.2-3.4,3.9-6.2,8.7-6.2C674.1,176.3,676.8,180.9,676.8,186.9z"/>
	<path class="st0" d="M710,192.8h-19.6c0.5,4.6,2.9,6.7,6,6.7c3,0,4.4-1.3,5.4-3.5h7.7c-1.8,5.8-6.6,8.7-13.1,8.7
		c-8.5,0-13.8-5.9-13.8-14.2s5.5-14.2,13.8-14.2c8.4,0,13.7,5.8,13.7,14.3C710.1,191.3,710.1,192,710,192.8z M690.5,187.7h11.9
		c-0.4-3.9-2.7-6.2-5.9-6.2C693.4,181.5,691.1,183.4,690.5,187.7z"/>
	<path class="st0" d="M742.1,192.8h-19.6c0.5,4.6,2.9,6.7,6.1,6.7c3,0,4.4-1.3,5.3-3.5h7.7c-1.8,5.8-6.6,8.7-13.1,8.7
		c-8.5,0-13.8-5.9-13.8-14.2s5.6-14.2,13.8-14.2c8.4,0,13.7,5.8,13.7,14.3C742.2,191.3,742.2,192,742.1,192.8z M722.6,187.7h11.9
		c-0.4-3.9-2.7-6.2-5.9-6.2C725.5,181.5,723.2,183.4,722.6,187.7z"/>
	<path class="st0" d="M755.9,184c1-4.2,3.8-7.7,9.1-7.7v7.5h-2c-4.8,0-7.1,1.6-7.1,6.2v14.1h-7.7v-27.2h7.6V184z"/>
	<path class="st0" d="M770,173.3v-7.2h7.9v7.2H770z M770.1,204.1v-27.2h7.7v27.2H770.1z"/>
	<path class="st0" d="M810.6,186.9v0.1v17.1H803v-15.5v-0.1c0-4.7-1.8-6.9-5-6.9c-3.2,0-5,2.2-5,7v15.5h-7.7v-27.2h7.6v5.6
		c1.2-3.4,3.9-6.2,8.7-6.2C807.9,176.3,810.6,180.9,810.6,186.9z"/>
	<path class="st0" d="M836.8,176.9h7.6v26.7c0,8.2-7.1,10.9-13.4,10.9c-6.4,0-12.5-2.8-13.2-9h7.7c0.5,2.5,2.8,3.8,5.5,3.8
		c3.2,0,5.8-1.8,5.8-5.5v-5.8c-1.5,3.4-4.8,5.9-9,5.9c-6.7,0-11.2-5.6-11.2-13.8s4.6-13.8,11.2-13.8c4.8,0,7.8,3,9,6.6V176.9z
		 M837.1,190.1c0-5.3-2.2-8.5-6.3-8.5c-4.2,0-6.4,3.2-6.4,8.5c0,5.4,2.2,8.6,6.4,8.6C834.9,198.6,837.1,195.4,837.1,190.1z"/>
</g>
</svg>
