<svg width="419" height="419" viewBox="0 0 419 419" fill="none" xmlns="http://www.w3.org/2000/svg">
<path d="M247.23 295.477C249.888 296.947 253.176 295.952 254.573 293.255C255.971 290.558 254.949 287.18 252.29 285.71L247.23 295.477ZM142.707 231.392L176.228 286.203L205.446 229.814L142.707 231.392ZM252.29 285.71L188.555 250.463L183.494 260.23L247.23 295.477L252.29 285.71Z" fill="#A8A4A4"/>
<ellipse cx="46.3221" cy="45.6661" rx="46.3221" ry="45.6661" transform="matrix(-0.517591 0.855628 -0.840121 -0.542398 363 304.009)" fill="#229CF3"/>
<ellipse cx="301.444" cy="82.7376" rx="45.2407" ry="46.7376" fill="#229CF3"/>
<path d="M306.945 146.866C306.945 143.828 304.482 141.366 301.445 141.366C298.407 141.366 295.945 143.828 295.945 146.866H306.945ZM301.445 254.471L333.199 199.471H269.69L301.445 254.471ZM295.945 146.866V204.971H306.945V146.866H295.945Z" fill="#A8A4A4"/>
<ellipse cx="46.3796" cy="45.6076" rx="46.3796" ry="45.6076" transform="matrix(-0.479971 -0.877285 0.863561 -0.504245 74.5217 266.628)" fill="#229CF3"/>
<path d="M141.503 168.555C138.871 170.072 137.907 173.468 139.35 176.141C140.793 178.814 144.097 179.751 146.728 178.235L141.503 168.555ZM249.404 112.728L186.664 112.245L216.834 168.129L249.404 112.728ZM146.728 178.235L209.127 142.281L203.902 132.601L141.503 168.555L146.728 178.235Z" fill="#A8A4A4"/>
</svg>
